G04 #@! TF.GenerationSoftware,KiCad,Pcbnew,(5.1.4)-1*
G04 #@! TF.CreationDate,2020-01-13T07:02:12+01:00*
G04 #@! TF.ProjectId,Skills,536b696c-6c73-42e6-9b69-6361645f7063,rev?*
G04 #@! TF.SameCoordinates,Original*
G04 #@! TF.FileFunction,Legend,Bot*
G04 #@! TF.FilePolarity,Positive*
%FSLAX46Y46*%
G04 Gerber Fmt 4.6, Leading zero omitted, Abs format (unit mm)*
G04 Created by KiCad (PCBNEW (5.1.4)-1) date 2020-01-13 07:02:12*
%MOMM*%
%LPD*%
G04 APERTURE LIST*
%ADD10C,0.120000*%
%ADD11C,0.150000*%
G04 APERTURE END LIST*
D10*
X85560000Y-62630000D02*
G75*
G03X80440000Y-62630000I-2560000J0D01*
G01*
X84270000Y-68920000D02*
X84270000Y-68920000D01*
X84270000Y-68790000D02*
X84270000Y-68920000D01*
X84270000Y-68790000D02*
X84270000Y-68790000D01*
X84270000Y-68920000D02*
X84270000Y-68790000D01*
X81730000Y-68920000D02*
X81730000Y-68920000D01*
X81730000Y-68790000D02*
X81730000Y-68920000D01*
X81730000Y-68790000D02*
X81730000Y-68790000D01*
X81730000Y-68920000D02*
X81730000Y-68790000D01*
X85560000Y-68790000D02*
X85960000Y-68790000D01*
X85560000Y-67670000D02*
X85560000Y-68790000D01*
X85960000Y-67670000D02*
X85560000Y-67670000D01*
X85960000Y-68790000D02*
X85960000Y-67670000D01*
X80440000Y-68790000D02*
X85560000Y-68790000D01*
X85560000Y-68790000D02*
X85560000Y-62630000D01*
X80440000Y-68790000D02*
X80440000Y-62630000D01*
D11*
X83738095Y-72412380D02*
X83738095Y-71412380D01*
X83500000Y-71412380D01*
X83357142Y-71460000D01*
X83261904Y-71555238D01*
X83214285Y-71650476D01*
X83166666Y-71840952D01*
X83166666Y-71983809D01*
X83214285Y-72174285D01*
X83261904Y-72269523D01*
X83357142Y-72364761D01*
X83500000Y-72412380D01*
X83738095Y-72412380D01*
X82214285Y-72412380D02*
X82785714Y-72412380D01*
X82500000Y-72412380D02*
X82500000Y-71412380D01*
X82595238Y-71555238D01*
X82690476Y-71650476D01*
X82785714Y-71698095D01*
M02*
