G04 #@! TF.GenerationSoftware,KiCad,Pcbnew,(5.1.4)-1*
G04 #@! TF.CreationDate,2020-01-13T07:02:12+01:00*
G04 #@! TF.ProjectId,Skills,536b696c-6c73-42e6-9b69-6361645f7063,rev?*
G04 #@! TF.SameCoordinates,Original*
G04 #@! TF.FileFunction,Legend,Top*
G04 #@! TF.FilePolarity,Positive*
%FSLAX46Y46*%
G04 Gerber Fmt 4.6, Leading zero omitted, Abs format (unit mm)*
G04 Created by KiCad (PCBNEW (5.1.4)-1) date 2020-01-13 07:02:12*
%MOMM*%
%LPD*%
G04 APERTURE LIST*
%ADD10C,0.300000*%
%ADD11C,0.120000*%
%ADD12C,0.010000*%
%ADD13C,0.150000*%
%ADD14C,0.127000*%
G04 APERTURE END LIST*
D10*
X115677142Y-108902428D02*
X115677142Y-107759571D01*
X115677142Y-114998428D02*
X115677142Y-113855571D01*
X116248571Y-114427000D02*
X115105714Y-114427000D01*
X54714285Y-121428571D02*
X54714285Y-119928571D01*
X55071428Y-119928571D01*
X55285714Y-120000000D01*
X55428571Y-120142857D01*
X55500000Y-120285714D01*
X55571428Y-120571428D01*
X55571428Y-120785714D01*
X55500000Y-121071428D01*
X55428571Y-121214285D01*
X55285714Y-121357142D01*
X55071428Y-121428571D01*
X54714285Y-121428571D01*
X56857142Y-121428571D02*
X56857142Y-120642857D01*
X56785714Y-120500000D01*
X56642857Y-120428571D01*
X56357142Y-120428571D01*
X56214285Y-120500000D01*
X56857142Y-121357142D02*
X56714285Y-121428571D01*
X56357142Y-121428571D01*
X56214285Y-121357142D01*
X56142857Y-121214285D01*
X56142857Y-121071428D01*
X56214285Y-120928571D01*
X56357142Y-120857142D01*
X56714285Y-120857142D01*
X56857142Y-120785714D01*
X57571428Y-121428571D02*
X57571428Y-120428571D01*
X57571428Y-120571428D02*
X57642857Y-120500000D01*
X57785714Y-120428571D01*
X58000000Y-120428571D01*
X58142857Y-120500000D01*
X58214285Y-120642857D01*
X58214285Y-121428571D01*
X58214285Y-120642857D02*
X58285714Y-120500000D01*
X58428571Y-120428571D01*
X58642857Y-120428571D01*
X58785714Y-120500000D01*
X58857142Y-120642857D01*
X58857142Y-121428571D01*
X59571428Y-121428571D02*
X59571428Y-120428571D01*
X59571428Y-119928571D02*
X59500000Y-120000000D01*
X59571428Y-120071428D01*
X59642857Y-120000000D01*
X59571428Y-119928571D01*
X59571428Y-120071428D01*
X60928571Y-121428571D02*
X60928571Y-120642857D01*
X60857142Y-120500000D01*
X60714285Y-120428571D01*
X60428571Y-120428571D01*
X60285714Y-120500000D01*
X60928571Y-121357142D02*
X60785714Y-121428571D01*
X60428571Y-121428571D01*
X60285714Y-121357142D01*
X60214285Y-121214285D01*
X60214285Y-121071428D01*
X60285714Y-120928571D01*
X60428571Y-120857142D01*
X60785714Y-120857142D01*
X60928571Y-120785714D01*
X61642857Y-120428571D02*
X61642857Y-121428571D01*
X61642857Y-120571428D02*
X61714285Y-120500000D01*
X61857142Y-120428571D01*
X62071428Y-120428571D01*
X62214285Y-120500000D01*
X62285714Y-120642857D01*
X62285714Y-121428571D01*
X55214285Y-123907142D02*
X55428571Y-123978571D01*
X55785714Y-123978571D01*
X55928571Y-123907142D01*
X56000000Y-123835714D01*
X56071428Y-123692857D01*
X56071428Y-123550000D01*
X56000000Y-123407142D01*
X55928571Y-123335714D01*
X55785714Y-123264285D01*
X55500000Y-123192857D01*
X55357142Y-123121428D01*
X55285714Y-123050000D01*
X55214285Y-122907142D01*
X55214285Y-122764285D01*
X55285714Y-122621428D01*
X55357142Y-122550000D01*
X55500000Y-122478571D01*
X55857142Y-122478571D01*
X56071428Y-122550000D01*
X56500000Y-122978571D02*
X57071428Y-122978571D01*
X56714285Y-122478571D02*
X56714285Y-123764285D01*
X56785714Y-123907142D01*
X56928571Y-123978571D01*
X57071428Y-123978571D01*
X58142857Y-123907142D02*
X58000000Y-123978571D01*
X57714285Y-123978571D01*
X57571428Y-123907142D01*
X57500000Y-123764285D01*
X57500000Y-123192857D01*
X57571428Y-123050000D01*
X57714285Y-122978571D01*
X58000000Y-122978571D01*
X58142857Y-123050000D01*
X58214285Y-123192857D01*
X58214285Y-123335714D01*
X57500000Y-123478571D01*
X58642857Y-122978571D02*
X59214285Y-122978571D01*
X58857142Y-123978571D02*
X58857142Y-122692857D01*
X58928571Y-122550000D01*
X59071428Y-122478571D01*
X59214285Y-122478571D01*
X60357142Y-123978571D02*
X60357142Y-123192857D01*
X60285714Y-123050000D01*
X60142857Y-122978571D01*
X59857142Y-122978571D01*
X59714285Y-123050000D01*
X60357142Y-123907142D02*
X60214285Y-123978571D01*
X59857142Y-123978571D01*
X59714285Y-123907142D01*
X59642857Y-123764285D01*
X59642857Y-123621428D01*
X59714285Y-123478571D01*
X59857142Y-123407142D01*
X60214285Y-123407142D01*
X60357142Y-123335714D01*
X61071428Y-122978571D02*
X61071428Y-123978571D01*
X61071428Y-123121428D02*
X61142857Y-123050000D01*
X61285714Y-122978571D01*
X61500000Y-122978571D01*
X61642857Y-123050000D01*
X61714285Y-123192857D01*
X61714285Y-123978571D01*
X55892857Y-126528571D02*
X55178571Y-126528571D01*
X55178571Y-125028571D01*
X56607142Y-126528571D02*
X56464285Y-126457142D01*
X56392857Y-126385714D01*
X56321428Y-126242857D01*
X56321428Y-125814285D01*
X56392857Y-125671428D01*
X56464285Y-125600000D01*
X56607142Y-125528571D01*
X56821428Y-125528571D01*
X56964285Y-125600000D01*
X57035714Y-125671428D01*
X57107142Y-125814285D01*
X57107142Y-126242857D01*
X57035714Y-126385714D01*
X56964285Y-126457142D01*
X56821428Y-126528571D01*
X56607142Y-126528571D01*
X57750000Y-126528571D02*
X57750000Y-125528571D01*
X57750000Y-125814285D02*
X57821428Y-125671428D01*
X57892857Y-125600000D01*
X58035714Y-125528571D01*
X58178571Y-125528571D01*
X59250000Y-126457142D02*
X59107142Y-126528571D01*
X58821428Y-126528571D01*
X58678571Y-126457142D01*
X58607142Y-126314285D01*
X58607142Y-125742857D01*
X58678571Y-125600000D01*
X58821428Y-125528571D01*
X59107142Y-125528571D01*
X59250000Y-125600000D01*
X59321428Y-125742857D01*
X59321428Y-125885714D01*
X58607142Y-126028571D01*
X59964285Y-125528571D02*
X59964285Y-126528571D01*
X59964285Y-125671428D02*
X60035714Y-125600000D01*
X60178571Y-125528571D01*
X60392857Y-125528571D01*
X60535714Y-125600000D01*
X60607142Y-125742857D01*
X60607142Y-126528571D01*
X61178571Y-125528571D02*
X61964285Y-125528571D01*
X61178571Y-126528571D01*
X61964285Y-126528571D01*
D11*
X71758578Y-108390000D02*
X71241422Y-108390000D01*
X71758578Y-109810000D02*
X71241422Y-109810000D01*
X70047936Y-107410000D02*
X71252064Y-107410000D01*
X70047936Y-105590000D02*
X71252064Y-105590000D01*
D12*
G36*
X108717823Y-62980533D02*
G01*
X108749202Y-63002776D01*
X108776911Y-63030485D01*
X108776911Y-63339920D01*
X108776838Y-63431799D01*
X108776495Y-63503840D01*
X108775692Y-63558780D01*
X108774241Y-63599360D01*
X108771952Y-63628317D01*
X108768636Y-63648391D01*
X108764105Y-63662321D01*
X108758169Y-63672845D01*
X108753514Y-63679100D01*
X108722783Y-63703673D01*
X108687496Y-63706341D01*
X108655245Y-63691271D01*
X108644588Y-63682374D01*
X108637464Y-63670557D01*
X108633167Y-63651526D01*
X108630991Y-63620992D01*
X108630228Y-63574662D01*
X108630155Y-63538871D01*
X108630155Y-63404045D01*
X108133444Y-63404045D01*
X108133444Y-63526700D01*
X108132931Y-63582787D01*
X108130876Y-63621333D01*
X108126508Y-63647361D01*
X108119056Y-63665897D01*
X108110047Y-63679100D01*
X108079144Y-63703604D01*
X108044196Y-63706506D01*
X108010738Y-63689089D01*
X108001604Y-63679959D01*
X107995152Y-63667855D01*
X107990897Y-63649001D01*
X107988352Y-63619620D01*
X107987029Y-63575937D01*
X107986443Y-63514175D01*
X107986375Y-63500000D01*
X107985891Y-63383631D01*
X107985641Y-63287727D01*
X107985723Y-63210177D01*
X107986231Y-63148869D01*
X107987262Y-63101690D01*
X107988913Y-63066530D01*
X107991279Y-63041276D01*
X107994457Y-63023817D01*
X107998544Y-63012041D01*
X108003634Y-63003835D01*
X108009266Y-62997645D01*
X108041128Y-62977844D01*
X108074357Y-62980533D01*
X108105735Y-63002776D01*
X108118433Y-63017126D01*
X108126526Y-63032978D01*
X108131042Y-63055554D01*
X108133006Y-63090078D01*
X108133444Y-63141776D01*
X108133444Y-63257289D01*
X108630155Y-63257289D01*
X108630155Y-63138756D01*
X108630662Y-63084148D01*
X108632698Y-63047275D01*
X108637035Y-63023307D01*
X108644447Y-63007415D01*
X108652733Y-62997645D01*
X108684594Y-62977844D01*
X108717823Y-62980533D01*
X108717823Y-62980533D01*
G37*
X108717823Y-62980533D02*
X108749202Y-63002776D01*
X108776911Y-63030485D01*
X108776911Y-63339920D01*
X108776838Y-63431799D01*
X108776495Y-63503840D01*
X108775692Y-63558780D01*
X108774241Y-63599360D01*
X108771952Y-63628317D01*
X108768636Y-63648391D01*
X108764105Y-63662321D01*
X108758169Y-63672845D01*
X108753514Y-63679100D01*
X108722783Y-63703673D01*
X108687496Y-63706341D01*
X108655245Y-63691271D01*
X108644588Y-63682374D01*
X108637464Y-63670557D01*
X108633167Y-63651526D01*
X108630991Y-63620992D01*
X108630228Y-63574662D01*
X108630155Y-63538871D01*
X108630155Y-63404045D01*
X108133444Y-63404045D01*
X108133444Y-63526700D01*
X108132931Y-63582787D01*
X108130876Y-63621333D01*
X108126508Y-63647361D01*
X108119056Y-63665897D01*
X108110047Y-63679100D01*
X108079144Y-63703604D01*
X108044196Y-63706506D01*
X108010738Y-63689089D01*
X108001604Y-63679959D01*
X107995152Y-63667855D01*
X107990897Y-63649001D01*
X107988352Y-63619620D01*
X107987029Y-63575937D01*
X107986443Y-63514175D01*
X107986375Y-63500000D01*
X107985891Y-63383631D01*
X107985641Y-63287727D01*
X107985723Y-63210177D01*
X107986231Y-63148869D01*
X107987262Y-63101690D01*
X107988913Y-63066530D01*
X107991279Y-63041276D01*
X107994457Y-63023817D01*
X107998544Y-63012041D01*
X108003634Y-63003835D01*
X108009266Y-62997645D01*
X108041128Y-62977844D01*
X108074357Y-62980533D01*
X108105735Y-63002776D01*
X108118433Y-63017126D01*
X108126526Y-63032978D01*
X108131042Y-63055554D01*
X108133006Y-63090078D01*
X108133444Y-63141776D01*
X108133444Y-63257289D01*
X108630155Y-63257289D01*
X108630155Y-63138756D01*
X108630662Y-63084148D01*
X108632698Y-63047275D01*
X108637035Y-63023307D01*
X108644447Y-63007415D01*
X108652733Y-62997645D01*
X108684594Y-62977844D01*
X108717823Y-62980533D01*
G36*
X107452065Y-62975163D02*
G01*
X107530772Y-62975542D01*
X107591863Y-62976333D01*
X107637817Y-62977670D01*
X107671114Y-62979683D01*
X107694236Y-62982506D01*
X107709662Y-62986269D01*
X107719871Y-62991105D01*
X107724813Y-62994822D01*
X107750457Y-63027358D01*
X107753559Y-63061138D01*
X107737711Y-63091826D01*
X107727348Y-63104089D01*
X107716196Y-63112450D01*
X107700035Y-63117657D01*
X107674642Y-63120457D01*
X107635798Y-63121596D01*
X107579280Y-63121821D01*
X107568180Y-63121822D01*
X107422244Y-63121822D01*
X107422244Y-63392756D01*
X107422148Y-63478154D01*
X107421711Y-63543864D01*
X107420712Y-63592774D01*
X107418928Y-63627773D01*
X107416137Y-63651749D01*
X107412117Y-63667593D01*
X107406645Y-63678191D01*
X107399666Y-63686267D01*
X107366734Y-63706112D01*
X107332354Y-63704548D01*
X107301176Y-63681906D01*
X107298886Y-63679100D01*
X107291429Y-63668492D01*
X107285747Y-63656081D01*
X107281601Y-63638850D01*
X107278750Y-63613784D01*
X107276954Y-63577867D01*
X107275972Y-63528083D01*
X107275564Y-63461417D01*
X107275489Y-63385589D01*
X107275489Y-63121822D01*
X107136127Y-63121822D01*
X107076322Y-63121418D01*
X107034918Y-63119840D01*
X107007748Y-63116547D01*
X106990646Y-63110992D01*
X106979443Y-63102631D01*
X106978083Y-63101178D01*
X106961725Y-63067939D01*
X106963172Y-63030362D01*
X106981978Y-62997645D01*
X106989250Y-62991298D01*
X106998627Y-62986266D01*
X107012609Y-62982396D01*
X107033696Y-62979537D01*
X107064389Y-62977535D01*
X107107189Y-62976239D01*
X107164595Y-62975498D01*
X107239110Y-62975158D01*
X107333233Y-62975068D01*
X107353260Y-62975067D01*
X107452065Y-62975163D01*
X107452065Y-62975163D01*
G37*
X107452065Y-62975163D02*
X107530772Y-62975542D01*
X107591863Y-62976333D01*
X107637817Y-62977670D01*
X107671114Y-62979683D01*
X107694236Y-62982506D01*
X107709662Y-62986269D01*
X107719871Y-62991105D01*
X107724813Y-62994822D01*
X107750457Y-63027358D01*
X107753559Y-63061138D01*
X107737711Y-63091826D01*
X107727348Y-63104089D01*
X107716196Y-63112450D01*
X107700035Y-63117657D01*
X107674642Y-63120457D01*
X107635798Y-63121596D01*
X107579280Y-63121821D01*
X107568180Y-63121822D01*
X107422244Y-63121822D01*
X107422244Y-63392756D01*
X107422148Y-63478154D01*
X107421711Y-63543864D01*
X107420712Y-63592774D01*
X107418928Y-63627773D01*
X107416137Y-63651749D01*
X107412117Y-63667593D01*
X107406645Y-63678191D01*
X107399666Y-63686267D01*
X107366734Y-63706112D01*
X107332354Y-63704548D01*
X107301176Y-63681906D01*
X107298886Y-63679100D01*
X107291429Y-63668492D01*
X107285747Y-63656081D01*
X107281601Y-63638850D01*
X107278750Y-63613784D01*
X107276954Y-63577867D01*
X107275972Y-63528083D01*
X107275564Y-63461417D01*
X107275489Y-63385589D01*
X107275489Y-63121822D01*
X107136127Y-63121822D01*
X107076322Y-63121418D01*
X107034918Y-63119840D01*
X107007748Y-63116547D01*
X106990646Y-63110992D01*
X106979443Y-63102631D01*
X106978083Y-63101178D01*
X106961725Y-63067939D01*
X106963172Y-63030362D01*
X106981978Y-62997645D01*
X106989250Y-62991298D01*
X106998627Y-62986266D01*
X107012609Y-62982396D01*
X107033696Y-62979537D01*
X107064389Y-62977535D01*
X107107189Y-62976239D01*
X107164595Y-62975498D01*
X107239110Y-62975158D01*
X107333233Y-62975068D01*
X107353260Y-62975067D01*
X107452065Y-62975163D01*
G36*
X106677614Y-62981877D02*
G01*
X106701327Y-62996647D01*
X106727978Y-63018227D01*
X106727978Y-63339773D01*
X106727893Y-63433830D01*
X106727529Y-63507932D01*
X106726724Y-63564704D01*
X106725313Y-63606768D01*
X106723133Y-63636748D01*
X106720021Y-63657267D01*
X106715814Y-63670949D01*
X106710348Y-63680416D01*
X106706472Y-63685082D01*
X106675034Y-63705575D01*
X106639233Y-63704739D01*
X106607873Y-63687264D01*
X106581222Y-63665684D01*
X106581222Y-63018227D01*
X106607873Y-62996647D01*
X106633594Y-62980949D01*
X106654600Y-62975067D01*
X106677614Y-62981877D01*
X106677614Y-62981877D01*
G37*
X106677614Y-62981877D02*
X106701327Y-62996647D01*
X106727978Y-63018227D01*
X106727978Y-63339773D01*
X106727893Y-63433830D01*
X106727529Y-63507932D01*
X106726724Y-63564704D01*
X106725313Y-63606768D01*
X106723133Y-63636748D01*
X106720021Y-63657267D01*
X106715814Y-63670949D01*
X106710348Y-63680416D01*
X106706472Y-63685082D01*
X106675034Y-63705575D01*
X106639233Y-63704739D01*
X106607873Y-63687264D01*
X106581222Y-63665684D01*
X106581222Y-63018227D01*
X106607873Y-62996647D01*
X106633594Y-62980949D01*
X106654600Y-62975067D01*
X106677614Y-62981877D01*
G36*
X106233665Y-62977034D02*
G01*
X106253255Y-62984035D01*
X106254010Y-62984377D01*
X106280613Y-63004678D01*
X106295270Y-63025561D01*
X106298138Y-63035352D01*
X106297996Y-63048361D01*
X106293961Y-63066895D01*
X106285146Y-63093257D01*
X106270669Y-63129752D01*
X106249645Y-63178687D01*
X106221188Y-63242365D01*
X106184415Y-63323093D01*
X106164175Y-63367216D01*
X106127625Y-63445985D01*
X106093315Y-63518423D01*
X106062552Y-63581880D01*
X106036648Y-63633708D01*
X106016910Y-63671259D01*
X106004650Y-63691884D01*
X106002224Y-63694733D01*
X105971183Y-63707302D01*
X105936121Y-63705619D01*
X105908000Y-63690332D01*
X105906854Y-63689089D01*
X105895668Y-63672154D01*
X105876904Y-63639170D01*
X105852875Y-63594380D01*
X105825897Y-63542032D01*
X105816201Y-63522742D01*
X105743014Y-63376150D01*
X105663240Y-63535393D01*
X105634767Y-63590415D01*
X105608350Y-63638132D01*
X105586148Y-63674893D01*
X105570319Y-63697044D01*
X105564954Y-63701741D01*
X105523257Y-63708102D01*
X105488849Y-63694733D01*
X105478728Y-63680446D01*
X105461214Y-63648692D01*
X105437735Y-63602597D01*
X105409720Y-63545285D01*
X105378599Y-63479880D01*
X105345799Y-63409507D01*
X105312750Y-63337291D01*
X105280881Y-63266355D01*
X105251619Y-63199825D01*
X105226395Y-63140826D01*
X105206636Y-63092481D01*
X105193772Y-63057915D01*
X105189231Y-63040253D01*
X105189277Y-63039613D01*
X105200326Y-63017388D01*
X105222410Y-62994753D01*
X105223710Y-62993768D01*
X105250853Y-62978425D01*
X105275958Y-62978574D01*
X105285368Y-62981466D01*
X105296834Y-62987718D01*
X105309010Y-63000014D01*
X105323357Y-63020908D01*
X105341336Y-63052949D01*
X105364407Y-63098688D01*
X105394030Y-63160677D01*
X105420745Y-63217898D01*
X105451480Y-63284226D01*
X105479021Y-63343874D01*
X105501938Y-63393725D01*
X105518798Y-63430664D01*
X105528173Y-63451573D01*
X105529540Y-63454845D01*
X105535689Y-63449497D01*
X105549822Y-63427109D01*
X105570057Y-63390946D01*
X105594515Y-63344277D01*
X105604248Y-63325022D01*
X105637217Y-63260004D01*
X105662643Y-63212654D01*
X105682612Y-63180219D01*
X105699210Y-63159946D01*
X105714524Y-63149082D01*
X105730640Y-63144875D01*
X105741143Y-63144400D01*
X105759670Y-63146042D01*
X105775904Y-63152831D01*
X105792035Y-63167566D01*
X105810251Y-63193044D01*
X105832739Y-63232061D01*
X105861689Y-63287414D01*
X105877662Y-63318903D01*
X105903570Y-63369087D01*
X105926167Y-63410704D01*
X105943458Y-63440242D01*
X105953450Y-63454189D01*
X105954809Y-63454770D01*
X105961261Y-63443793D01*
X105975708Y-63415290D01*
X105996703Y-63372244D01*
X106022797Y-63317638D01*
X106052546Y-63254454D01*
X106067180Y-63223071D01*
X106105250Y-63142078D01*
X106135905Y-63079756D01*
X106160737Y-63034071D01*
X106181337Y-63002989D01*
X106199298Y-62984478D01*
X106216210Y-62976504D01*
X106233665Y-62977034D01*
X106233665Y-62977034D01*
G37*
X106233665Y-62977034D02*
X106253255Y-62984035D01*
X106254010Y-62984377D01*
X106280613Y-63004678D01*
X106295270Y-63025561D01*
X106298138Y-63035352D01*
X106297996Y-63048361D01*
X106293961Y-63066895D01*
X106285146Y-63093257D01*
X106270669Y-63129752D01*
X106249645Y-63178687D01*
X106221188Y-63242365D01*
X106184415Y-63323093D01*
X106164175Y-63367216D01*
X106127625Y-63445985D01*
X106093315Y-63518423D01*
X106062552Y-63581880D01*
X106036648Y-63633708D01*
X106016910Y-63671259D01*
X106004650Y-63691884D01*
X106002224Y-63694733D01*
X105971183Y-63707302D01*
X105936121Y-63705619D01*
X105908000Y-63690332D01*
X105906854Y-63689089D01*
X105895668Y-63672154D01*
X105876904Y-63639170D01*
X105852875Y-63594380D01*
X105825897Y-63542032D01*
X105816201Y-63522742D01*
X105743014Y-63376150D01*
X105663240Y-63535393D01*
X105634767Y-63590415D01*
X105608350Y-63638132D01*
X105586148Y-63674893D01*
X105570319Y-63697044D01*
X105564954Y-63701741D01*
X105523257Y-63708102D01*
X105488849Y-63694733D01*
X105478728Y-63680446D01*
X105461214Y-63648692D01*
X105437735Y-63602597D01*
X105409720Y-63545285D01*
X105378599Y-63479880D01*
X105345799Y-63409507D01*
X105312750Y-63337291D01*
X105280881Y-63266355D01*
X105251619Y-63199825D01*
X105226395Y-63140826D01*
X105206636Y-63092481D01*
X105193772Y-63057915D01*
X105189231Y-63040253D01*
X105189277Y-63039613D01*
X105200326Y-63017388D01*
X105222410Y-62994753D01*
X105223710Y-62993768D01*
X105250853Y-62978425D01*
X105275958Y-62978574D01*
X105285368Y-62981466D01*
X105296834Y-62987718D01*
X105309010Y-63000014D01*
X105323357Y-63020908D01*
X105341336Y-63052949D01*
X105364407Y-63098688D01*
X105394030Y-63160677D01*
X105420745Y-63217898D01*
X105451480Y-63284226D01*
X105479021Y-63343874D01*
X105501938Y-63393725D01*
X105518798Y-63430664D01*
X105528173Y-63451573D01*
X105529540Y-63454845D01*
X105535689Y-63449497D01*
X105549822Y-63427109D01*
X105570057Y-63390946D01*
X105594515Y-63344277D01*
X105604248Y-63325022D01*
X105637217Y-63260004D01*
X105662643Y-63212654D01*
X105682612Y-63180219D01*
X105699210Y-63159946D01*
X105714524Y-63149082D01*
X105730640Y-63144875D01*
X105741143Y-63144400D01*
X105759670Y-63146042D01*
X105775904Y-63152831D01*
X105792035Y-63167566D01*
X105810251Y-63193044D01*
X105832739Y-63232061D01*
X105861689Y-63287414D01*
X105877662Y-63318903D01*
X105903570Y-63369087D01*
X105926167Y-63410704D01*
X105943458Y-63440242D01*
X105953450Y-63454189D01*
X105954809Y-63454770D01*
X105961261Y-63443793D01*
X105975708Y-63415290D01*
X105996703Y-63372244D01*
X106022797Y-63317638D01*
X106052546Y-63254454D01*
X106067180Y-63223071D01*
X106105250Y-63142078D01*
X106135905Y-63079756D01*
X106160737Y-63034071D01*
X106181337Y-63002989D01*
X106199298Y-62984478D01*
X106216210Y-62976504D01*
X106233665Y-62977034D01*
G36*
X103507309Y-62975275D02*
G01*
X103636288Y-62979636D01*
X103745991Y-62992861D01*
X103838226Y-63015741D01*
X103914802Y-63049070D01*
X103977527Y-63093638D01*
X104028212Y-63150236D01*
X104068663Y-63219658D01*
X104069459Y-63221351D01*
X104093601Y-63283483D01*
X104102203Y-63338509D01*
X104095231Y-63393887D01*
X104072654Y-63457073D01*
X104068372Y-63466689D01*
X104039172Y-63522966D01*
X104006356Y-63566451D01*
X103964002Y-63603417D01*
X103906190Y-63640135D01*
X103902831Y-63642052D01*
X103852504Y-63666227D01*
X103795621Y-63684282D01*
X103728527Y-63696839D01*
X103647565Y-63704522D01*
X103549082Y-63707953D01*
X103514286Y-63708251D01*
X103348594Y-63708845D01*
X103325197Y-63679100D01*
X103318257Y-63669319D01*
X103312842Y-63657897D01*
X103308765Y-63642095D01*
X103305837Y-63619175D01*
X103303867Y-63586396D01*
X103303225Y-63562089D01*
X103459844Y-63562089D01*
X103553726Y-63562089D01*
X103608664Y-63560483D01*
X103665060Y-63556255D01*
X103711345Y-63550292D01*
X103714139Y-63549790D01*
X103796348Y-63527736D01*
X103860114Y-63494600D01*
X103907452Y-63448847D01*
X103940382Y-63388939D01*
X103946108Y-63373061D01*
X103951721Y-63348333D01*
X103949291Y-63323902D01*
X103937467Y-63291400D01*
X103930340Y-63275434D01*
X103907000Y-63233006D01*
X103878880Y-63203240D01*
X103847940Y-63182511D01*
X103785966Y-63155537D01*
X103706651Y-63135998D01*
X103614253Y-63124746D01*
X103547333Y-63122270D01*
X103459844Y-63121822D01*
X103459844Y-63562089D01*
X103303225Y-63562089D01*
X103302668Y-63541021D01*
X103302050Y-63480311D01*
X103301825Y-63401526D01*
X103301800Y-63339920D01*
X103301800Y-63030485D01*
X103329509Y-63002776D01*
X103341806Y-62991544D01*
X103355103Y-62983853D01*
X103373672Y-62979040D01*
X103401786Y-62976446D01*
X103443717Y-62975410D01*
X103503737Y-62975270D01*
X103507309Y-62975275D01*
X103507309Y-62975275D01*
G37*
X103507309Y-62975275D02*
X103636288Y-62979636D01*
X103745991Y-62992861D01*
X103838226Y-63015741D01*
X103914802Y-63049070D01*
X103977527Y-63093638D01*
X104028212Y-63150236D01*
X104068663Y-63219658D01*
X104069459Y-63221351D01*
X104093601Y-63283483D01*
X104102203Y-63338509D01*
X104095231Y-63393887D01*
X104072654Y-63457073D01*
X104068372Y-63466689D01*
X104039172Y-63522966D01*
X104006356Y-63566451D01*
X103964002Y-63603417D01*
X103906190Y-63640135D01*
X103902831Y-63642052D01*
X103852504Y-63666227D01*
X103795621Y-63684282D01*
X103728527Y-63696839D01*
X103647565Y-63704522D01*
X103549082Y-63707953D01*
X103514286Y-63708251D01*
X103348594Y-63708845D01*
X103325197Y-63679100D01*
X103318257Y-63669319D01*
X103312842Y-63657897D01*
X103308765Y-63642095D01*
X103305837Y-63619175D01*
X103303867Y-63586396D01*
X103303225Y-63562089D01*
X103459844Y-63562089D01*
X103553726Y-63562089D01*
X103608664Y-63560483D01*
X103665060Y-63556255D01*
X103711345Y-63550292D01*
X103714139Y-63549790D01*
X103796348Y-63527736D01*
X103860114Y-63494600D01*
X103907452Y-63448847D01*
X103940382Y-63388939D01*
X103946108Y-63373061D01*
X103951721Y-63348333D01*
X103949291Y-63323902D01*
X103937467Y-63291400D01*
X103930340Y-63275434D01*
X103907000Y-63233006D01*
X103878880Y-63203240D01*
X103847940Y-63182511D01*
X103785966Y-63155537D01*
X103706651Y-63135998D01*
X103614253Y-63124746D01*
X103547333Y-63122270D01*
X103459844Y-63121822D01*
X103459844Y-63562089D01*
X103303225Y-63562089D01*
X103302668Y-63541021D01*
X103302050Y-63480311D01*
X103301825Y-63401526D01*
X103301800Y-63339920D01*
X103301800Y-63030485D01*
X103329509Y-63002776D01*
X103341806Y-62991544D01*
X103355103Y-62983853D01*
X103373672Y-62979040D01*
X103401786Y-62976446D01*
X103443717Y-62975410D01*
X103503737Y-62975270D01*
X103507309Y-62975275D01*
G36*
X102719343Y-62975260D02*
G01*
X102795701Y-62976174D01*
X102854217Y-62978311D01*
X102897255Y-62982175D01*
X102927183Y-62988267D01*
X102946368Y-62997090D01*
X102957176Y-63009146D01*
X102961973Y-63024939D01*
X102963127Y-63044970D01*
X102963133Y-63047335D01*
X102962131Y-63069992D01*
X102957396Y-63087503D01*
X102946333Y-63100574D01*
X102926348Y-63109913D01*
X102894846Y-63116227D01*
X102849232Y-63120222D01*
X102786913Y-63122606D01*
X102705293Y-63124086D01*
X102680277Y-63124414D01*
X102438200Y-63127467D01*
X102434814Y-63192378D01*
X102431429Y-63257289D01*
X102599576Y-63257289D01*
X102665266Y-63257531D01*
X102712172Y-63258556D01*
X102744083Y-63260811D01*
X102764791Y-63264742D01*
X102778084Y-63270798D01*
X102787755Y-63279424D01*
X102787817Y-63279493D01*
X102805356Y-63313112D01*
X102804722Y-63349448D01*
X102786314Y-63380423D01*
X102782671Y-63383607D01*
X102769741Y-63391812D01*
X102752024Y-63397521D01*
X102725570Y-63401162D01*
X102686432Y-63403167D01*
X102630662Y-63403964D01*
X102594994Y-63404045D01*
X102432555Y-63404045D01*
X102432555Y-63562089D01*
X102679161Y-63562089D01*
X102760580Y-63562231D01*
X102822410Y-63562814D01*
X102867637Y-63564068D01*
X102899248Y-63566227D01*
X102920231Y-63569523D01*
X102933573Y-63574189D01*
X102942261Y-63580457D01*
X102944450Y-63582733D01*
X102960614Y-63614280D01*
X102961797Y-63650168D01*
X102948536Y-63681285D01*
X102938043Y-63691271D01*
X102927129Y-63696769D01*
X102910217Y-63701022D01*
X102884633Y-63704180D01*
X102847701Y-63706392D01*
X102796746Y-63707806D01*
X102729094Y-63708572D01*
X102642069Y-63708838D01*
X102622394Y-63708845D01*
X102533911Y-63708787D01*
X102465227Y-63708467D01*
X102413564Y-63707667D01*
X102376145Y-63706167D01*
X102350190Y-63703749D01*
X102332922Y-63700194D01*
X102321562Y-63695282D01*
X102313332Y-63688795D01*
X102308817Y-63684138D01*
X102302021Y-63675889D01*
X102296712Y-63665669D01*
X102292706Y-63650800D01*
X102289821Y-63628602D01*
X102287874Y-63596393D01*
X102286681Y-63551496D01*
X102286061Y-63491228D01*
X102285829Y-63412911D01*
X102285800Y-63346994D01*
X102285871Y-63254628D01*
X102286208Y-63182117D01*
X102286998Y-63126737D01*
X102288426Y-63085765D01*
X102290679Y-63056478D01*
X102293943Y-63036153D01*
X102298404Y-63022066D01*
X102304248Y-63011495D01*
X102309197Y-63004811D01*
X102332594Y-62975067D01*
X102622774Y-62975067D01*
X102719343Y-62975260D01*
X102719343Y-62975260D01*
G37*
X102719343Y-62975260D02*
X102795701Y-62976174D01*
X102854217Y-62978311D01*
X102897255Y-62982175D01*
X102927183Y-62988267D01*
X102946368Y-62997090D01*
X102957176Y-63009146D01*
X102961973Y-63024939D01*
X102963127Y-63044970D01*
X102963133Y-63047335D01*
X102962131Y-63069992D01*
X102957396Y-63087503D01*
X102946333Y-63100574D01*
X102926348Y-63109913D01*
X102894846Y-63116227D01*
X102849232Y-63120222D01*
X102786913Y-63122606D01*
X102705293Y-63124086D01*
X102680277Y-63124414D01*
X102438200Y-63127467D01*
X102434814Y-63192378D01*
X102431429Y-63257289D01*
X102599576Y-63257289D01*
X102665266Y-63257531D01*
X102712172Y-63258556D01*
X102744083Y-63260811D01*
X102764791Y-63264742D01*
X102778084Y-63270798D01*
X102787755Y-63279424D01*
X102787817Y-63279493D01*
X102805356Y-63313112D01*
X102804722Y-63349448D01*
X102786314Y-63380423D01*
X102782671Y-63383607D01*
X102769741Y-63391812D01*
X102752024Y-63397521D01*
X102725570Y-63401162D01*
X102686432Y-63403167D01*
X102630662Y-63403964D01*
X102594994Y-63404045D01*
X102432555Y-63404045D01*
X102432555Y-63562089D01*
X102679161Y-63562089D01*
X102760580Y-63562231D01*
X102822410Y-63562814D01*
X102867637Y-63564068D01*
X102899248Y-63566227D01*
X102920231Y-63569523D01*
X102933573Y-63574189D01*
X102942261Y-63580457D01*
X102944450Y-63582733D01*
X102960614Y-63614280D01*
X102961797Y-63650168D01*
X102948536Y-63681285D01*
X102938043Y-63691271D01*
X102927129Y-63696769D01*
X102910217Y-63701022D01*
X102884633Y-63704180D01*
X102847701Y-63706392D01*
X102796746Y-63707806D01*
X102729094Y-63708572D01*
X102642069Y-63708838D01*
X102622394Y-63708845D01*
X102533911Y-63708787D01*
X102465227Y-63708467D01*
X102413564Y-63707667D01*
X102376145Y-63706167D01*
X102350190Y-63703749D01*
X102332922Y-63700194D01*
X102321562Y-63695282D01*
X102313332Y-63688795D01*
X102308817Y-63684138D01*
X102302021Y-63675889D01*
X102296712Y-63665669D01*
X102292706Y-63650800D01*
X102289821Y-63628602D01*
X102287874Y-63596393D01*
X102286681Y-63551496D01*
X102286061Y-63491228D01*
X102285829Y-63412911D01*
X102285800Y-63346994D01*
X102285871Y-63254628D01*
X102286208Y-63182117D01*
X102286998Y-63126737D01*
X102288426Y-63085765D01*
X102290679Y-63056478D01*
X102293943Y-63036153D01*
X102298404Y-63022066D01*
X102304248Y-63011495D01*
X102309197Y-63004811D01*
X102332594Y-62975067D01*
X102622774Y-62975067D01*
X102719343Y-62975260D01*
G36*
X101188886Y-62979448D02*
G01*
X101212452Y-62993273D01*
X101243265Y-63015881D01*
X101282922Y-63048338D01*
X101333020Y-63091708D01*
X101395157Y-63147058D01*
X101470928Y-63215451D01*
X101557666Y-63294084D01*
X101738289Y-63457878D01*
X101743933Y-63238029D01*
X101745971Y-63162351D01*
X101747937Y-63105994D01*
X101750266Y-63065706D01*
X101753394Y-63038235D01*
X101757755Y-63020329D01*
X101763784Y-63008737D01*
X101771916Y-63000208D01*
X101776228Y-62996623D01*
X101810759Y-62977670D01*
X101843617Y-62980441D01*
X101869682Y-62996633D01*
X101896333Y-63018199D01*
X101899648Y-63333151D01*
X101900565Y-63425779D01*
X101901032Y-63498544D01*
X101900887Y-63554161D01*
X101899968Y-63595342D01*
X101898113Y-63624803D01*
X101895161Y-63645255D01*
X101890950Y-63659413D01*
X101885318Y-63669991D01*
X101879073Y-63678474D01*
X101865561Y-63694207D01*
X101852117Y-63704636D01*
X101836876Y-63708639D01*
X101817974Y-63705094D01*
X101793545Y-63692879D01*
X101761727Y-63670871D01*
X101720652Y-63637949D01*
X101668458Y-63592991D01*
X101603278Y-63534875D01*
X101529444Y-63468099D01*
X101264155Y-63227458D01*
X101258511Y-63446589D01*
X101256469Y-63522128D01*
X101254498Y-63578354D01*
X101252161Y-63618524D01*
X101249019Y-63645896D01*
X101244636Y-63663728D01*
X101238576Y-63675279D01*
X101230400Y-63683807D01*
X101226216Y-63687282D01*
X101189235Y-63706372D01*
X101154292Y-63703493D01*
X101123864Y-63679100D01*
X101116903Y-63669286D01*
X101111477Y-63657826D01*
X101107397Y-63641968D01*
X101104471Y-63618963D01*
X101102508Y-63586062D01*
X101101317Y-63540516D01*
X101100708Y-63479573D01*
X101100489Y-63400486D01*
X101100466Y-63341956D01*
X101100540Y-63250407D01*
X101100887Y-63178687D01*
X101101699Y-63124045D01*
X101103167Y-63083732D01*
X101105481Y-63054998D01*
X101108833Y-63035093D01*
X101113412Y-63021268D01*
X101119411Y-63010772D01*
X101123864Y-63004811D01*
X101135150Y-62990691D01*
X101145699Y-62980029D01*
X101157107Y-62973892D01*
X101170970Y-62973343D01*
X101188886Y-62979448D01*
X101188886Y-62979448D01*
G37*
X101188886Y-62979448D02*
X101212452Y-62993273D01*
X101243265Y-63015881D01*
X101282922Y-63048338D01*
X101333020Y-63091708D01*
X101395157Y-63147058D01*
X101470928Y-63215451D01*
X101557666Y-63294084D01*
X101738289Y-63457878D01*
X101743933Y-63238029D01*
X101745971Y-63162351D01*
X101747937Y-63105994D01*
X101750266Y-63065706D01*
X101753394Y-63038235D01*
X101757755Y-63020329D01*
X101763784Y-63008737D01*
X101771916Y-63000208D01*
X101776228Y-62996623D01*
X101810759Y-62977670D01*
X101843617Y-62980441D01*
X101869682Y-62996633D01*
X101896333Y-63018199D01*
X101899648Y-63333151D01*
X101900565Y-63425779D01*
X101901032Y-63498544D01*
X101900887Y-63554161D01*
X101899968Y-63595342D01*
X101898113Y-63624803D01*
X101895161Y-63645255D01*
X101890950Y-63659413D01*
X101885318Y-63669991D01*
X101879073Y-63678474D01*
X101865561Y-63694207D01*
X101852117Y-63704636D01*
X101836876Y-63708639D01*
X101817974Y-63705094D01*
X101793545Y-63692879D01*
X101761727Y-63670871D01*
X101720652Y-63637949D01*
X101668458Y-63592991D01*
X101603278Y-63534875D01*
X101529444Y-63468099D01*
X101264155Y-63227458D01*
X101258511Y-63446589D01*
X101256469Y-63522128D01*
X101254498Y-63578354D01*
X101252161Y-63618524D01*
X101249019Y-63645896D01*
X101244636Y-63663728D01*
X101238576Y-63675279D01*
X101230400Y-63683807D01*
X101226216Y-63687282D01*
X101189235Y-63706372D01*
X101154292Y-63703493D01*
X101123864Y-63679100D01*
X101116903Y-63669286D01*
X101111477Y-63657826D01*
X101107397Y-63641968D01*
X101104471Y-63618963D01*
X101102508Y-63586062D01*
X101101317Y-63540516D01*
X101100708Y-63479573D01*
X101100489Y-63400486D01*
X101100466Y-63341956D01*
X101100540Y-63250407D01*
X101100887Y-63178687D01*
X101101699Y-63124045D01*
X101103167Y-63083732D01*
X101105481Y-63054998D01*
X101108833Y-63035093D01*
X101113412Y-63021268D01*
X101119411Y-63010772D01*
X101123864Y-63004811D01*
X101135150Y-62990691D01*
X101145699Y-62980029D01*
X101157107Y-62973892D01*
X101170970Y-62973343D01*
X101188886Y-62979448D01*
G36*
X100538919Y-62980599D02*
G01*
X100607435Y-62992095D01*
X100660057Y-63009967D01*
X100694292Y-63033499D01*
X100703621Y-63046924D01*
X100713107Y-63078148D01*
X100706723Y-63106395D01*
X100686570Y-63133182D01*
X100655255Y-63145713D01*
X100609817Y-63144696D01*
X100574674Y-63137906D01*
X100496581Y-63124971D01*
X100416774Y-63123742D01*
X100327445Y-63134241D01*
X100302771Y-63138690D01*
X100219709Y-63162108D01*
X100154727Y-63196945D01*
X100108539Y-63242604D01*
X100081855Y-63298494D01*
X100076337Y-63327388D01*
X100079949Y-63386012D01*
X100103271Y-63437879D01*
X100144176Y-63481978D01*
X100200541Y-63517299D01*
X100270240Y-63542829D01*
X100351148Y-63557559D01*
X100441140Y-63560478D01*
X100538090Y-63550575D01*
X100543564Y-63549641D01*
X100582125Y-63542459D01*
X100603506Y-63535521D01*
X100612773Y-63525227D01*
X100614994Y-63507976D01*
X100615044Y-63498841D01*
X100615044Y-63460489D01*
X100546569Y-63460489D01*
X100486100Y-63456347D01*
X100444835Y-63443147D01*
X100420825Y-63419730D01*
X100412123Y-63384936D01*
X100412017Y-63380394D01*
X100417108Y-63350654D01*
X100434567Y-63329419D01*
X100467061Y-63315366D01*
X100517257Y-63307173D01*
X100565877Y-63304161D01*
X100636544Y-63302433D01*
X100687802Y-63305070D01*
X100722761Y-63314800D01*
X100744530Y-63334353D01*
X100756220Y-63366456D01*
X100760940Y-63413838D01*
X100761800Y-63476071D01*
X100760391Y-63545535D01*
X100756152Y-63592786D01*
X100749064Y-63618012D01*
X100747689Y-63619988D01*
X100708772Y-63651508D01*
X100651714Y-63676470D01*
X100580131Y-63694340D01*
X100497642Y-63704586D01*
X100407861Y-63706673D01*
X100314408Y-63700068D01*
X100259444Y-63691956D01*
X100173234Y-63667554D01*
X100093108Y-63627662D01*
X100026023Y-63575887D01*
X100015827Y-63565539D01*
X99982698Y-63522035D01*
X99952806Y-63468118D01*
X99929643Y-63411592D01*
X99916702Y-63360259D01*
X99915142Y-63340544D01*
X99921782Y-63299419D01*
X99939432Y-63248252D01*
X99964703Y-63194394D01*
X99994211Y-63145195D01*
X100020281Y-63112334D01*
X100081235Y-63063452D01*
X100160031Y-63024545D01*
X100253843Y-62996494D01*
X100359850Y-62980179D01*
X100457000Y-62976192D01*
X100538919Y-62980599D01*
X100538919Y-62980599D01*
G37*
X100538919Y-62980599D02*
X100607435Y-62992095D01*
X100660057Y-63009967D01*
X100694292Y-63033499D01*
X100703621Y-63046924D01*
X100713107Y-63078148D01*
X100706723Y-63106395D01*
X100686570Y-63133182D01*
X100655255Y-63145713D01*
X100609817Y-63144696D01*
X100574674Y-63137906D01*
X100496581Y-63124971D01*
X100416774Y-63123742D01*
X100327445Y-63134241D01*
X100302771Y-63138690D01*
X100219709Y-63162108D01*
X100154727Y-63196945D01*
X100108539Y-63242604D01*
X100081855Y-63298494D01*
X100076337Y-63327388D01*
X100079949Y-63386012D01*
X100103271Y-63437879D01*
X100144176Y-63481978D01*
X100200541Y-63517299D01*
X100270240Y-63542829D01*
X100351148Y-63557559D01*
X100441140Y-63560478D01*
X100538090Y-63550575D01*
X100543564Y-63549641D01*
X100582125Y-63542459D01*
X100603506Y-63535521D01*
X100612773Y-63525227D01*
X100614994Y-63507976D01*
X100615044Y-63498841D01*
X100615044Y-63460489D01*
X100546569Y-63460489D01*
X100486100Y-63456347D01*
X100444835Y-63443147D01*
X100420825Y-63419730D01*
X100412123Y-63384936D01*
X100412017Y-63380394D01*
X100417108Y-63350654D01*
X100434567Y-63329419D01*
X100467061Y-63315366D01*
X100517257Y-63307173D01*
X100565877Y-63304161D01*
X100636544Y-63302433D01*
X100687802Y-63305070D01*
X100722761Y-63314800D01*
X100744530Y-63334353D01*
X100756220Y-63366456D01*
X100760940Y-63413838D01*
X100761800Y-63476071D01*
X100760391Y-63545535D01*
X100756152Y-63592786D01*
X100749064Y-63618012D01*
X100747689Y-63619988D01*
X100708772Y-63651508D01*
X100651714Y-63676470D01*
X100580131Y-63694340D01*
X100497642Y-63704586D01*
X100407861Y-63706673D01*
X100314408Y-63700068D01*
X100259444Y-63691956D01*
X100173234Y-63667554D01*
X100093108Y-63627662D01*
X100026023Y-63575887D01*
X100015827Y-63565539D01*
X99982698Y-63522035D01*
X99952806Y-63468118D01*
X99929643Y-63411592D01*
X99916702Y-63360259D01*
X99915142Y-63340544D01*
X99921782Y-63299419D01*
X99939432Y-63248252D01*
X99964703Y-63194394D01*
X99994211Y-63145195D01*
X100020281Y-63112334D01*
X100081235Y-63063452D01*
X100160031Y-63024545D01*
X100253843Y-62996494D01*
X100359850Y-62980179D01*
X100457000Y-62976192D01*
X100538919Y-62980599D01*
G36*
X99565178Y-62997645D02*
G01*
X99571758Y-63005218D01*
X99576921Y-63014987D01*
X99580836Y-63029571D01*
X99583676Y-63051585D01*
X99585613Y-63083648D01*
X99586817Y-63128375D01*
X99587461Y-63188385D01*
X99587716Y-63266294D01*
X99587755Y-63341956D01*
X99587686Y-63435802D01*
X99587362Y-63509689D01*
X99586614Y-63566232D01*
X99585268Y-63608049D01*
X99583154Y-63637757D01*
X99580100Y-63657973D01*
X99575934Y-63671314D01*
X99570484Y-63680398D01*
X99565178Y-63686267D01*
X99532174Y-63705947D01*
X99497009Y-63704181D01*
X99465545Y-63682717D01*
X99458316Y-63674337D01*
X99452666Y-63664614D01*
X99448401Y-63650861D01*
X99445327Y-63630389D01*
X99443248Y-63600512D01*
X99441970Y-63558541D01*
X99441299Y-63501789D01*
X99441041Y-63427567D01*
X99441000Y-63343537D01*
X99441000Y-63030485D01*
X99468709Y-63002776D01*
X99502863Y-62979463D01*
X99535994Y-62978623D01*
X99565178Y-62997645D01*
X99565178Y-62997645D01*
G37*
X99565178Y-62997645D02*
X99571758Y-63005218D01*
X99576921Y-63014987D01*
X99580836Y-63029571D01*
X99583676Y-63051585D01*
X99585613Y-63083648D01*
X99586817Y-63128375D01*
X99587461Y-63188385D01*
X99587716Y-63266294D01*
X99587755Y-63341956D01*
X99587686Y-63435802D01*
X99587362Y-63509689D01*
X99586614Y-63566232D01*
X99585268Y-63608049D01*
X99583154Y-63637757D01*
X99580100Y-63657973D01*
X99575934Y-63671314D01*
X99570484Y-63680398D01*
X99565178Y-63686267D01*
X99532174Y-63705947D01*
X99497009Y-63704181D01*
X99465545Y-63682717D01*
X99458316Y-63674337D01*
X99452666Y-63664614D01*
X99448401Y-63650861D01*
X99445327Y-63630389D01*
X99443248Y-63600512D01*
X99441970Y-63558541D01*
X99441299Y-63501789D01*
X99441041Y-63427567D01*
X99441000Y-63343537D01*
X99441000Y-63030485D01*
X99468709Y-63002776D01*
X99502863Y-62979463D01*
X99535994Y-62978623D01*
X99565178Y-62997645D01*
G36*
X98797297Y-62976351D02*
G01*
X98872112Y-62981581D01*
X98941694Y-62989750D01*
X99001998Y-63000550D01*
X99048980Y-63013673D01*
X99078594Y-63028813D01*
X99083140Y-63033269D01*
X99098946Y-63067850D01*
X99094153Y-63103351D01*
X99069636Y-63133725D01*
X99068466Y-63134596D01*
X99054046Y-63143954D01*
X99038992Y-63148876D01*
X99017995Y-63149473D01*
X98985743Y-63145861D01*
X98936927Y-63138154D01*
X98933000Y-63137505D01*
X98860261Y-63128569D01*
X98781783Y-63124161D01*
X98703073Y-63124119D01*
X98629639Y-63128279D01*
X98566989Y-63136479D01*
X98520630Y-63148557D01*
X98517584Y-63149771D01*
X98483952Y-63168615D01*
X98472136Y-63187685D01*
X98481386Y-63206439D01*
X98510953Y-63224337D01*
X98560089Y-63240837D01*
X98628043Y-63255396D01*
X98673355Y-63262406D01*
X98767544Y-63275889D01*
X98842456Y-63288214D01*
X98901283Y-63300449D01*
X98947215Y-63313661D01*
X98983445Y-63328917D01*
X99013162Y-63347285D01*
X99039558Y-63369831D01*
X99060770Y-63391971D01*
X99085935Y-63422819D01*
X99098319Y-63449345D01*
X99102192Y-63482026D01*
X99102333Y-63493995D01*
X99099424Y-63533712D01*
X99087798Y-63563259D01*
X99067677Y-63589486D01*
X99026784Y-63629576D01*
X98981183Y-63660149D01*
X98927487Y-63682203D01*
X98862308Y-63696735D01*
X98782256Y-63704741D01*
X98683943Y-63707218D01*
X98667711Y-63707177D01*
X98602151Y-63705818D01*
X98537134Y-63702730D01*
X98479748Y-63698356D01*
X98437078Y-63693140D01*
X98433628Y-63692541D01*
X98391204Y-63682491D01*
X98355220Y-63669796D01*
X98334850Y-63658190D01*
X98315893Y-63627572D01*
X98314573Y-63591918D01*
X98330915Y-63560144D01*
X98334571Y-63556551D01*
X98349685Y-63545876D01*
X98368585Y-63541276D01*
X98397838Y-63542059D01*
X98433349Y-63546127D01*
X98473030Y-63549762D01*
X98528655Y-63552828D01*
X98593594Y-63555053D01*
X98661215Y-63556164D01*
X98679000Y-63556237D01*
X98746872Y-63555964D01*
X98796546Y-63554646D01*
X98832390Y-63551827D01*
X98858776Y-63547050D01*
X98880074Y-63539857D01*
X98892874Y-63533867D01*
X98921000Y-63517233D01*
X98938932Y-63502168D01*
X98941553Y-63497897D01*
X98936024Y-63480263D01*
X98909740Y-63463192D01*
X98864522Y-63447458D01*
X98802192Y-63433838D01*
X98783829Y-63430804D01*
X98687910Y-63415738D01*
X98611359Y-63403146D01*
X98551220Y-63392111D01*
X98504540Y-63381720D01*
X98468363Y-63371056D01*
X98439735Y-63359205D01*
X98415702Y-63345251D01*
X98393308Y-63328281D01*
X98369598Y-63307378D01*
X98361620Y-63300049D01*
X98333647Y-63272699D01*
X98318840Y-63251029D01*
X98313048Y-63226232D01*
X98312111Y-63194983D01*
X98322425Y-63133705D01*
X98353248Y-63081640D01*
X98404405Y-63038958D01*
X98475717Y-63005825D01*
X98526600Y-62990964D01*
X98581900Y-62981366D01*
X98648147Y-62975936D01*
X98721294Y-62974367D01*
X98797297Y-62976351D01*
X98797297Y-62976351D01*
G37*
X98797297Y-62976351D02*
X98872112Y-62981581D01*
X98941694Y-62989750D01*
X99001998Y-63000550D01*
X99048980Y-63013673D01*
X99078594Y-63028813D01*
X99083140Y-63033269D01*
X99098946Y-63067850D01*
X99094153Y-63103351D01*
X99069636Y-63133725D01*
X99068466Y-63134596D01*
X99054046Y-63143954D01*
X99038992Y-63148876D01*
X99017995Y-63149473D01*
X98985743Y-63145861D01*
X98936927Y-63138154D01*
X98933000Y-63137505D01*
X98860261Y-63128569D01*
X98781783Y-63124161D01*
X98703073Y-63124119D01*
X98629639Y-63128279D01*
X98566989Y-63136479D01*
X98520630Y-63148557D01*
X98517584Y-63149771D01*
X98483952Y-63168615D01*
X98472136Y-63187685D01*
X98481386Y-63206439D01*
X98510953Y-63224337D01*
X98560089Y-63240837D01*
X98628043Y-63255396D01*
X98673355Y-63262406D01*
X98767544Y-63275889D01*
X98842456Y-63288214D01*
X98901283Y-63300449D01*
X98947215Y-63313661D01*
X98983445Y-63328917D01*
X99013162Y-63347285D01*
X99039558Y-63369831D01*
X99060770Y-63391971D01*
X99085935Y-63422819D01*
X99098319Y-63449345D01*
X99102192Y-63482026D01*
X99102333Y-63493995D01*
X99099424Y-63533712D01*
X99087798Y-63563259D01*
X99067677Y-63589486D01*
X99026784Y-63629576D01*
X98981183Y-63660149D01*
X98927487Y-63682203D01*
X98862308Y-63696735D01*
X98782256Y-63704741D01*
X98683943Y-63707218D01*
X98667711Y-63707177D01*
X98602151Y-63705818D01*
X98537134Y-63702730D01*
X98479748Y-63698356D01*
X98437078Y-63693140D01*
X98433628Y-63692541D01*
X98391204Y-63682491D01*
X98355220Y-63669796D01*
X98334850Y-63658190D01*
X98315893Y-63627572D01*
X98314573Y-63591918D01*
X98330915Y-63560144D01*
X98334571Y-63556551D01*
X98349685Y-63545876D01*
X98368585Y-63541276D01*
X98397838Y-63542059D01*
X98433349Y-63546127D01*
X98473030Y-63549762D01*
X98528655Y-63552828D01*
X98593594Y-63555053D01*
X98661215Y-63556164D01*
X98679000Y-63556237D01*
X98746872Y-63555964D01*
X98796546Y-63554646D01*
X98832390Y-63551827D01*
X98858776Y-63547050D01*
X98880074Y-63539857D01*
X98892874Y-63533867D01*
X98921000Y-63517233D01*
X98938932Y-63502168D01*
X98941553Y-63497897D01*
X98936024Y-63480263D01*
X98909740Y-63463192D01*
X98864522Y-63447458D01*
X98802192Y-63433838D01*
X98783829Y-63430804D01*
X98687910Y-63415738D01*
X98611359Y-63403146D01*
X98551220Y-63392111D01*
X98504540Y-63381720D01*
X98468363Y-63371056D01*
X98439735Y-63359205D01*
X98415702Y-63345251D01*
X98393308Y-63328281D01*
X98369598Y-63307378D01*
X98361620Y-63300049D01*
X98333647Y-63272699D01*
X98318840Y-63251029D01*
X98313048Y-63226232D01*
X98312111Y-63194983D01*
X98322425Y-63133705D01*
X98353248Y-63081640D01*
X98404405Y-63038958D01*
X98475717Y-63005825D01*
X98526600Y-62990964D01*
X98581900Y-62981366D01*
X98648147Y-62975936D01*
X98721294Y-62974367D01*
X98797297Y-62976351D01*
G36*
X97776206Y-62975146D02*
G01*
X97845614Y-62975518D01*
X97898003Y-62976385D01*
X97936153Y-62977946D01*
X97962841Y-62980403D01*
X97980847Y-62983957D01*
X97992951Y-62988810D01*
X98001931Y-62995161D01*
X98005182Y-62998084D01*
X98024957Y-63029142D01*
X98028518Y-63064828D01*
X98015509Y-63096510D01*
X98009494Y-63102913D01*
X97999765Y-63109121D01*
X97984099Y-63113910D01*
X97959592Y-63117514D01*
X97923339Y-63120164D01*
X97872435Y-63122095D01*
X97803974Y-63123539D01*
X97741383Y-63124418D01*
X97493666Y-63127467D01*
X97490281Y-63192378D01*
X97486895Y-63257289D01*
X97655042Y-63257289D01*
X97728041Y-63257919D01*
X97781483Y-63260553D01*
X97818372Y-63266309D01*
X97841712Y-63276304D01*
X97854506Y-63291656D01*
X97859758Y-63313482D01*
X97860555Y-63333738D01*
X97858077Y-63358592D01*
X97848723Y-63376906D01*
X97829617Y-63389637D01*
X97797882Y-63397741D01*
X97750641Y-63402176D01*
X97685017Y-63403899D01*
X97649199Y-63404045D01*
X97488022Y-63404045D01*
X97488022Y-63562089D01*
X97736378Y-63562089D01*
X97817787Y-63562202D01*
X97879658Y-63562712D01*
X97925032Y-63563870D01*
X97956946Y-63565930D01*
X97978441Y-63569146D01*
X97992557Y-63573772D01*
X98002332Y-63580059D01*
X98007311Y-63584667D01*
X98024390Y-63611560D01*
X98029889Y-63635467D01*
X98022037Y-63664667D01*
X98007311Y-63686267D01*
X97999454Y-63693066D01*
X97989312Y-63698346D01*
X97974156Y-63702298D01*
X97951259Y-63705113D01*
X97917891Y-63706982D01*
X97871325Y-63708098D01*
X97808833Y-63708651D01*
X97727686Y-63708833D01*
X97685578Y-63708845D01*
X97595402Y-63708765D01*
X97525076Y-63708398D01*
X97471871Y-63707552D01*
X97433060Y-63706036D01*
X97405913Y-63703659D01*
X97387702Y-63700229D01*
X97375700Y-63695554D01*
X97367178Y-63689444D01*
X97363844Y-63686267D01*
X97357245Y-63678670D01*
X97352073Y-63668870D01*
X97348154Y-63654239D01*
X97345316Y-63632152D01*
X97343385Y-63599982D01*
X97342188Y-63555103D01*
X97341552Y-63494889D01*
X97341303Y-63416713D01*
X97341266Y-63343923D01*
X97341300Y-63250707D01*
X97341535Y-63177431D01*
X97342170Y-63121458D01*
X97343406Y-63080151D01*
X97345444Y-63050872D01*
X97348483Y-63030984D01*
X97352723Y-63017850D01*
X97358365Y-63008832D01*
X97365609Y-63001293D01*
X97367394Y-62999612D01*
X97376055Y-62992172D01*
X97386118Y-62986409D01*
X97400375Y-62982112D01*
X97421617Y-62979064D01*
X97452636Y-62977051D01*
X97496223Y-62975860D01*
X97555169Y-62975275D01*
X97632266Y-62975083D01*
X97686999Y-62975067D01*
X97776206Y-62975146D01*
X97776206Y-62975146D01*
G37*
X97776206Y-62975146D02*
X97845614Y-62975518D01*
X97898003Y-62976385D01*
X97936153Y-62977946D01*
X97962841Y-62980403D01*
X97980847Y-62983957D01*
X97992951Y-62988810D01*
X98001931Y-62995161D01*
X98005182Y-62998084D01*
X98024957Y-63029142D01*
X98028518Y-63064828D01*
X98015509Y-63096510D01*
X98009494Y-63102913D01*
X97999765Y-63109121D01*
X97984099Y-63113910D01*
X97959592Y-63117514D01*
X97923339Y-63120164D01*
X97872435Y-63122095D01*
X97803974Y-63123539D01*
X97741383Y-63124418D01*
X97493666Y-63127467D01*
X97490281Y-63192378D01*
X97486895Y-63257289D01*
X97655042Y-63257289D01*
X97728041Y-63257919D01*
X97781483Y-63260553D01*
X97818372Y-63266309D01*
X97841712Y-63276304D01*
X97854506Y-63291656D01*
X97859758Y-63313482D01*
X97860555Y-63333738D01*
X97858077Y-63358592D01*
X97848723Y-63376906D01*
X97829617Y-63389637D01*
X97797882Y-63397741D01*
X97750641Y-63402176D01*
X97685017Y-63403899D01*
X97649199Y-63404045D01*
X97488022Y-63404045D01*
X97488022Y-63562089D01*
X97736378Y-63562089D01*
X97817787Y-63562202D01*
X97879658Y-63562712D01*
X97925032Y-63563870D01*
X97956946Y-63565930D01*
X97978441Y-63569146D01*
X97992557Y-63573772D01*
X98002332Y-63580059D01*
X98007311Y-63584667D01*
X98024390Y-63611560D01*
X98029889Y-63635467D01*
X98022037Y-63664667D01*
X98007311Y-63686267D01*
X97999454Y-63693066D01*
X97989312Y-63698346D01*
X97974156Y-63702298D01*
X97951259Y-63705113D01*
X97917891Y-63706982D01*
X97871325Y-63708098D01*
X97808833Y-63708651D01*
X97727686Y-63708833D01*
X97685578Y-63708845D01*
X97595402Y-63708765D01*
X97525076Y-63708398D01*
X97471871Y-63707552D01*
X97433060Y-63706036D01*
X97405913Y-63703659D01*
X97387702Y-63700229D01*
X97375700Y-63695554D01*
X97367178Y-63689444D01*
X97363844Y-63686267D01*
X97357245Y-63678670D01*
X97352073Y-63668870D01*
X97348154Y-63654239D01*
X97345316Y-63632152D01*
X97343385Y-63599982D01*
X97342188Y-63555103D01*
X97341552Y-63494889D01*
X97341303Y-63416713D01*
X97341266Y-63343923D01*
X97341300Y-63250707D01*
X97341535Y-63177431D01*
X97342170Y-63121458D01*
X97343406Y-63080151D01*
X97345444Y-63050872D01*
X97348483Y-63030984D01*
X97352723Y-63017850D01*
X97358365Y-63008832D01*
X97365609Y-63001293D01*
X97367394Y-62999612D01*
X97376055Y-62992172D01*
X97386118Y-62986409D01*
X97400375Y-62982112D01*
X97421617Y-62979064D01*
X97452636Y-62977051D01*
X97496223Y-62975860D01*
X97555169Y-62975275D01*
X97632266Y-62975083D01*
X97686999Y-62975067D01*
X97776206Y-62975146D01*
G36*
X96367629Y-62975066D02*
G01*
X96407111Y-62975467D01*
X96522800Y-62978259D01*
X96619689Y-62986550D01*
X96701081Y-63001232D01*
X96770277Y-63023193D01*
X96830580Y-63053322D01*
X96885292Y-63092510D01*
X96904833Y-63109532D01*
X96937250Y-63149363D01*
X96966480Y-63203413D01*
X96989009Y-63263323D01*
X97001321Y-63320739D01*
X97002600Y-63341956D01*
X96994583Y-63400769D01*
X96973101Y-63465013D01*
X96942001Y-63525821D01*
X96905134Y-63574330D01*
X96899146Y-63580182D01*
X96848421Y-63621321D01*
X96792875Y-63653435D01*
X96729304Y-63677365D01*
X96654506Y-63693953D01*
X96565278Y-63704041D01*
X96458418Y-63708469D01*
X96409472Y-63708845D01*
X96347238Y-63708545D01*
X96303472Y-63707292D01*
X96274069Y-63704554D01*
X96254921Y-63699801D01*
X96241923Y-63692501D01*
X96234955Y-63686267D01*
X96228374Y-63678694D01*
X96223212Y-63668924D01*
X96219297Y-63654340D01*
X96216457Y-63632326D01*
X96214520Y-63600264D01*
X96213316Y-63555536D01*
X96212672Y-63495526D01*
X96212417Y-63417617D01*
X96212378Y-63341956D01*
X96212130Y-63241041D01*
X96212183Y-63160427D01*
X96213143Y-63121822D01*
X96359133Y-63121822D01*
X96359133Y-63562089D01*
X96452266Y-63562004D01*
X96508307Y-63560396D01*
X96567001Y-63556256D01*
X96615972Y-63550464D01*
X96617462Y-63550226D01*
X96696608Y-63531090D01*
X96757998Y-63501287D01*
X96804695Y-63458878D01*
X96834365Y-63412961D01*
X96852647Y-63362026D01*
X96851229Y-63314200D01*
X96830012Y-63262933D01*
X96788511Y-63209899D01*
X96731002Y-63170600D01*
X96656250Y-63144331D01*
X96606292Y-63135035D01*
X96549584Y-63128507D01*
X96489481Y-63123782D01*
X96438361Y-63121817D01*
X96435333Y-63121808D01*
X96359133Y-63121822D01*
X96213143Y-63121822D01*
X96213740Y-63097851D01*
X96218002Y-63051055D01*
X96226170Y-63017778D01*
X96239444Y-62995759D01*
X96259026Y-62982739D01*
X96286117Y-62976457D01*
X96321918Y-62974653D01*
X96367629Y-62975066D01*
X96367629Y-62975066D01*
G37*
X96367629Y-62975066D02*
X96407111Y-62975467D01*
X96522800Y-62978259D01*
X96619689Y-62986550D01*
X96701081Y-63001232D01*
X96770277Y-63023193D01*
X96830580Y-63053322D01*
X96885292Y-63092510D01*
X96904833Y-63109532D01*
X96937250Y-63149363D01*
X96966480Y-63203413D01*
X96989009Y-63263323D01*
X97001321Y-63320739D01*
X97002600Y-63341956D01*
X96994583Y-63400769D01*
X96973101Y-63465013D01*
X96942001Y-63525821D01*
X96905134Y-63574330D01*
X96899146Y-63580182D01*
X96848421Y-63621321D01*
X96792875Y-63653435D01*
X96729304Y-63677365D01*
X96654506Y-63693953D01*
X96565278Y-63704041D01*
X96458418Y-63708469D01*
X96409472Y-63708845D01*
X96347238Y-63708545D01*
X96303472Y-63707292D01*
X96274069Y-63704554D01*
X96254921Y-63699801D01*
X96241923Y-63692501D01*
X96234955Y-63686267D01*
X96228374Y-63678694D01*
X96223212Y-63668924D01*
X96219297Y-63654340D01*
X96216457Y-63632326D01*
X96214520Y-63600264D01*
X96213316Y-63555536D01*
X96212672Y-63495526D01*
X96212417Y-63417617D01*
X96212378Y-63341956D01*
X96212130Y-63241041D01*
X96212183Y-63160427D01*
X96213143Y-63121822D01*
X96359133Y-63121822D01*
X96359133Y-63562089D01*
X96452266Y-63562004D01*
X96508307Y-63560396D01*
X96567001Y-63556256D01*
X96615972Y-63550464D01*
X96617462Y-63550226D01*
X96696608Y-63531090D01*
X96757998Y-63501287D01*
X96804695Y-63458878D01*
X96834365Y-63412961D01*
X96852647Y-63362026D01*
X96851229Y-63314200D01*
X96830012Y-63262933D01*
X96788511Y-63209899D01*
X96731002Y-63170600D01*
X96656250Y-63144331D01*
X96606292Y-63135035D01*
X96549584Y-63128507D01*
X96489481Y-63123782D01*
X96438361Y-63121817D01*
X96435333Y-63121808D01*
X96359133Y-63121822D01*
X96213143Y-63121822D01*
X96213740Y-63097851D01*
X96218002Y-63051055D01*
X96226170Y-63017778D01*
X96239444Y-62995759D01*
X96259026Y-62982739D01*
X96286117Y-62976457D01*
X96321918Y-62974653D01*
X96367629Y-62975066D01*
G36*
X100215957Y-57732571D02*
G01*
X100312232Y-57756809D01*
X100398816Y-57799641D01*
X100473627Y-57859419D01*
X100534582Y-57934494D01*
X100579601Y-58023220D01*
X100605864Y-58119530D01*
X100611714Y-58216795D01*
X100596860Y-58310654D01*
X100563160Y-58398511D01*
X100512472Y-58477770D01*
X100446655Y-58545836D01*
X100367566Y-58600112D01*
X100277066Y-58638002D01*
X100225800Y-58650426D01*
X100181302Y-58657947D01*
X100147001Y-58660919D01*
X100114040Y-58659094D01*
X100073566Y-58652225D01*
X100040469Y-58645250D01*
X99947053Y-58613741D01*
X99863381Y-58562617D01*
X99791335Y-58493429D01*
X99732800Y-58407728D01*
X99718852Y-58380489D01*
X99702414Y-58344122D01*
X99692106Y-58313582D01*
X99686540Y-58281450D01*
X99684331Y-58240307D01*
X99684052Y-58194222D01*
X99688139Y-58109865D01*
X99701554Y-58040586D01*
X99726744Y-57979961D01*
X99766154Y-57921567D01*
X99804702Y-57877302D01*
X99876594Y-57811484D01*
X99951687Y-57766053D01*
X100034438Y-57738850D01*
X100112072Y-57728576D01*
X100215957Y-57732571D01*
X100215957Y-57732571D01*
G37*
X100215957Y-57732571D02*
X100312232Y-57756809D01*
X100398816Y-57799641D01*
X100473627Y-57859419D01*
X100534582Y-57934494D01*
X100579601Y-58023220D01*
X100605864Y-58119530D01*
X100611714Y-58216795D01*
X100596860Y-58310654D01*
X100563160Y-58398511D01*
X100512472Y-58477770D01*
X100446655Y-58545836D01*
X100367566Y-58600112D01*
X100277066Y-58638002D01*
X100225800Y-58650426D01*
X100181302Y-58657947D01*
X100147001Y-58660919D01*
X100114040Y-58659094D01*
X100073566Y-58652225D01*
X100040469Y-58645250D01*
X99947053Y-58613741D01*
X99863381Y-58562617D01*
X99791335Y-58493429D01*
X99732800Y-58407728D01*
X99718852Y-58380489D01*
X99702414Y-58344122D01*
X99692106Y-58313582D01*
X99686540Y-58281450D01*
X99684331Y-58240307D01*
X99684052Y-58194222D01*
X99688139Y-58109865D01*
X99701554Y-58040586D01*
X99726744Y-57979961D01*
X99766154Y-57921567D01*
X99804702Y-57877302D01*
X99876594Y-57811484D01*
X99951687Y-57766053D01*
X100034438Y-57738850D01*
X100112072Y-57728576D01*
X100215957Y-57732571D01*
G36*
X108675507Y-60178245D02*
G01*
X108675526Y-60412662D01*
X108675552Y-60625603D01*
X108675625Y-60818168D01*
X108675782Y-60991459D01*
X108676064Y-61146576D01*
X108676509Y-61284620D01*
X108677156Y-61406692D01*
X108678045Y-61513894D01*
X108679213Y-61607326D01*
X108680701Y-61688090D01*
X108682546Y-61757286D01*
X108684789Y-61816015D01*
X108687469Y-61865379D01*
X108690623Y-61906478D01*
X108694292Y-61940413D01*
X108698513Y-61968286D01*
X108703327Y-61991198D01*
X108708773Y-62010249D01*
X108714888Y-62026540D01*
X108721712Y-62041173D01*
X108729285Y-62055249D01*
X108737645Y-62069868D01*
X108742839Y-62078974D01*
X108777104Y-62139689D01*
X107918955Y-62139689D01*
X107918955Y-62043733D01*
X107918224Y-62000370D01*
X107916272Y-61967205D01*
X107913463Y-61949424D01*
X107912221Y-61947778D01*
X107900799Y-61954662D01*
X107878084Y-61972505D01*
X107855385Y-61991879D01*
X107800800Y-62032614D01*
X107731321Y-62073617D01*
X107654270Y-62111123D01*
X107576965Y-62141364D01*
X107546113Y-62151012D01*
X107477616Y-62165578D01*
X107394764Y-62175539D01*
X107305371Y-62180583D01*
X107217248Y-62180396D01*
X107138207Y-62174666D01*
X107100511Y-62168858D01*
X106962414Y-62130797D01*
X106835113Y-62073073D01*
X106719292Y-61996211D01*
X106615637Y-61900739D01*
X106524833Y-61787179D01*
X106458031Y-61676381D01*
X106403164Y-61559625D01*
X106361163Y-61440276D01*
X106331167Y-61314283D01*
X106312311Y-61177594D01*
X106303732Y-61026158D01*
X106303006Y-60948711D01*
X106305100Y-60891934D01*
X107134217Y-60891934D01*
X107134424Y-60985002D01*
X107137337Y-61072692D01*
X107143000Y-61149772D01*
X107151455Y-61211009D01*
X107154038Y-61223350D01*
X107185840Y-61330633D01*
X107227498Y-61417658D01*
X107279363Y-61484642D01*
X107341781Y-61531805D01*
X107415100Y-61559365D01*
X107499669Y-61567541D01*
X107595835Y-61556551D01*
X107659311Y-61540829D01*
X107708454Y-61522639D01*
X107762583Y-61496791D01*
X107803244Y-61473089D01*
X107873800Y-61426721D01*
X107873800Y-60276530D01*
X107806392Y-60232962D01*
X107727867Y-60192040D01*
X107643681Y-60165389D01*
X107558557Y-60153465D01*
X107477216Y-60156722D01*
X107404380Y-60175615D01*
X107372426Y-60191184D01*
X107314501Y-60234181D01*
X107265544Y-60290953D01*
X107224390Y-60363575D01*
X107189874Y-60454121D01*
X107160833Y-60564666D01*
X107159552Y-60570533D01*
X107149381Y-60632788D01*
X107141739Y-60710594D01*
X107136670Y-60798720D01*
X107134217Y-60891934D01*
X106305100Y-60891934D01*
X106310857Y-60735895D01*
X106332802Y-60540059D01*
X106368786Y-60361332D01*
X106418759Y-60199845D01*
X106482668Y-60055726D01*
X106560462Y-59929106D01*
X106652089Y-59820115D01*
X106757497Y-59728883D01*
X106802662Y-59697932D01*
X106903611Y-59641785D01*
X107006901Y-59602174D01*
X107116989Y-59578014D01*
X107238330Y-59568219D01*
X107330836Y-59569265D01*
X107460490Y-59580231D01*
X107573084Y-59602046D01*
X107671875Y-59635714D01*
X107760121Y-59682236D01*
X107808986Y-59716448D01*
X107838353Y-59738362D01*
X107860043Y-59753333D01*
X107868253Y-59757733D01*
X107869868Y-59746904D01*
X107871159Y-59716251D01*
X107872138Y-59668526D01*
X107872817Y-59606479D01*
X107873210Y-59532862D01*
X107873330Y-59450427D01*
X107873188Y-59361925D01*
X107872797Y-59270107D01*
X107872171Y-59177724D01*
X107871320Y-59087528D01*
X107870260Y-59002271D01*
X107869001Y-58924703D01*
X107867556Y-58857576D01*
X107865938Y-58803641D01*
X107864161Y-58765650D01*
X107863669Y-58758667D01*
X107856092Y-58688251D01*
X107844531Y-58633102D01*
X107826792Y-58585981D01*
X107800682Y-58539647D01*
X107794415Y-58530067D01*
X107769983Y-58493378D01*
X108675311Y-58493378D01*
X108675507Y-60178245D01*
X108675507Y-60178245D01*
G37*
X108675507Y-60178245D02*
X108675526Y-60412662D01*
X108675552Y-60625603D01*
X108675625Y-60818168D01*
X108675782Y-60991459D01*
X108676064Y-61146576D01*
X108676509Y-61284620D01*
X108677156Y-61406692D01*
X108678045Y-61513894D01*
X108679213Y-61607326D01*
X108680701Y-61688090D01*
X108682546Y-61757286D01*
X108684789Y-61816015D01*
X108687469Y-61865379D01*
X108690623Y-61906478D01*
X108694292Y-61940413D01*
X108698513Y-61968286D01*
X108703327Y-61991198D01*
X108708773Y-62010249D01*
X108714888Y-62026540D01*
X108721712Y-62041173D01*
X108729285Y-62055249D01*
X108737645Y-62069868D01*
X108742839Y-62078974D01*
X108777104Y-62139689D01*
X107918955Y-62139689D01*
X107918955Y-62043733D01*
X107918224Y-62000370D01*
X107916272Y-61967205D01*
X107913463Y-61949424D01*
X107912221Y-61947778D01*
X107900799Y-61954662D01*
X107878084Y-61972505D01*
X107855385Y-61991879D01*
X107800800Y-62032614D01*
X107731321Y-62073617D01*
X107654270Y-62111123D01*
X107576965Y-62141364D01*
X107546113Y-62151012D01*
X107477616Y-62165578D01*
X107394764Y-62175539D01*
X107305371Y-62180583D01*
X107217248Y-62180396D01*
X107138207Y-62174666D01*
X107100511Y-62168858D01*
X106962414Y-62130797D01*
X106835113Y-62073073D01*
X106719292Y-61996211D01*
X106615637Y-61900739D01*
X106524833Y-61787179D01*
X106458031Y-61676381D01*
X106403164Y-61559625D01*
X106361163Y-61440276D01*
X106331167Y-61314283D01*
X106312311Y-61177594D01*
X106303732Y-61026158D01*
X106303006Y-60948711D01*
X106305100Y-60891934D01*
X107134217Y-60891934D01*
X107134424Y-60985002D01*
X107137337Y-61072692D01*
X107143000Y-61149772D01*
X107151455Y-61211009D01*
X107154038Y-61223350D01*
X107185840Y-61330633D01*
X107227498Y-61417658D01*
X107279363Y-61484642D01*
X107341781Y-61531805D01*
X107415100Y-61559365D01*
X107499669Y-61567541D01*
X107595835Y-61556551D01*
X107659311Y-61540829D01*
X107708454Y-61522639D01*
X107762583Y-61496791D01*
X107803244Y-61473089D01*
X107873800Y-61426721D01*
X107873800Y-60276530D01*
X107806392Y-60232962D01*
X107727867Y-60192040D01*
X107643681Y-60165389D01*
X107558557Y-60153465D01*
X107477216Y-60156722D01*
X107404380Y-60175615D01*
X107372426Y-60191184D01*
X107314501Y-60234181D01*
X107265544Y-60290953D01*
X107224390Y-60363575D01*
X107189874Y-60454121D01*
X107160833Y-60564666D01*
X107159552Y-60570533D01*
X107149381Y-60632788D01*
X107141739Y-60710594D01*
X107136670Y-60798720D01*
X107134217Y-60891934D01*
X106305100Y-60891934D01*
X106310857Y-60735895D01*
X106332802Y-60540059D01*
X106368786Y-60361332D01*
X106418759Y-60199845D01*
X106482668Y-60055726D01*
X106560462Y-59929106D01*
X106652089Y-59820115D01*
X106757497Y-59728883D01*
X106802662Y-59697932D01*
X106903611Y-59641785D01*
X107006901Y-59602174D01*
X107116989Y-59578014D01*
X107238330Y-59568219D01*
X107330836Y-59569265D01*
X107460490Y-59580231D01*
X107573084Y-59602046D01*
X107671875Y-59635714D01*
X107760121Y-59682236D01*
X107808986Y-59716448D01*
X107838353Y-59738362D01*
X107860043Y-59753333D01*
X107868253Y-59757733D01*
X107869868Y-59746904D01*
X107871159Y-59716251D01*
X107872138Y-59668526D01*
X107872817Y-59606479D01*
X107873210Y-59532862D01*
X107873330Y-59450427D01*
X107873188Y-59361925D01*
X107872797Y-59270107D01*
X107872171Y-59177724D01*
X107871320Y-59087528D01*
X107870260Y-59002271D01*
X107869001Y-58924703D01*
X107867556Y-58857576D01*
X107865938Y-58803641D01*
X107864161Y-58765650D01*
X107863669Y-58758667D01*
X107856092Y-58688251D01*
X107844531Y-58633102D01*
X107826792Y-58585981D01*
X107800682Y-58539647D01*
X107794415Y-58530067D01*
X107769983Y-58493378D01*
X108675311Y-58493378D01*
X108675507Y-60178245D01*
G36*
X105162574Y-59572552D02*
G01*
X105314492Y-59592567D01*
X105449756Y-59626202D01*
X105569239Y-59673725D01*
X105673815Y-59735405D01*
X105751424Y-59798965D01*
X105820265Y-59873099D01*
X105874006Y-59952871D01*
X105916910Y-60045091D01*
X105932384Y-60088161D01*
X105945244Y-60127142D01*
X105956446Y-60163289D01*
X105966120Y-60198434D01*
X105974396Y-60234410D01*
X105981403Y-60273050D01*
X105987272Y-60316185D01*
X105992131Y-60365649D01*
X105996110Y-60423273D01*
X105999340Y-60490891D01*
X106001949Y-60570334D01*
X106004067Y-60663436D01*
X106005824Y-60772027D01*
X106007349Y-60897942D01*
X106008772Y-61043012D01*
X106010025Y-61185778D01*
X106011351Y-61341968D01*
X106012556Y-61477239D01*
X106013766Y-61593246D01*
X106015106Y-61691645D01*
X106016700Y-61774093D01*
X106018675Y-61842246D01*
X106021156Y-61897760D01*
X106024269Y-61942292D01*
X106028138Y-61977498D01*
X106032889Y-62005034D01*
X106038648Y-62026556D01*
X106045539Y-62043722D01*
X106053689Y-62058186D01*
X106063223Y-62071606D01*
X106074266Y-62085638D01*
X106078566Y-62091071D01*
X106094386Y-62113910D01*
X106101422Y-62129463D01*
X106101444Y-62129922D01*
X106090567Y-62132121D01*
X106059582Y-62134147D01*
X106010957Y-62135942D01*
X105947163Y-62137451D01*
X105870669Y-62138616D01*
X105783944Y-62139380D01*
X105689457Y-62139686D01*
X105678550Y-62139689D01*
X105255657Y-62139689D01*
X105252395Y-62043622D01*
X105249133Y-61947556D01*
X105187044Y-61998543D01*
X105089714Y-62066057D01*
X104979813Y-62120749D01*
X104893349Y-62150978D01*
X104824278Y-62165666D01*
X104740925Y-62175659D01*
X104651159Y-62180646D01*
X104562845Y-62180313D01*
X104483851Y-62174351D01*
X104447622Y-62168638D01*
X104307603Y-62130776D01*
X104181178Y-62075932D01*
X104069260Y-62004924D01*
X103972762Y-61918568D01*
X103892600Y-61817679D01*
X103829687Y-61703076D01*
X103785312Y-61576984D01*
X103772978Y-61520401D01*
X103765368Y-61458202D01*
X103761739Y-61383363D01*
X103761245Y-61349467D01*
X103761310Y-61346282D01*
X104521248Y-61346282D01*
X104530541Y-61421333D01*
X104558728Y-61485160D01*
X104607197Y-61540798D01*
X104612254Y-61545211D01*
X104660548Y-61580037D01*
X104712257Y-61602620D01*
X104772989Y-61614540D01*
X104848352Y-61617383D01*
X104866459Y-61616978D01*
X104920278Y-61614325D01*
X104960308Y-61608909D01*
X104995324Y-61598745D01*
X105034103Y-61581850D01*
X105044745Y-61576672D01*
X105105396Y-61540844D01*
X105152215Y-61498212D01*
X105164952Y-61482973D01*
X105209622Y-61426462D01*
X105209622Y-61230586D01*
X105209086Y-61151939D01*
X105207396Y-61093988D01*
X105204428Y-61054875D01*
X105200057Y-61032741D01*
X105195972Y-61026274D01*
X105180047Y-61023111D01*
X105146264Y-61020488D01*
X105099340Y-61018655D01*
X105043993Y-61017857D01*
X105035106Y-61017842D01*
X104914330Y-61023096D01*
X104811660Y-61039263D01*
X104725106Y-61066961D01*
X104652681Y-61106808D01*
X104597751Y-61153758D01*
X104553204Y-61211645D01*
X104528480Y-61274693D01*
X104521248Y-61346282D01*
X103761310Y-61346282D01*
X103763178Y-61255712D01*
X103771522Y-61176812D01*
X103787768Y-61105590D01*
X103813405Y-61034864D01*
X103837401Y-60982493D01*
X103896020Y-60887196D01*
X103974117Y-60799170D01*
X104069315Y-60720017D01*
X104179238Y-60651340D01*
X104301510Y-60594741D01*
X104433755Y-60551821D01*
X104498422Y-60536882D01*
X104634604Y-60514777D01*
X104783049Y-60500194D01*
X104934505Y-60493813D01*
X105061064Y-60495445D01*
X105222950Y-60502224D01*
X105215530Y-60443245D01*
X105196238Y-60344092D01*
X105165104Y-60263372D01*
X105121269Y-60200466D01*
X105063871Y-60154756D01*
X104992048Y-60125622D01*
X104904941Y-60112447D01*
X104801686Y-60114611D01*
X104763711Y-60118612D01*
X104622520Y-60143780D01*
X104485707Y-60184814D01*
X104391178Y-60222815D01*
X104346018Y-60242190D01*
X104307585Y-60257760D01*
X104281234Y-60267405D01*
X104273546Y-60269452D01*
X104263802Y-60260374D01*
X104247083Y-60231405D01*
X104223232Y-60182217D01*
X104192093Y-60112484D01*
X104153507Y-60021879D01*
X104146910Y-60006089D01*
X104116853Y-59933772D01*
X104089874Y-59868425D01*
X104067136Y-59812906D01*
X104049806Y-59770072D01*
X104039048Y-59742781D01*
X104035941Y-59733942D01*
X104045940Y-59729187D01*
X104072217Y-59723910D01*
X104100489Y-59720231D01*
X104130646Y-59715474D01*
X104178433Y-59706028D01*
X104239612Y-59692820D01*
X104309946Y-59676776D01*
X104385194Y-59658820D01*
X104413755Y-59651797D01*
X104518816Y-59626209D01*
X104606480Y-59606147D01*
X104681068Y-59590969D01*
X104746903Y-59580035D01*
X104808307Y-59572704D01*
X104869602Y-59568335D01*
X104935110Y-59566287D01*
X104993128Y-59565889D01*
X105162574Y-59572552D01*
X105162574Y-59572552D01*
G37*
X105162574Y-59572552D02*
X105314492Y-59592567D01*
X105449756Y-59626202D01*
X105569239Y-59673725D01*
X105673815Y-59735405D01*
X105751424Y-59798965D01*
X105820265Y-59873099D01*
X105874006Y-59952871D01*
X105916910Y-60045091D01*
X105932384Y-60088161D01*
X105945244Y-60127142D01*
X105956446Y-60163289D01*
X105966120Y-60198434D01*
X105974396Y-60234410D01*
X105981403Y-60273050D01*
X105987272Y-60316185D01*
X105992131Y-60365649D01*
X105996110Y-60423273D01*
X105999340Y-60490891D01*
X106001949Y-60570334D01*
X106004067Y-60663436D01*
X106005824Y-60772027D01*
X106007349Y-60897942D01*
X106008772Y-61043012D01*
X106010025Y-61185778D01*
X106011351Y-61341968D01*
X106012556Y-61477239D01*
X106013766Y-61593246D01*
X106015106Y-61691645D01*
X106016700Y-61774093D01*
X106018675Y-61842246D01*
X106021156Y-61897760D01*
X106024269Y-61942292D01*
X106028138Y-61977498D01*
X106032889Y-62005034D01*
X106038648Y-62026556D01*
X106045539Y-62043722D01*
X106053689Y-62058186D01*
X106063223Y-62071606D01*
X106074266Y-62085638D01*
X106078566Y-62091071D01*
X106094386Y-62113910D01*
X106101422Y-62129463D01*
X106101444Y-62129922D01*
X106090567Y-62132121D01*
X106059582Y-62134147D01*
X106010957Y-62135942D01*
X105947163Y-62137451D01*
X105870669Y-62138616D01*
X105783944Y-62139380D01*
X105689457Y-62139686D01*
X105678550Y-62139689D01*
X105255657Y-62139689D01*
X105252395Y-62043622D01*
X105249133Y-61947556D01*
X105187044Y-61998543D01*
X105089714Y-62066057D01*
X104979813Y-62120749D01*
X104893349Y-62150978D01*
X104824278Y-62165666D01*
X104740925Y-62175659D01*
X104651159Y-62180646D01*
X104562845Y-62180313D01*
X104483851Y-62174351D01*
X104447622Y-62168638D01*
X104307603Y-62130776D01*
X104181178Y-62075932D01*
X104069260Y-62004924D01*
X103972762Y-61918568D01*
X103892600Y-61817679D01*
X103829687Y-61703076D01*
X103785312Y-61576984D01*
X103772978Y-61520401D01*
X103765368Y-61458202D01*
X103761739Y-61383363D01*
X103761245Y-61349467D01*
X103761310Y-61346282D01*
X104521248Y-61346282D01*
X104530541Y-61421333D01*
X104558728Y-61485160D01*
X104607197Y-61540798D01*
X104612254Y-61545211D01*
X104660548Y-61580037D01*
X104712257Y-61602620D01*
X104772989Y-61614540D01*
X104848352Y-61617383D01*
X104866459Y-61616978D01*
X104920278Y-61614325D01*
X104960308Y-61608909D01*
X104995324Y-61598745D01*
X105034103Y-61581850D01*
X105044745Y-61576672D01*
X105105396Y-61540844D01*
X105152215Y-61498212D01*
X105164952Y-61482973D01*
X105209622Y-61426462D01*
X105209622Y-61230586D01*
X105209086Y-61151939D01*
X105207396Y-61093988D01*
X105204428Y-61054875D01*
X105200057Y-61032741D01*
X105195972Y-61026274D01*
X105180047Y-61023111D01*
X105146264Y-61020488D01*
X105099340Y-61018655D01*
X105043993Y-61017857D01*
X105035106Y-61017842D01*
X104914330Y-61023096D01*
X104811660Y-61039263D01*
X104725106Y-61066961D01*
X104652681Y-61106808D01*
X104597751Y-61153758D01*
X104553204Y-61211645D01*
X104528480Y-61274693D01*
X104521248Y-61346282D01*
X103761310Y-61346282D01*
X103763178Y-61255712D01*
X103771522Y-61176812D01*
X103787768Y-61105590D01*
X103813405Y-61034864D01*
X103837401Y-60982493D01*
X103896020Y-60887196D01*
X103974117Y-60799170D01*
X104069315Y-60720017D01*
X104179238Y-60651340D01*
X104301510Y-60594741D01*
X104433755Y-60551821D01*
X104498422Y-60536882D01*
X104634604Y-60514777D01*
X104783049Y-60500194D01*
X104934505Y-60493813D01*
X105061064Y-60495445D01*
X105222950Y-60502224D01*
X105215530Y-60443245D01*
X105196238Y-60344092D01*
X105165104Y-60263372D01*
X105121269Y-60200466D01*
X105063871Y-60154756D01*
X104992048Y-60125622D01*
X104904941Y-60112447D01*
X104801686Y-60114611D01*
X104763711Y-60118612D01*
X104622520Y-60143780D01*
X104485707Y-60184814D01*
X104391178Y-60222815D01*
X104346018Y-60242190D01*
X104307585Y-60257760D01*
X104281234Y-60267405D01*
X104273546Y-60269452D01*
X104263802Y-60260374D01*
X104247083Y-60231405D01*
X104223232Y-60182217D01*
X104192093Y-60112484D01*
X104153507Y-60021879D01*
X104146910Y-60006089D01*
X104116853Y-59933772D01*
X104089874Y-59868425D01*
X104067136Y-59812906D01*
X104049806Y-59770072D01*
X104039048Y-59742781D01*
X104035941Y-59733942D01*
X104045940Y-59729187D01*
X104072217Y-59723910D01*
X104100489Y-59720231D01*
X104130646Y-59715474D01*
X104178433Y-59706028D01*
X104239612Y-59692820D01*
X104309946Y-59676776D01*
X104385194Y-59658820D01*
X104413755Y-59651797D01*
X104518816Y-59626209D01*
X104606480Y-59606147D01*
X104681068Y-59590969D01*
X104746903Y-59580035D01*
X104808307Y-59572704D01*
X104869602Y-59568335D01*
X104935110Y-59566287D01*
X104993128Y-59565889D01*
X105162574Y-59572552D01*
G36*
X102817429Y-58655071D02*
G01*
X102977570Y-58676245D01*
X103141510Y-58716385D01*
X103311313Y-58775889D01*
X103489043Y-58855154D01*
X103500310Y-58860699D01*
X103558005Y-58888725D01*
X103609552Y-58912802D01*
X103651191Y-58931249D01*
X103679162Y-58942386D01*
X103688733Y-58944933D01*
X103707950Y-58949941D01*
X103712561Y-58954147D01*
X103707458Y-58964580D01*
X103691418Y-58990868D01*
X103666288Y-59030257D01*
X103633914Y-59079991D01*
X103596143Y-59137315D01*
X103554822Y-59199476D01*
X103511798Y-59263718D01*
X103468917Y-59327285D01*
X103428026Y-59387425D01*
X103390971Y-59441380D01*
X103359600Y-59486397D01*
X103335759Y-59519721D01*
X103321294Y-59538597D01*
X103319309Y-59540787D01*
X103309191Y-59536138D01*
X103286850Y-59518962D01*
X103256280Y-59492440D01*
X103240536Y-59477964D01*
X103144047Y-59402682D01*
X103037336Y-59347241D01*
X102921832Y-59312141D01*
X102798962Y-59297880D01*
X102729561Y-59299051D01*
X102608423Y-59316212D01*
X102499205Y-59352094D01*
X102401582Y-59406959D01*
X102315228Y-59481070D01*
X102239815Y-59574688D01*
X102175018Y-59688076D01*
X102137601Y-59774667D01*
X102093748Y-59910366D01*
X102061428Y-60057850D01*
X102040557Y-60213314D01*
X102031051Y-60372956D01*
X102032827Y-60532973D01*
X102045803Y-60689561D01*
X102069894Y-60838918D01*
X102105018Y-60977240D01*
X102151092Y-61100724D01*
X102167373Y-61134978D01*
X102235620Y-61249064D01*
X102316079Y-61345557D01*
X102407570Y-61423670D01*
X102508911Y-61482617D01*
X102618920Y-61521612D01*
X102736415Y-61539868D01*
X102777883Y-61541211D01*
X102899441Y-61530290D01*
X103019878Y-61497474D01*
X103137666Y-61443439D01*
X103251277Y-61368865D01*
X103342685Y-61290539D01*
X103389215Y-61246008D01*
X103570483Y-61543271D01*
X103615580Y-61617433D01*
X103656819Y-61685646D01*
X103692735Y-61745459D01*
X103721866Y-61794420D01*
X103742750Y-61830079D01*
X103753924Y-61849984D01*
X103755375Y-61853079D01*
X103747146Y-61862718D01*
X103721567Y-61879999D01*
X103681873Y-61903283D01*
X103631297Y-61930934D01*
X103573074Y-61961315D01*
X103510437Y-61992790D01*
X103446621Y-62023722D01*
X103384860Y-62052473D01*
X103328388Y-62077408D01*
X103280438Y-62096889D01*
X103256986Y-62105318D01*
X103123221Y-62143133D01*
X102985327Y-62168136D01*
X102837622Y-62181140D01*
X102710833Y-62183468D01*
X102642878Y-62182373D01*
X102577277Y-62180275D01*
X102519847Y-62177434D01*
X102476403Y-62174106D01*
X102462298Y-62172422D01*
X102323284Y-62143587D01*
X102181757Y-62098468D01*
X102044275Y-62039750D01*
X101917394Y-61970120D01*
X101839889Y-61917441D01*
X101712481Y-61809239D01*
X101594178Y-61682671D01*
X101487172Y-61540866D01*
X101393652Y-61386951D01*
X101315810Y-61224053D01*
X101271956Y-61106756D01*
X101221708Y-60923128D01*
X101188209Y-60728581D01*
X101171449Y-60527325D01*
X101171416Y-60323568D01*
X101188101Y-60121521D01*
X101221493Y-59925392D01*
X101271580Y-59739391D01*
X101275397Y-59727803D01*
X101338281Y-59565750D01*
X101415028Y-59417832D01*
X101508242Y-59279865D01*
X101620527Y-59147661D01*
X101664392Y-59102399D01*
X101800534Y-58978457D01*
X101940491Y-58875915D01*
X102086411Y-58793656D01*
X102240442Y-58730564D01*
X102404732Y-58685523D01*
X102500289Y-58668033D01*
X102659023Y-58652466D01*
X102817429Y-58655071D01*
X102817429Y-58655071D01*
G37*
X102817429Y-58655071D02*
X102977570Y-58676245D01*
X103141510Y-58716385D01*
X103311313Y-58775889D01*
X103489043Y-58855154D01*
X103500310Y-58860699D01*
X103558005Y-58888725D01*
X103609552Y-58912802D01*
X103651191Y-58931249D01*
X103679162Y-58942386D01*
X103688733Y-58944933D01*
X103707950Y-58949941D01*
X103712561Y-58954147D01*
X103707458Y-58964580D01*
X103691418Y-58990868D01*
X103666288Y-59030257D01*
X103633914Y-59079991D01*
X103596143Y-59137315D01*
X103554822Y-59199476D01*
X103511798Y-59263718D01*
X103468917Y-59327285D01*
X103428026Y-59387425D01*
X103390971Y-59441380D01*
X103359600Y-59486397D01*
X103335759Y-59519721D01*
X103321294Y-59538597D01*
X103319309Y-59540787D01*
X103309191Y-59536138D01*
X103286850Y-59518962D01*
X103256280Y-59492440D01*
X103240536Y-59477964D01*
X103144047Y-59402682D01*
X103037336Y-59347241D01*
X102921832Y-59312141D01*
X102798962Y-59297880D01*
X102729561Y-59299051D01*
X102608423Y-59316212D01*
X102499205Y-59352094D01*
X102401582Y-59406959D01*
X102315228Y-59481070D01*
X102239815Y-59574688D01*
X102175018Y-59688076D01*
X102137601Y-59774667D01*
X102093748Y-59910366D01*
X102061428Y-60057850D01*
X102040557Y-60213314D01*
X102031051Y-60372956D01*
X102032827Y-60532973D01*
X102045803Y-60689561D01*
X102069894Y-60838918D01*
X102105018Y-60977240D01*
X102151092Y-61100724D01*
X102167373Y-61134978D01*
X102235620Y-61249064D01*
X102316079Y-61345557D01*
X102407570Y-61423670D01*
X102508911Y-61482617D01*
X102618920Y-61521612D01*
X102736415Y-61539868D01*
X102777883Y-61541211D01*
X102899441Y-61530290D01*
X103019878Y-61497474D01*
X103137666Y-61443439D01*
X103251277Y-61368865D01*
X103342685Y-61290539D01*
X103389215Y-61246008D01*
X103570483Y-61543271D01*
X103615580Y-61617433D01*
X103656819Y-61685646D01*
X103692735Y-61745459D01*
X103721866Y-61794420D01*
X103742750Y-61830079D01*
X103753924Y-61849984D01*
X103755375Y-61853079D01*
X103747146Y-61862718D01*
X103721567Y-61879999D01*
X103681873Y-61903283D01*
X103631297Y-61930934D01*
X103573074Y-61961315D01*
X103510437Y-61992790D01*
X103446621Y-62023722D01*
X103384860Y-62052473D01*
X103328388Y-62077408D01*
X103280438Y-62096889D01*
X103256986Y-62105318D01*
X103123221Y-62143133D01*
X102985327Y-62168136D01*
X102837622Y-62181140D01*
X102710833Y-62183468D01*
X102642878Y-62182373D01*
X102577277Y-62180275D01*
X102519847Y-62177434D01*
X102476403Y-62174106D01*
X102462298Y-62172422D01*
X102323284Y-62143587D01*
X102181757Y-62098468D01*
X102044275Y-62039750D01*
X101917394Y-61970120D01*
X101839889Y-61917441D01*
X101712481Y-61809239D01*
X101594178Y-61682671D01*
X101487172Y-61540866D01*
X101393652Y-61386951D01*
X101315810Y-61224053D01*
X101271956Y-61106756D01*
X101221708Y-60923128D01*
X101188209Y-60728581D01*
X101171449Y-60527325D01*
X101171416Y-60323568D01*
X101188101Y-60121521D01*
X101221493Y-59925392D01*
X101271580Y-59739391D01*
X101275397Y-59727803D01*
X101338281Y-59565750D01*
X101415028Y-59417832D01*
X101508242Y-59279865D01*
X101620527Y-59147661D01*
X101664392Y-59102399D01*
X101800534Y-58978457D01*
X101940491Y-58875915D01*
X102086411Y-58793656D01*
X102240442Y-58730564D01*
X102404732Y-58685523D01*
X102500289Y-58668033D01*
X102659023Y-58652466D01*
X102817429Y-58655071D01*
G36*
X99542600Y-58195054D02*
G01*
X99553465Y-58308993D01*
X99585082Y-58416616D01*
X99635985Y-58515615D01*
X99704707Y-58603684D01*
X99789781Y-58678516D01*
X99886768Y-58736384D01*
X99993036Y-58776005D01*
X100100050Y-58794573D01*
X100205700Y-58793434D01*
X100307875Y-58773930D01*
X100404466Y-58737406D01*
X100493362Y-58685205D01*
X100572454Y-58618673D01*
X100639631Y-58539152D01*
X100692783Y-58447987D01*
X100729801Y-58346523D01*
X100748573Y-58236102D01*
X100750511Y-58186206D01*
X100750511Y-58098267D01*
X100802440Y-58098267D01*
X100838747Y-58101111D01*
X100865645Y-58112911D01*
X100892751Y-58136649D01*
X100931133Y-58175031D01*
X100931133Y-60366602D01*
X100931124Y-60628739D01*
X100931092Y-60869241D01*
X100931028Y-61089048D01*
X100930924Y-61289101D01*
X100930773Y-61470344D01*
X100930566Y-61633716D01*
X100930294Y-61780160D01*
X100929950Y-61910617D01*
X100929526Y-62026029D01*
X100929013Y-62127338D01*
X100928403Y-62215484D01*
X100927688Y-62291410D01*
X100926860Y-62356057D01*
X100925911Y-62410367D01*
X100924833Y-62455280D01*
X100923617Y-62491740D01*
X100922255Y-62520687D01*
X100920739Y-62543063D01*
X100919062Y-62559809D01*
X100917214Y-62571868D01*
X100915187Y-62580180D01*
X100912975Y-62585687D01*
X100911892Y-62587537D01*
X100907729Y-62594549D01*
X100904195Y-62600996D01*
X100900365Y-62606900D01*
X100895318Y-62612286D01*
X100888129Y-62617178D01*
X100877877Y-62621598D01*
X100863636Y-62625572D01*
X100844486Y-62629121D01*
X100819501Y-62632270D01*
X100787760Y-62635042D01*
X100748338Y-62637461D01*
X100700314Y-62639551D01*
X100642763Y-62641335D01*
X100574763Y-62642837D01*
X100495390Y-62644080D01*
X100403721Y-62645089D01*
X100298834Y-62645885D01*
X100179804Y-62646494D01*
X100045710Y-62646939D01*
X99895627Y-62647243D01*
X99728633Y-62647430D01*
X99543804Y-62647524D01*
X99340217Y-62647548D01*
X99116950Y-62647525D01*
X98873078Y-62647480D01*
X98607679Y-62647437D01*
X98569296Y-62647432D01*
X98302318Y-62647389D01*
X98056998Y-62647318D01*
X97832417Y-62647213D01*
X97627655Y-62647066D01*
X97441794Y-62646869D01*
X97273912Y-62646616D01*
X97123092Y-62646300D01*
X96988413Y-62645913D01*
X96868956Y-62645447D01*
X96763801Y-62644897D01*
X96672029Y-62644253D01*
X96592721Y-62643511D01*
X96524957Y-62642661D01*
X96467818Y-62641697D01*
X96420383Y-62640611D01*
X96381734Y-62639397D01*
X96350951Y-62638047D01*
X96327115Y-62636555D01*
X96309306Y-62634911D01*
X96296605Y-62633111D01*
X96288092Y-62631145D01*
X96283734Y-62629477D01*
X96275272Y-62625906D01*
X96267503Y-62623270D01*
X96260398Y-62620634D01*
X96253927Y-62617062D01*
X96248061Y-62611621D01*
X96242771Y-62603375D01*
X96238026Y-62591390D01*
X96233798Y-62574731D01*
X96230057Y-62552463D01*
X96226773Y-62523652D01*
X96223917Y-62487363D01*
X96221460Y-62442661D01*
X96219371Y-62388611D01*
X96217622Y-62324279D01*
X96216183Y-62248730D01*
X96215024Y-62161030D01*
X96214117Y-62060243D01*
X96213431Y-61945434D01*
X96212937Y-61815670D01*
X96212605Y-61670015D01*
X96212407Y-61507535D01*
X96212313Y-61327295D01*
X96212292Y-61128360D01*
X96212315Y-60909796D01*
X96212354Y-60670668D01*
X96212378Y-60410040D01*
X96212378Y-60367889D01*
X96212364Y-60104992D01*
X96212339Y-59863732D01*
X96212329Y-59643165D01*
X96212358Y-59442352D01*
X96212452Y-59260349D01*
X96212638Y-59096216D01*
X96212941Y-58949011D01*
X96213386Y-58817792D01*
X96213966Y-58707867D01*
X96516803Y-58707867D01*
X96556593Y-58765711D01*
X96567764Y-58781479D01*
X96577834Y-58795441D01*
X96586862Y-58808784D01*
X96594903Y-58822693D01*
X96602014Y-58838356D01*
X96608253Y-58856958D01*
X96613675Y-58879686D01*
X96618338Y-58907727D01*
X96622299Y-58942267D01*
X96625615Y-58984492D01*
X96628341Y-59035589D01*
X96630536Y-59096744D01*
X96632255Y-59169144D01*
X96633556Y-59253975D01*
X96634495Y-59352422D01*
X96635130Y-59465674D01*
X96635516Y-59594916D01*
X96635712Y-59741334D01*
X96635773Y-59906116D01*
X96635757Y-60090447D01*
X96635720Y-60295513D01*
X96635711Y-60418133D01*
X96635735Y-60635082D01*
X96635769Y-60830642D01*
X96635757Y-61005999D01*
X96635642Y-61162341D01*
X96635370Y-61300857D01*
X96634882Y-61422734D01*
X96634124Y-61529160D01*
X96633038Y-61621322D01*
X96631569Y-61700409D01*
X96629660Y-61767608D01*
X96627256Y-61824107D01*
X96624299Y-61871093D01*
X96620734Y-61909755D01*
X96616505Y-61941280D01*
X96611554Y-61966855D01*
X96605827Y-61987670D01*
X96599267Y-62004911D01*
X96591817Y-62019765D01*
X96583421Y-62033422D01*
X96574024Y-62047069D01*
X96563568Y-62061893D01*
X96557477Y-62070783D01*
X96518704Y-62128400D01*
X97050268Y-62128400D01*
X97173517Y-62128365D01*
X97276013Y-62128215D01*
X97359580Y-62127878D01*
X97426044Y-62127286D01*
X97477229Y-62126367D01*
X97514959Y-62125051D01*
X97541060Y-62123269D01*
X97557356Y-62120951D01*
X97565672Y-62118026D01*
X97567832Y-62114424D01*
X97565661Y-62110075D01*
X97564465Y-62108645D01*
X97539315Y-62071573D01*
X97513417Y-62018772D01*
X97489808Y-61956770D01*
X97481539Y-61930357D01*
X97476922Y-61912416D01*
X97473021Y-61891355D01*
X97469752Y-61865089D01*
X97467034Y-61831532D01*
X97464785Y-61788599D01*
X97462923Y-61734204D01*
X97461364Y-61666262D01*
X97460028Y-61582688D01*
X97458831Y-61481395D01*
X97457692Y-61360300D01*
X97457315Y-61315600D01*
X97456298Y-61190449D01*
X97455540Y-61086082D01*
X97455097Y-61000707D01*
X97455030Y-60932533D01*
X97455395Y-60879765D01*
X97456252Y-60840614D01*
X97457659Y-60813285D01*
X97459675Y-60795986D01*
X97462357Y-60786926D01*
X97465764Y-60784312D01*
X97469956Y-60786351D01*
X97474429Y-60790667D01*
X97484784Y-60803602D01*
X97506842Y-60832676D01*
X97539043Y-60875759D01*
X97579826Y-60930718D01*
X97627630Y-60995423D01*
X97680895Y-61067742D01*
X97738060Y-61145544D01*
X97797563Y-61226698D01*
X97857845Y-61309072D01*
X97917345Y-61390536D01*
X97974502Y-61468957D01*
X98027755Y-61542204D01*
X98075543Y-61608147D01*
X98116307Y-61664654D01*
X98148484Y-61709593D01*
X98170515Y-61740834D01*
X98175083Y-61747466D01*
X98198004Y-61784369D01*
X98224812Y-61832359D01*
X98250211Y-61881897D01*
X98253432Y-61888577D01*
X98275110Y-61936772D01*
X98287696Y-61974334D01*
X98293426Y-62010160D01*
X98294544Y-62052200D01*
X98293910Y-62128400D01*
X99448349Y-62128400D01*
X99357185Y-62034669D01*
X99310388Y-61984775D01*
X99260101Y-61928295D01*
X99214056Y-61874026D01*
X99193631Y-61848673D01*
X99163193Y-61809128D01*
X99123138Y-61755916D01*
X99074639Y-61690667D01*
X99018865Y-61615011D01*
X98956989Y-61530577D01*
X98890181Y-61438994D01*
X98819613Y-61341892D01*
X98746455Y-61240901D01*
X98671879Y-61137650D01*
X98597056Y-61033768D01*
X98523157Y-60930885D01*
X98451354Y-60830631D01*
X98382816Y-60734636D01*
X98318716Y-60644527D01*
X98260225Y-60561936D01*
X98208514Y-60488492D01*
X98164753Y-60425824D01*
X98130115Y-60375561D01*
X98105770Y-60339334D01*
X98092889Y-60318771D01*
X98091131Y-60314668D01*
X98099090Y-60303342D01*
X98119885Y-60276162D01*
X98152153Y-60234829D01*
X98194530Y-60181044D01*
X98245653Y-60116506D01*
X98304159Y-60042918D01*
X98368686Y-59961978D01*
X98437869Y-59875388D01*
X98510347Y-59784848D01*
X98584754Y-59692060D01*
X98644483Y-59617702D01*
X99655489Y-59617702D01*
X99661398Y-59630659D01*
X99675728Y-59652908D01*
X99676775Y-59654391D01*
X99695562Y-59684544D01*
X99715209Y-59721375D01*
X99719108Y-59729511D01*
X99722644Y-59737940D01*
X99725770Y-59748059D01*
X99728514Y-59761260D01*
X99730908Y-59778938D01*
X99732981Y-59802484D01*
X99734765Y-59833293D01*
X99736288Y-59872757D01*
X99737581Y-59922269D01*
X99738674Y-59983223D01*
X99739597Y-60057011D01*
X99740381Y-60145028D01*
X99741055Y-60248665D01*
X99741650Y-60369316D01*
X99742195Y-60508374D01*
X99742721Y-60667232D01*
X99743255Y-60846089D01*
X99743794Y-61031207D01*
X99744228Y-61195145D01*
X99744491Y-61339303D01*
X99744516Y-61465079D01*
X99744235Y-61573871D01*
X99743581Y-61667077D01*
X99742486Y-61746097D01*
X99740882Y-61812328D01*
X99738703Y-61867170D01*
X99735881Y-61912021D01*
X99732349Y-61948278D01*
X99728039Y-61977341D01*
X99722883Y-62000609D01*
X99716815Y-62019479D01*
X99709767Y-62035351D01*
X99701671Y-62049622D01*
X99692460Y-62063691D01*
X99683960Y-62076158D01*
X99666824Y-62102452D01*
X99656678Y-62120037D01*
X99655489Y-62123257D01*
X99666396Y-62124334D01*
X99697589Y-62125335D01*
X99746777Y-62126235D01*
X99811667Y-62127010D01*
X99889970Y-62127637D01*
X99979393Y-62128091D01*
X100077644Y-62128349D01*
X100146555Y-62128400D01*
X100251548Y-62128180D01*
X100348390Y-62127548D01*
X100434893Y-62126549D01*
X100508868Y-62125227D01*
X100568126Y-62123626D01*
X100610480Y-62121791D01*
X100633740Y-62119765D01*
X100637622Y-62118493D01*
X100629924Y-62103591D01*
X100621926Y-62095560D01*
X100608754Y-62078434D01*
X100591515Y-62048183D01*
X100579593Y-62023622D01*
X100552955Y-61964711D01*
X100549880Y-60787845D01*
X100546805Y-59610978D01*
X100101147Y-59610978D01*
X100003330Y-59611142D01*
X99912936Y-59611611D01*
X99832370Y-59612347D01*
X99764038Y-59613316D01*
X99710344Y-59614480D01*
X99673695Y-59615803D01*
X99656496Y-59617249D01*
X99655489Y-59617702D01*
X98644483Y-59617702D01*
X98659730Y-59598722D01*
X98733910Y-59506537D01*
X98805931Y-59417204D01*
X98874431Y-59332424D01*
X98938045Y-59253898D01*
X98995412Y-59183326D01*
X99045167Y-59122409D01*
X99085948Y-59072847D01*
X99103112Y-59052178D01*
X99189404Y-58951516D01*
X99266003Y-58868259D01*
X99334817Y-58800438D01*
X99397752Y-58746089D01*
X99407133Y-58738722D01*
X99446644Y-58708117D01*
X98314884Y-58707867D01*
X98320173Y-58755844D01*
X98316870Y-58813188D01*
X98295339Y-58881463D01*
X98255365Y-58961212D01*
X98210057Y-59033495D01*
X98193839Y-59056140D01*
X98165786Y-59093696D01*
X98127570Y-59144021D01*
X98080863Y-59204973D01*
X98027339Y-59274411D01*
X97968669Y-59350194D01*
X97906525Y-59430180D01*
X97842579Y-59512228D01*
X97778505Y-59594196D01*
X97715973Y-59673943D01*
X97656657Y-59749327D01*
X97602229Y-59818207D01*
X97554361Y-59878442D01*
X97514725Y-59927889D01*
X97484994Y-59964408D01*
X97466839Y-59985858D01*
X97463780Y-59989156D01*
X97460921Y-59981149D01*
X97458707Y-59950855D01*
X97457143Y-59898556D01*
X97456233Y-59824531D01*
X97455980Y-59729063D01*
X97456387Y-59612434D01*
X97457296Y-59492445D01*
X97458618Y-59360333D01*
X97460143Y-59248594D01*
X97462119Y-59155025D01*
X97464794Y-59077419D01*
X97468418Y-59013574D01*
X97473239Y-58961283D01*
X97479506Y-58918344D01*
X97487468Y-58882551D01*
X97497373Y-58851700D01*
X97509469Y-58823586D01*
X97524007Y-58796005D01*
X97538689Y-58770966D01*
X97576686Y-58707867D01*
X96516803Y-58707867D01*
X96213966Y-58707867D01*
X96213999Y-58701617D01*
X96214805Y-58599544D01*
X96215830Y-58510633D01*
X96217100Y-58433941D01*
X96218640Y-58368527D01*
X96220476Y-58313449D01*
X96222633Y-58267765D01*
X96225137Y-58230534D01*
X96228013Y-58200813D01*
X96231287Y-58177662D01*
X96234985Y-58160139D01*
X96239131Y-58147301D01*
X96243753Y-58138208D01*
X96248874Y-58131918D01*
X96254522Y-58127488D01*
X96260721Y-58123978D01*
X96267496Y-58120445D01*
X96273492Y-58116876D01*
X96278725Y-58114300D01*
X96286901Y-58111972D01*
X96299114Y-58109878D01*
X96316459Y-58108007D01*
X96340031Y-58106347D01*
X96370923Y-58104884D01*
X96410232Y-58103608D01*
X96459050Y-58102504D01*
X96518473Y-58101561D01*
X96589596Y-58100767D01*
X96673512Y-58100109D01*
X96771317Y-58099575D01*
X96884106Y-58099153D01*
X97012971Y-58098829D01*
X97159009Y-58098592D01*
X97323314Y-58098430D01*
X97506980Y-58098330D01*
X97711103Y-58098280D01*
X97922247Y-58098267D01*
X99542600Y-58098267D01*
X99542600Y-58195054D01*
X99542600Y-58195054D01*
G37*
X99542600Y-58195054D02*
X99553465Y-58308993D01*
X99585082Y-58416616D01*
X99635985Y-58515615D01*
X99704707Y-58603684D01*
X99789781Y-58678516D01*
X99886768Y-58736384D01*
X99993036Y-58776005D01*
X100100050Y-58794573D01*
X100205700Y-58793434D01*
X100307875Y-58773930D01*
X100404466Y-58737406D01*
X100493362Y-58685205D01*
X100572454Y-58618673D01*
X100639631Y-58539152D01*
X100692783Y-58447987D01*
X100729801Y-58346523D01*
X100748573Y-58236102D01*
X100750511Y-58186206D01*
X100750511Y-58098267D01*
X100802440Y-58098267D01*
X100838747Y-58101111D01*
X100865645Y-58112911D01*
X100892751Y-58136649D01*
X100931133Y-58175031D01*
X100931133Y-60366602D01*
X100931124Y-60628739D01*
X100931092Y-60869241D01*
X100931028Y-61089048D01*
X100930924Y-61289101D01*
X100930773Y-61470344D01*
X100930566Y-61633716D01*
X100930294Y-61780160D01*
X100929950Y-61910617D01*
X100929526Y-62026029D01*
X100929013Y-62127338D01*
X100928403Y-62215484D01*
X100927688Y-62291410D01*
X100926860Y-62356057D01*
X100925911Y-62410367D01*
X100924833Y-62455280D01*
X100923617Y-62491740D01*
X100922255Y-62520687D01*
X100920739Y-62543063D01*
X100919062Y-62559809D01*
X100917214Y-62571868D01*
X100915187Y-62580180D01*
X100912975Y-62585687D01*
X100911892Y-62587537D01*
X100907729Y-62594549D01*
X100904195Y-62600996D01*
X100900365Y-62606900D01*
X100895318Y-62612286D01*
X100888129Y-62617178D01*
X100877877Y-62621598D01*
X100863636Y-62625572D01*
X100844486Y-62629121D01*
X100819501Y-62632270D01*
X100787760Y-62635042D01*
X100748338Y-62637461D01*
X100700314Y-62639551D01*
X100642763Y-62641335D01*
X100574763Y-62642837D01*
X100495390Y-62644080D01*
X100403721Y-62645089D01*
X100298834Y-62645885D01*
X100179804Y-62646494D01*
X100045710Y-62646939D01*
X99895627Y-62647243D01*
X99728633Y-62647430D01*
X99543804Y-62647524D01*
X99340217Y-62647548D01*
X99116950Y-62647525D01*
X98873078Y-62647480D01*
X98607679Y-62647437D01*
X98569296Y-62647432D01*
X98302318Y-62647389D01*
X98056998Y-62647318D01*
X97832417Y-62647213D01*
X97627655Y-62647066D01*
X97441794Y-62646869D01*
X97273912Y-62646616D01*
X97123092Y-62646300D01*
X96988413Y-62645913D01*
X96868956Y-62645447D01*
X96763801Y-62644897D01*
X96672029Y-62644253D01*
X96592721Y-62643511D01*
X96524957Y-62642661D01*
X96467818Y-62641697D01*
X96420383Y-62640611D01*
X96381734Y-62639397D01*
X96350951Y-62638047D01*
X96327115Y-62636555D01*
X96309306Y-62634911D01*
X96296605Y-62633111D01*
X96288092Y-62631145D01*
X96283734Y-62629477D01*
X96275272Y-62625906D01*
X96267503Y-62623270D01*
X96260398Y-62620634D01*
X96253927Y-62617062D01*
X96248061Y-62611621D01*
X96242771Y-62603375D01*
X96238026Y-62591390D01*
X96233798Y-62574731D01*
X96230057Y-62552463D01*
X96226773Y-62523652D01*
X96223917Y-62487363D01*
X96221460Y-62442661D01*
X96219371Y-62388611D01*
X96217622Y-62324279D01*
X96216183Y-62248730D01*
X96215024Y-62161030D01*
X96214117Y-62060243D01*
X96213431Y-61945434D01*
X96212937Y-61815670D01*
X96212605Y-61670015D01*
X96212407Y-61507535D01*
X96212313Y-61327295D01*
X96212292Y-61128360D01*
X96212315Y-60909796D01*
X96212354Y-60670668D01*
X96212378Y-60410040D01*
X96212378Y-60367889D01*
X96212364Y-60104992D01*
X96212339Y-59863732D01*
X96212329Y-59643165D01*
X96212358Y-59442352D01*
X96212452Y-59260349D01*
X96212638Y-59096216D01*
X96212941Y-58949011D01*
X96213386Y-58817792D01*
X96213966Y-58707867D01*
X96516803Y-58707867D01*
X96556593Y-58765711D01*
X96567764Y-58781479D01*
X96577834Y-58795441D01*
X96586862Y-58808784D01*
X96594903Y-58822693D01*
X96602014Y-58838356D01*
X96608253Y-58856958D01*
X96613675Y-58879686D01*
X96618338Y-58907727D01*
X96622299Y-58942267D01*
X96625615Y-58984492D01*
X96628341Y-59035589D01*
X96630536Y-59096744D01*
X96632255Y-59169144D01*
X96633556Y-59253975D01*
X96634495Y-59352422D01*
X96635130Y-59465674D01*
X96635516Y-59594916D01*
X96635712Y-59741334D01*
X96635773Y-59906116D01*
X96635757Y-60090447D01*
X96635720Y-60295513D01*
X96635711Y-60418133D01*
X96635735Y-60635082D01*
X96635769Y-60830642D01*
X96635757Y-61005999D01*
X96635642Y-61162341D01*
X96635370Y-61300857D01*
X96634882Y-61422734D01*
X96634124Y-61529160D01*
X96633038Y-61621322D01*
X96631569Y-61700409D01*
X96629660Y-61767608D01*
X96627256Y-61824107D01*
X96624299Y-61871093D01*
X96620734Y-61909755D01*
X96616505Y-61941280D01*
X96611554Y-61966855D01*
X96605827Y-61987670D01*
X96599267Y-62004911D01*
X96591817Y-62019765D01*
X96583421Y-62033422D01*
X96574024Y-62047069D01*
X96563568Y-62061893D01*
X96557477Y-62070783D01*
X96518704Y-62128400D01*
X97050268Y-62128400D01*
X97173517Y-62128365D01*
X97276013Y-62128215D01*
X97359580Y-62127878D01*
X97426044Y-62127286D01*
X97477229Y-62126367D01*
X97514959Y-62125051D01*
X97541060Y-62123269D01*
X97557356Y-62120951D01*
X97565672Y-62118026D01*
X97567832Y-62114424D01*
X97565661Y-62110075D01*
X97564465Y-62108645D01*
X97539315Y-62071573D01*
X97513417Y-62018772D01*
X97489808Y-61956770D01*
X97481539Y-61930357D01*
X97476922Y-61912416D01*
X97473021Y-61891355D01*
X97469752Y-61865089D01*
X97467034Y-61831532D01*
X97464785Y-61788599D01*
X97462923Y-61734204D01*
X97461364Y-61666262D01*
X97460028Y-61582688D01*
X97458831Y-61481395D01*
X97457692Y-61360300D01*
X97457315Y-61315600D01*
X97456298Y-61190449D01*
X97455540Y-61086082D01*
X97455097Y-61000707D01*
X97455030Y-60932533D01*
X97455395Y-60879765D01*
X97456252Y-60840614D01*
X97457659Y-60813285D01*
X97459675Y-60795986D01*
X97462357Y-60786926D01*
X97465764Y-60784312D01*
X97469956Y-60786351D01*
X97474429Y-60790667D01*
X97484784Y-60803602D01*
X97506842Y-60832676D01*
X97539043Y-60875759D01*
X97579826Y-60930718D01*
X97627630Y-60995423D01*
X97680895Y-61067742D01*
X97738060Y-61145544D01*
X97797563Y-61226698D01*
X97857845Y-61309072D01*
X97917345Y-61390536D01*
X97974502Y-61468957D01*
X98027755Y-61542204D01*
X98075543Y-61608147D01*
X98116307Y-61664654D01*
X98148484Y-61709593D01*
X98170515Y-61740834D01*
X98175083Y-61747466D01*
X98198004Y-61784369D01*
X98224812Y-61832359D01*
X98250211Y-61881897D01*
X98253432Y-61888577D01*
X98275110Y-61936772D01*
X98287696Y-61974334D01*
X98293426Y-62010160D01*
X98294544Y-62052200D01*
X98293910Y-62128400D01*
X99448349Y-62128400D01*
X99357185Y-62034669D01*
X99310388Y-61984775D01*
X99260101Y-61928295D01*
X99214056Y-61874026D01*
X99193631Y-61848673D01*
X99163193Y-61809128D01*
X99123138Y-61755916D01*
X99074639Y-61690667D01*
X99018865Y-61615011D01*
X98956989Y-61530577D01*
X98890181Y-61438994D01*
X98819613Y-61341892D01*
X98746455Y-61240901D01*
X98671879Y-61137650D01*
X98597056Y-61033768D01*
X98523157Y-60930885D01*
X98451354Y-60830631D01*
X98382816Y-60734636D01*
X98318716Y-60644527D01*
X98260225Y-60561936D01*
X98208514Y-60488492D01*
X98164753Y-60425824D01*
X98130115Y-60375561D01*
X98105770Y-60339334D01*
X98092889Y-60318771D01*
X98091131Y-60314668D01*
X98099090Y-60303342D01*
X98119885Y-60276162D01*
X98152153Y-60234829D01*
X98194530Y-60181044D01*
X98245653Y-60116506D01*
X98304159Y-60042918D01*
X98368686Y-59961978D01*
X98437869Y-59875388D01*
X98510347Y-59784848D01*
X98584754Y-59692060D01*
X98644483Y-59617702D01*
X99655489Y-59617702D01*
X99661398Y-59630659D01*
X99675728Y-59652908D01*
X99676775Y-59654391D01*
X99695562Y-59684544D01*
X99715209Y-59721375D01*
X99719108Y-59729511D01*
X99722644Y-59737940D01*
X99725770Y-59748059D01*
X99728514Y-59761260D01*
X99730908Y-59778938D01*
X99732981Y-59802484D01*
X99734765Y-59833293D01*
X99736288Y-59872757D01*
X99737581Y-59922269D01*
X99738674Y-59983223D01*
X99739597Y-60057011D01*
X99740381Y-60145028D01*
X99741055Y-60248665D01*
X99741650Y-60369316D01*
X99742195Y-60508374D01*
X99742721Y-60667232D01*
X99743255Y-60846089D01*
X99743794Y-61031207D01*
X99744228Y-61195145D01*
X99744491Y-61339303D01*
X99744516Y-61465079D01*
X99744235Y-61573871D01*
X99743581Y-61667077D01*
X99742486Y-61746097D01*
X99740882Y-61812328D01*
X99738703Y-61867170D01*
X99735881Y-61912021D01*
X99732349Y-61948278D01*
X99728039Y-61977341D01*
X99722883Y-62000609D01*
X99716815Y-62019479D01*
X99709767Y-62035351D01*
X99701671Y-62049622D01*
X99692460Y-62063691D01*
X99683960Y-62076158D01*
X99666824Y-62102452D01*
X99656678Y-62120037D01*
X99655489Y-62123257D01*
X99666396Y-62124334D01*
X99697589Y-62125335D01*
X99746777Y-62126235D01*
X99811667Y-62127010D01*
X99889970Y-62127637D01*
X99979393Y-62128091D01*
X100077644Y-62128349D01*
X100146555Y-62128400D01*
X100251548Y-62128180D01*
X100348390Y-62127548D01*
X100434893Y-62126549D01*
X100508868Y-62125227D01*
X100568126Y-62123626D01*
X100610480Y-62121791D01*
X100633740Y-62119765D01*
X100637622Y-62118493D01*
X100629924Y-62103591D01*
X100621926Y-62095560D01*
X100608754Y-62078434D01*
X100591515Y-62048183D01*
X100579593Y-62023622D01*
X100552955Y-61964711D01*
X100549880Y-60787845D01*
X100546805Y-59610978D01*
X100101147Y-59610978D01*
X100003330Y-59611142D01*
X99912936Y-59611611D01*
X99832370Y-59612347D01*
X99764038Y-59613316D01*
X99710344Y-59614480D01*
X99673695Y-59615803D01*
X99656496Y-59617249D01*
X99655489Y-59617702D01*
X98644483Y-59617702D01*
X98659730Y-59598722D01*
X98733910Y-59506537D01*
X98805931Y-59417204D01*
X98874431Y-59332424D01*
X98938045Y-59253898D01*
X98995412Y-59183326D01*
X99045167Y-59122409D01*
X99085948Y-59072847D01*
X99103112Y-59052178D01*
X99189404Y-58951516D01*
X99266003Y-58868259D01*
X99334817Y-58800438D01*
X99397752Y-58746089D01*
X99407133Y-58738722D01*
X99446644Y-58708117D01*
X98314884Y-58707867D01*
X98320173Y-58755844D01*
X98316870Y-58813188D01*
X98295339Y-58881463D01*
X98255365Y-58961212D01*
X98210057Y-59033495D01*
X98193839Y-59056140D01*
X98165786Y-59093696D01*
X98127570Y-59144021D01*
X98080863Y-59204973D01*
X98027339Y-59274411D01*
X97968669Y-59350194D01*
X97906525Y-59430180D01*
X97842579Y-59512228D01*
X97778505Y-59594196D01*
X97715973Y-59673943D01*
X97656657Y-59749327D01*
X97602229Y-59818207D01*
X97554361Y-59878442D01*
X97514725Y-59927889D01*
X97484994Y-59964408D01*
X97466839Y-59985858D01*
X97463780Y-59989156D01*
X97460921Y-59981149D01*
X97458707Y-59950855D01*
X97457143Y-59898556D01*
X97456233Y-59824531D01*
X97455980Y-59729063D01*
X97456387Y-59612434D01*
X97457296Y-59492445D01*
X97458618Y-59360333D01*
X97460143Y-59248594D01*
X97462119Y-59155025D01*
X97464794Y-59077419D01*
X97468418Y-59013574D01*
X97473239Y-58961283D01*
X97479506Y-58918344D01*
X97487468Y-58882551D01*
X97497373Y-58851700D01*
X97509469Y-58823586D01*
X97524007Y-58796005D01*
X97538689Y-58770966D01*
X97576686Y-58707867D01*
X96516803Y-58707867D01*
X96213966Y-58707867D01*
X96213999Y-58701617D01*
X96214805Y-58599544D01*
X96215830Y-58510633D01*
X96217100Y-58433941D01*
X96218640Y-58368527D01*
X96220476Y-58313449D01*
X96222633Y-58267765D01*
X96225137Y-58230534D01*
X96228013Y-58200813D01*
X96231287Y-58177662D01*
X96234985Y-58160139D01*
X96239131Y-58147301D01*
X96243753Y-58138208D01*
X96248874Y-58131918D01*
X96254522Y-58127488D01*
X96260721Y-58123978D01*
X96267496Y-58120445D01*
X96273492Y-58116876D01*
X96278725Y-58114300D01*
X96286901Y-58111972D01*
X96299114Y-58109878D01*
X96316459Y-58108007D01*
X96340031Y-58106347D01*
X96370923Y-58104884D01*
X96410232Y-58103608D01*
X96459050Y-58102504D01*
X96518473Y-58101561D01*
X96589596Y-58100767D01*
X96673512Y-58100109D01*
X96771317Y-58099575D01*
X96884106Y-58099153D01*
X97012971Y-58098829D01*
X97159009Y-58098592D01*
X97323314Y-58098430D01*
X97506980Y-58098330D01*
X97711103Y-58098280D01*
X97922247Y-58098267D01*
X99542600Y-58098267D01*
X99542600Y-58195054D01*
D11*
X92435000Y-114967936D02*
X92435000Y-116172064D01*
X94255000Y-114967936D02*
X94255000Y-116172064D01*
X75459000Y-108298064D02*
X75459000Y-107093936D01*
X73639000Y-108298064D02*
X73639000Y-107093936D01*
X78126000Y-108298064D02*
X78126000Y-107093936D01*
X76306000Y-108298064D02*
X76306000Y-107093936D01*
X95102000Y-115031436D02*
X95102000Y-116235564D01*
X96922000Y-115031436D02*
X96922000Y-116235564D01*
X103664936Y-115337000D02*
X104869064Y-115337000D01*
X103664936Y-113517000D02*
X104869064Y-113517000D01*
X75817000Y-111851221D02*
X75817000Y-112176779D01*
X76837000Y-111851221D02*
X76837000Y-112176779D01*
D13*
X57277000Y-100660000D02*
X57877000Y-101260000D01*
X56677000Y-101260000D02*
X57277000Y-100660000D01*
X57877000Y-101260000D02*
X56677000Y-101260000D01*
X51437000Y-101710000D02*
X51437000Y-101210000D01*
X51337000Y-101210000D02*
X51537000Y-101210000D01*
X51337000Y-101710000D02*
X51337000Y-101210000D01*
X51537000Y-101710000D02*
X51337000Y-101710000D01*
X51437000Y-86750000D02*
X51437000Y-86250000D01*
X51337000Y-86250000D02*
X51537000Y-86250000D01*
X51337000Y-86750000D02*
X51337000Y-86250000D01*
X51537000Y-86750000D02*
X51337000Y-86750000D01*
X51437000Y-94230000D02*
X51437000Y-93730000D01*
X51337000Y-93730000D02*
X51537000Y-93730000D01*
X51337000Y-94230000D02*
X51337000Y-93730000D01*
X51537000Y-94230000D02*
X51337000Y-94230000D01*
X59177000Y-91755000D02*
X60477000Y-91755000D01*
X59177000Y-85030000D02*
X59177000Y-91755000D01*
X52837000Y-85030000D02*
X59177000Y-85030000D01*
X52837000Y-102930000D02*
X52837000Y-85030000D01*
X59177000Y-102930000D02*
X52837000Y-102930000D01*
X59177000Y-96205000D02*
X59177000Y-102930000D01*
X60477000Y-96205000D02*
X59177000Y-96205000D01*
X60477000Y-83830000D02*
X60477000Y-104130000D01*
X51537000Y-83830000D02*
X60477000Y-83830000D01*
X51537000Y-104130000D02*
X51537000Y-83830000D01*
X60477000Y-104130000D02*
X51537000Y-104130000D01*
D11*
X91094779Y-85850000D02*
X90769221Y-85850000D01*
X91094779Y-86870000D02*
X90769221Y-86870000D01*
X101273000Y-82205000D02*
X101273000Y-81480000D01*
X94053000Y-88700000D02*
X94778000Y-88700000D01*
X94053000Y-87975000D02*
X94053000Y-88700000D01*
X94053000Y-81480000D02*
X94778000Y-81480000D01*
X94053000Y-82205000D02*
X94053000Y-81480000D01*
X101273000Y-88700000D02*
X100548000Y-88700000D01*
X101273000Y-87975000D02*
X101273000Y-88700000D01*
X103122000Y-80355221D02*
X103122000Y-80680779D01*
X104142000Y-80355221D02*
X104142000Y-80680779D01*
X104142000Y-89824779D02*
X104142000Y-89499221D01*
X103122000Y-89824779D02*
X103122000Y-89499221D01*
X67950000Y-136900000D02*
X77350000Y-136900000D01*
X77350000Y-131100000D02*
X77350000Y-133100000D01*
X77350000Y-135000000D02*
X77350000Y-136900000D01*
X67950000Y-131100000D02*
X67950000Y-133100000D01*
X67950000Y-135000000D02*
X67950000Y-136900000D01*
X79871500Y-129979922D02*
X79871500Y-130497078D01*
X81291500Y-129979922D02*
X81291500Y-130497078D01*
X53174000Y-59590000D02*
X50889000Y-59590000D01*
X53174000Y-61060000D02*
X53174000Y-59590000D01*
X50889000Y-61060000D02*
X53174000Y-61060000D01*
X53407000Y-67250000D02*
X54737000Y-67250000D01*
X53407000Y-68580000D02*
X53407000Y-67250000D01*
X53407000Y-69850000D02*
X56067000Y-69850000D01*
X56067000Y-69850000D02*
X56067000Y-72450000D01*
X53407000Y-69850000D02*
X53407000Y-72450000D01*
X53407000Y-72450000D02*
X56067000Y-72450000D01*
X75473779Y-58676000D02*
X75148221Y-58676000D01*
X75473779Y-57656000D02*
X75148221Y-57656000D01*
X75473779Y-60327000D02*
X75148221Y-60327000D01*
X75473779Y-59307000D02*
X75148221Y-59307000D01*
X58607000Y-79188000D02*
X58607000Y-80518000D01*
X57277000Y-79188000D02*
X58607000Y-79188000D01*
X56007000Y-79188000D02*
X56007000Y-81848000D01*
X56007000Y-81848000D02*
X53407000Y-81848000D01*
X56007000Y-79188000D02*
X53407000Y-79188000D01*
X53407000Y-79188000D02*
X53407000Y-81848000D01*
D13*
X71750000Y-74930000D02*
X71750000Y-76430000D01*
X58250000Y-74930000D02*
X58250000Y-76430000D01*
X71750000Y-76430000D02*
X70350000Y-76430000D01*
X58250000Y-76430000D02*
X59750000Y-76430000D01*
D11*
X96397578Y-77522000D02*
X95880422Y-77522000D01*
X96397578Y-78942000D02*
X95880422Y-78942000D01*
X96397578Y-91238000D02*
X95880422Y-91238000D01*
X96397578Y-92658000D02*
X95880422Y-92658000D01*
X83818000Y-65623221D02*
X83818000Y-65948779D01*
X84838000Y-65623221D02*
X84838000Y-65948779D01*
X90769221Y-88902000D02*
X91094779Y-88902000D01*
X90769221Y-87882000D02*
X91094779Y-87882000D01*
X99436422Y-78942000D02*
X99953578Y-78942000D01*
X99436422Y-77522000D02*
X99953578Y-77522000D01*
X99436422Y-92658000D02*
X99953578Y-92658000D01*
X99436422Y-91238000D02*
X99953578Y-91238000D01*
X104142000Y-86776779D02*
X104142000Y-86451221D01*
X103122000Y-86776779D02*
X103122000Y-86451221D01*
X103122000Y-83403221D02*
X103122000Y-83728779D01*
X104142000Y-83403221D02*
X104142000Y-83728779D01*
X98677000Y-76764000D02*
X97217000Y-76764000D01*
X98677000Y-73604000D02*
X96517000Y-73604000D01*
X98677000Y-73604000D02*
X98677000Y-74534000D01*
X98677000Y-76764000D02*
X98677000Y-75834000D01*
X67008750Y-104343750D02*
X67796250Y-104343750D01*
X67402500Y-104737500D02*
X67402500Y-103950000D01*
X71595563Y-103710000D02*
X72660000Y-102645563D01*
X66904437Y-103710000D02*
X65840000Y-102645563D01*
X66904437Y-103710000D02*
X68190000Y-103710000D01*
X71595563Y-103710000D02*
X70310000Y-103710000D01*
X72660000Y-102645563D02*
X72660000Y-96890000D01*
X65840000Y-102645563D02*
X65840000Y-96890000D01*
X65840000Y-96890000D02*
X68190000Y-96890000D01*
X72660000Y-96890000D02*
X70310000Y-96890000D01*
X102741000Y-127218221D02*
X102741000Y-127543779D01*
X103761000Y-127218221D02*
X103761000Y-127543779D01*
D13*
X113793000Y-125056000D02*
X113793000Y-123706000D01*
X110643000Y-125056000D02*
X110643000Y-129706000D01*
X113893000Y-125056000D02*
X113893000Y-129706000D01*
X110643000Y-125056000D02*
X110843000Y-125056000D01*
X110643000Y-129706000D02*
X110843000Y-129706000D01*
X113893000Y-129706000D02*
X113693000Y-129706000D01*
X113893000Y-125056000D02*
X113793000Y-125056000D01*
D14*
X107797000Y-88012000D02*
X108712000Y-88012000D01*
X108712000Y-97662000D02*
X107797000Y-97662000D01*
X112167000Y-95377000D02*
X112167000Y-97662000D01*
X111252000Y-88012000D02*
X112167000Y-88012000D01*
X112167000Y-88012000D02*
X112167000Y-90297000D01*
X107797000Y-97662000D02*
X107797000Y-88012000D01*
X112167000Y-97662000D02*
X111252000Y-97662000D01*
X107797000Y-72518000D02*
X108712000Y-72518000D01*
X108712000Y-82168000D02*
X107797000Y-82168000D01*
X112167000Y-79883000D02*
X112167000Y-82168000D01*
X111252000Y-72518000D02*
X112167000Y-72518000D01*
X112167000Y-72518000D02*
X112167000Y-74803000D01*
X107797000Y-82168000D02*
X107797000Y-72518000D01*
X112167000Y-82168000D02*
X111252000Y-82168000D01*
D11*
X81091500Y-126083279D02*
X81091500Y-125757721D01*
X80071500Y-126083279D02*
X80071500Y-125757721D01*
X86810000Y-62700000D02*
X86810000Y-55080000D01*
X79190000Y-62700000D02*
X86810000Y-62700000D01*
X79190000Y-55080000D02*
X79190000Y-62700000D01*
X104392000Y-127218221D02*
X104392000Y-127543779D01*
X105412000Y-127218221D02*
X105412000Y-127543779D01*
X106923000Y-128991000D02*
X109373000Y-128991000D01*
X108723000Y-125771000D02*
X106923000Y-125771000D01*
X107660221Y-130685000D02*
X107985779Y-130685000D01*
X107660221Y-129665000D02*
X107985779Y-129665000D01*
D14*
X108712000Y-117729000D02*
X107797000Y-117729000D01*
X112167000Y-105029000D02*
X112167000Y-108839000D01*
X112167000Y-115444000D02*
X112167000Y-117729000D01*
X107797000Y-117729000D02*
X107797000Y-105029000D01*
X107797000Y-105029000D02*
X108712000Y-105029000D01*
X112167000Y-117729000D02*
X111252000Y-117729000D01*
X111252000Y-105029000D02*
X112167000Y-105029000D01*
D11*
X84156000Y-129941000D02*
X88056000Y-129941000D01*
X82656000Y-124821000D02*
X88056000Y-124821000D01*
X93892000Y-128941500D02*
X96177000Y-128941500D01*
X93892000Y-127471500D02*
X93892000Y-128941500D01*
X96177000Y-127471500D02*
X93892000Y-127471500D01*
X92364779Y-126045500D02*
X92039221Y-126045500D01*
X92364779Y-127065500D02*
X92039221Y-127065500D01*
X92364779Y-127696500D02*
X92039221Y-127696500D01*
X92364779Y-128716500D02*
X92039221Y-128716500D01*
X93892000Y-127290500D02*
X96177000Y-127290500D01*
X93892000Y-125820500D02*
X93892000Y-127290500D01*
X96177000Y-125820500D02*
X93892000Y-125820500D01*
X91094779Y-83945000D02*
X90769221Y-83945000D01*
X91094779Y-84965000D02*
X90769221Y-84965000D01*
X87919779Y-85850000D02*
X87594221Y-85850000D01*
X87919779Y-86870000D02*
X87594221Y-86870000D01*
X87919779Y-83945000D02*
X87594221Y-83945000D01*
X87919779Y-84965000D02*
X87594221Y-84965000D01*
X54701221Y-57533000D02*
X55026779Y-57533000D01*
X54701221Y-56513000D02*
X55026779Y-56513000D01*
X54701221Y-59184000D02*
X55026779Y-59184000D01*
X54701221Y-58164000D02*
X55026779Y-58164000D01*
X54899779Y-73277000D02*
X54574221Y-73277000D01*
X54899779Y-74297000D02*
X54574221Y-74297000D01*
X54701221Y-60835000D02*
X55026779Y-60835000D01*
X54701221Y-59815000D02*
X55026779Y-59815000D01*
X54574221Y-66169000D02*
X54899779Y-66169000D01*
X54574221Y-65149000D02*
X54899779Y-65149000D01*
X53174000Y-56288000D02*
X50889000Y-56288000D01*
X53174000Y-57758000D02*
X53174000Y-56288000D01*
X50889000Y-57758000D02*
X53174000Y-57758000D01*
X53174000Y-57939000D02*
X50889000Y-57939000D01*
X53174000Y-59409000D02*
X53174000Y-57939000D01*
X50889000Y-59409000D02*
X53174000Y-59409000D01*
X84744779Y-85850000D02*
X84419221Y-85850000D01*
X84744779Y-86870000D02*
X84419221Y-86870000D01*
X84744779Y-83945000D02*
X84419221Y-83945000D01*
X84744779Y-84965000D02*
X84419221Y-84965000D01*
X54574221Y-75948000D02*
X54899779Y-75948000D01*
X54574221Y-74928000D02*
X54899779Y-74928000D01*
X81042000Y-111901000D02*
X80242000Y-111901000D01*
X81042000Y-107301000D02*
X80242000Y-107301000D01*
X80242000Y-111901000D02*
X80242000Y-111601000D01*
X80242000Y-107601000D02*
X80242000Y-107301000D01*
X83842000Y-107301000D02*
X83042000Y-107301000D01*
X83842000Y-107601000D02*
X83842000Y-107301000D01*
X83942000Y-111901000D02*
X83042000Y-111901000D01*
X75817000Y-115026221D02*
X75817000Y-115351779D01*
X76837000Y-115026221D02*
X76837000Y-115351779D01*
X77468000Y-111851221D02*
X77468000Y-112176779D01*
X78488000Y-111851221D02*
X78488000Y-112176779D01*
X79119000Y-115026221D02*
X79119000Y-115351779D01*
X80139000Y-115026221D02*
X80139000Y-115351779D01*
X85219000Y-115351779D02*
X85219000Y-115026221D01*
X84199000Y-115351779D02*
X84199000Y-115026221D01*
X86113000Y-113023000D02*
X86113000Y-110223000D01*
X96513000Y-113023000D02*
X86113000Y-113023000D01*
X96513000Y-110223000D02*
X96513000Y-113023000D01*
X86113000Y-102623000D02*
X86113000Y-105423000D01*
X96513000Y-102623000D02*
X86113000Y-102623000D01*
X96513000Y-105423000D02*
X96513000Y-102623000D01*
X77468000Y-115026221D02*
X77468000Y-115351779D01*
X78488000Y-115026221D02*
X78488000Y-115351779D01*
X83187000Y-104302779D02*
X83187000Y-103977221D01*
X82167000Y-104302779D02*
X82167000Y-103977221D01*
X84838000Y-104302779D02*
X84838000Y-103977221D01*
X83818000Y-104302779D02*
X83818000Y-103977221D01*
X82294000Y-115026221D02*
X82294000Y-115351779D01*
X83314000Y-115026221D02*
X83314000Y-115351779D01*
D13*
X71333333Y-111202380D02*
X70857142Y-111202380D01*
X70857142Y-110202380D01*
X71619047Y-110297619D02*
X71666666Y-110250000D01*
X71761904Y-110202380D01*
X72000000Y-110202380D01*
X72095238Y-110250000D01*
X72142857Y-110297619D01*
X72190476Y-110392857D01*
X72190476Y-110488095D01*
X72142857Y-110630952D01*
X71571428Y-111202380D01*
X72190476Y-111202380D01*
X66833333Y-106857142D02*
X66785714Y-106904761D01*
X66642857Y-106952380D01*
X66547619Y-106952380D01*
X66404761Y-106904761D01*
X66309523Y-106809523D01*
X66261904Y-106714285D01*
X66214285Y-106523809D01*
X66214285Y-106380952D01*
X66261904Y-106190476D01*
X66309523Y-106095238D01*
X66404761Y-106000000D01*
X66547619Y-105952380D01*
X66642857Y-105952380D01*
X66785714Y-106000000D01*
X66833333Y-106047619D01*
X67690476Y-105952380D02*
X67500000Y-105952380D01*
X67404761Y-106000000D01*
X67357142Y-106047619D01*
X67261904Y-106190476D01*
X67214285Y-106380952D01*
X67214285Y-106761904D01*
X67261904Y-106857142D01*
X67309523Y-106904761D01*
X67404761Y-106952380D01*
X67595238Y-106952380D01*
X67690476Y-106904761D01*
X67738095Y-106857142D01*
X67785714Y-106761904D01*
X67785714Y-106523809D01*
X67738095Y-106428571D01*
X67690476Y-106380952D01*
X67595238Y-106333333D01*
X67404761Y-106333333D01*
X67309523Y-106380952D01*
X67261904Y-106428571D01*
X67214285Y-106523809D01*
X93702142Y-119546666D02*
X93749761Y-119594285D01*
X93797380Y-119737142D01*
X93797380Y-119832380D01*
X93749761Y-119975238D01*
X93654523Y-120070476D01*
X93559285Y-120118095D01*
X93368809Y-120165714D01*
X93225952Y-120165714D01*
X93035476Y-120118095D01*
X92940238Y-120070476D01*
X92845000Y-119975238D01*
X92797380Y-119832380D01*
X92797380Y-119737142D01*
X92845000Y-119594285D01*
X92892619Y-119546666D01*
X92892619Y-119165714D02*
X92845000Y-119118095D01*
X92797380Y-119022857D01*
X92797380Y-118784761D01*
X92845000Y-118689523D01*
X92892619Y-118641904D01*
X92987857Y-118594285D01*
X93083095Y-118594285D01*
X93225952Y-118641904D01*
X93797380Y-119213333D01*
X93797380Y-118594285D01*
X74906142Y-104560666D02*
X74953761Y-104608285D01*
X75001380Y-104751142D01*
X75001380Y-104846380D01*
X74953761Y-104989238D01*
X74858523Y-105084476D01*
X74763285Y-105132095D01*
X74572809Y-105179714D01*
X74429952Y-105179714D01*
X74239476Y-105132095D01*
X74144238Y-105084476D01*
X74049000Y-104989238D01*
X74001380Y-104846380D01*
X74001380Y-104751142D01*
X74049000Y-104608285D01*
X74096619Y-104560666D01*
X74001380Y-103655904D02*
X74001380Y-104132095D01*
X74477571Y-104179714D01*
X74429952Y-104132095D01*
X74382333Y-104036857D01*
X74382333Y-103798761D01*
X74429952Y-103703523D01*
X74477571Y-103655904D01*
X74572809Y-103608285D01*
X74810904Y-103608285D01*
X74906142Y-103655904D01*
X74953761Y-103703523D01*
X75001380Y-103798761D01*
X75001380Y-104036857D01*
X74953761Y-104132095D01*
X74906142Y-104179714D01*
X77573142Y-104433666D02*
X77620761Y-104481285D01*
X77668380Y-104624142D01*
X77668380Y-104719380D01*
X77620761Y-104862238D01*
X77525523Y-104957476D01*
X77430285Y-105005095D01*
X77239809Y-105052714D01*
X77096952Y-105052714D01*
X76906476Y-105005095D01*
X76811238Y-104957476D01*
X76716000Y-104862238D01*
X76668380Y-104719380D01*
X76668380Y-104624142D01*
X76716000Y-104481285D01*
X76763619Y-104433666D01*
X77001714Y-103576523D02*
X77668380Y-103576523D01*
X76620761Y-103814619D02*
X77335047Y-104052714D01*
X77335047Y-103433666D01*
X96369142Y-119102166D02*
X96416761Y-119149785D01*
X96464380Y-119292642D01*
X96464380Y-119387880D01*
X96416761Y-119530738D01*
X96321523Y-119625976D01*
X96226285Y-119673595D01*
X96035809Y-119721214D01*
X95892952Y-119721214D01*
X95702476Y-119673595D01*
X95607238Y-119625976D01*
X95512000Y-119530738D01*
X95464380Y-119387880D01*
X95464380Y-119292642D01*
X95512000Y-119149785D01*
X95559619Y-119102166D01*
X95464380Y-118768833D02*
X95464380Y-118149785D01*
X95845333Y-118483119D01*
X95845333Y-118340261D01*
X95892952Y-118245023D01*
X95940571Y-118197404D01*
X96035809Y-118149785D01*
X96273904Y-118149785D01*
X96369142Y-118197404D01*
X96416761Y-118245023D01*
X96464380Y-118340261D01*
X96464380Y-118625976D01*
X96416761Y-118721214D01*
X96369142Y-118768833D01*
X103933666Y-112535571D02*
X103600333Y-112535571D01*
X103600333Y-113059380D02*
X103600333Y-112059380D01*
X104076523Y-112059380D01*
X104981285Y-113059380D02*
X104409857Y-113059380D01*
X104695571Y-113059380D02*
X104695571Y-112059380D01*
X104600333Y-112202238D01*
X104505095Y-112297476D01*
X104409857Y-112345095D01*
X76779380Y-118403666D02*
X76303190Y-118737000D01*
X76779380Y-118975095D02*
X75779380Y-118975095D01*
X75779380Y-118594142D01*
X75827000Y-118498904D01*
X75874619Y-118451285D01*
X75969857Y-118403666D01*
X76112714Y-118403666D01*
X76207952Y-118451285D01*
X76255571Y-118498904D01*
X76303190Y-118594142D01*
X76303190Y-118975095D01*
X75874619Y-118022714D02*
X75827000Y-117975095D01*
X75779380Y-117879857D01*
X75779380Y-117641761D01*
X75827000Y-117546523D01*
X75874619Y-117498904D01*
X75969857Y-117451285D01*
X76065095Y-117451285D01*
X76207952Y-117498904D01*
X76779380Y-118070333D01*
X76779380Y-117451285D01*
X61682380Y-94313333D02*
X62396666Y-94313333D01*
X62539523Y-94360952D01*
X62634761Y-94456190D01*
X62682380Y-94599047D01*
X62682380Y-94694285D01*
X62015714Y-93408571D02*
X62682380Y-93408571D01*
X61634761Y-93646666D02*
X62349047Y-93884761D01*
X62349047Y-93265714D01*
X90352642Y-90241380D02*
X90019309Y-89765190D01*
X89781214Y-90241380D02*
X89781214Y-89241380D01*
X90162166Y-89241380D01*
X90257404Y-89289000D01*
X90305023Y-89336619D01*
X90352642Y-89431857D01*
X90352642Y-89574714D01*
X90305023Y-89669952D01*
X90257404Y-89717571D01*
X90162166Y-89765190D01*
X89781214Y-89765190D01*
X90733595Y-89336619D02*
X90781214Y-89289000D01*
X90876452Y-89241380D01*
X91114547Y-89241380D01*
X91209785Y-89289000D01*
X91257404Y-89336619D01*
X91305023Y-89431857D01*
X91305023Y-89527095D01*
X91257404Y-89669952D01*
X90685976Y-90241380D01*
X91305023Y-90241380D01*
X91924071Y-89241380D02*
X92019309Y-89241380D01*
X92114547Y-89289000D01*
X92162166Y-89336619D01*
X92209785Y-89431857D01*
X92257404Y-89622333D01*
X92257404Y-89860428D01*
X92209785Y-90050904D01*
X92162166Y-90146142D01*
X92114547Y-90193761D01*
X92019309Y-90241380D01*
X91924071Y-90241380D01*
X91828833Y-90193761D01*
X91781214Y-90146142D01*
X91733595Y-90050904D01*
X91685976Y-89860428D01*
X91685976Y-89622333D01*
X91733595Y-89431857D01*
X91781214Y-89336619D01*
X91828833Y-89289000D01*
X91924071Y-89241380D01*
X100076095Y-89622380D02*
X100076095Y-90431904D01*
X100123714Y-90527142D01*
X100171333Y-90574761D01*
X100266571Y-90622380D01*
X100457047Y-90622380D01*
X100552285Y-90574761D01*
X100599904Y-90527142D01*
X100647523Y-90431904D01*
X100647523Y-89622380D01*
X101028476Y-89622380D02*
X101695142Y-89622380D01*
X101266571Y-90622380D01*
X105275142Y-80875142D02*
X105227523Y-80922761D01*
X105084666Y-80970380D01*
X104989428Y-80970380D01*
X104846571Y-80922761D01*
X104751333Y-80827523D01*
X104703714Y-80732285D01*
X104656095Y-80541809D01*
X104656095Y-80398952D01*
X104703714Y-80208476D01*
X104751333Y-80113238D01*
X104846571Y-80018000D01*
X104989428Y-79970380D01*
X105084666Y-79970380D01*
X105227523Y-80018000D01*
X105275142Y-80065619D01*
X106227523Y-80970380D02*
X105656095Y-80970380D01*
X105941809Y-80970380D02*
X105941809Y-79970380D01*
X105846571Y-80113238D01*
X105751333Y-80208476D01*
X105656095Y-80256095D01*
X106798952Y-80398952D02*
X106703714Y-80351333D01*
X106656095Y-80303714D01*
X106608476Y-80208476D01*
X106608476Y-80160857D01*
X106656095Y-80065619D01*
X106703714Y-80018000D01*
X106798952Y-79970380D01*
X106989428Y-79970380D01*
X107084666Y-80018000D01*
X107132285Y-80065619D01*
X107179904Y-80160857D01*
X107179904Y-80208476D01*
X107132285Y-80303714D01*
X107084666Y-80351333D01*
X106989428Y-80398952D01*
X106798952Y-80398952D01*
X106703714Y-80446571D01*
X106656095Y-80494190D01*
X106608476Y-80589428D01*
X106608476Y-80779904D01*
X106656095Y-80875142D01*
X106703714Y-80922761D01*
X106798952Y-80970380D01*
X106989428Y-80970380D01*
X107084666Y-80922761D01*
X107132285Y-80875142D01*
X107179904Y-80779904D01*
X107179904Y-80589428D01*
X107132285Y-80494190D01*
X107084666Y-80446571D01*
X106989428Y-80398952D01*
X105275142Y-90019142D02*
X105227523Y-90066761D01*
X105084666Y-90114380D01*
X104989428Y-90114380D01*
X104846571Y-90066761D01*
X104751333Y-89971523D01*
X104703714Y-89876285D01*
X104656095Y-89685809D01*
X104656095Y-89542952D01*
X104703714Y-89352476D01*
X104751333Y-89257238D01*
X104846571Y-89162000D01*
X104989428Y-89114380D01*
X105084666Y-89114380D01*
X105227523Y-89162000D01*
X105275142Y-89209619D01*
X105656095Y-89209619D02*
X105703714Y-89162000D01*
X105798952Y-89114380D01*
X106037047Y-89114380D01*
X106132285Y-89162000D01*
X106179904Y-89209619D01*
X106227523Y-89304857D01*
X106227523Y-89400095D01*
X106179904Y-89542952D01*
X105608476Y-90114380D01*
X106227523Y-90114380D01*
X107179904Y-90114380D02*
X106608476Y-90114380D01*
X106894190Y-90114380D02*
X106894190Y-89114380D01*
X106798952Y-89257238D01*
X106703714Y-89352476D01*
X106608476Y-89400095D01*
X66405166Y-131452380D02*
X66405166Y-132166666D01*
X66357547Y-132309523D01*
X66262309Y-132404761D01*
X66119452Y-132452380D01*
X66024214Y-132452380D01*
X67405166Y-132452380D02*
X66833738Y-132452380D01*
X67119452Y-132452380D02*
X67119452Y-131452380D01*
X67024214Y-131595238D01*
X66928976Y-131690476D01*
X66833738Y-131738095D01*
X79938642Y-132945142D02*
X79891023Y-132992761D01*
X79748166Y-133040380D01*
X79652928Y-133040380D01*
X79510071Y-132992761D01*
X79414833Y-132897523D01*
X79367214Y-132802285D01*
X79319595Y-132611809D01*
X79319595Y-132468952D01*
X79367214Y-132278476D01*
X79414833Y-132183238D01*
X79510071Y-132088000D01*
X79652928Y-132040380D01*
X79748166Y-132040380D01*
X79891023Y-132088000D01*
X79938642Y-132135619D01*
X80891023Y-133040380D02*
X80319595Y-133040380D01*
X80605309Y-133040380D02*
X80605309Y-132040380D01*
X80510071Y-132183238D01*
X80414833Y-132278476D01*
X80319595Y-132326095D01*
X81843404Y-133040380D02*
X81271976Y-133040380D01*
X81557690Y-133040380D02*
X81557690Y-132040380D01*
X81462452Y-132183238D01*
X81367214Y-132278476D01*
X81271976Y-132326095D01*
X50950904Y-55951380D02*
X50950904Y-54951380D01*
X51189000Y-54951380D01*
X51331857Y-54999000D01*
X51427095Y-55094238D01*
X51474714Y-55189476D01*
X51522333Y-55379952D01*
X51522333Y-55522809D01*
X51474714Y-55713285D01*
X51427095Y-55808523D01*
X51331857Y-55903761D01*
X51189000Y-55951380D01*
X50950904Y-55951380D01*
X52379476Y-55284714D02*
X52379476Y-55951380D01*
X52141380Y-54903761D02*
X51903285Y-55618047D01*
X52522333Y-55618047D01*
X50982666Y-69302380D02*
X50982666Y-70016666D01*
X50935047Y-70159523D01*
X50839809Y-70254761D01*
X50696952Y-70302380D01*
X50601714Y-70302380D01*
X51458857Y-70302380D02*
X51458857Y-69302380D01*
X51839809Y-69302380D01*
X51935047Y-69350000D01*
X51982666Y-69397619D01*
X52030285Y-69492857D01*
X52030285Y-69635714D01*
X51982666Y-69730952D01*
X51935047Y-69778571D01*
X51839809Y-69826190D01*
X51458857Y-69826190D01*
X52411238Y-69397619D02*
X52458857Y-69350000D01*
X52554095Y-69302380D01*
X52792190Y-69302380D01*
X52887428Y-69350000D01*
X52935047Y-69397619D01*
X52982666Y-69492857D01*
X52982666Y-69588095D01*
X52935047Y-69730952D01*
X52363619Y-70302380D01*
X52982666Y-70302380D01*
X74668142Y-57348380D02*
X74334809Y-56872190D01*
X74096714Y-57348380D02*
X74096714Y-56348380D01*
X74477666Y-56348380D01*
X74572904Y-56396000D01*
X74620523Y-56443619D01*
X74668142Y-56538857D01*
X74668142Y-56681714D01*
X74620523Y-56776952D01*
X74572904Y-56824571D01*
X74477666Y-56872190D01*
X74096714Y-56872190D01*
X75620523Y-57348380D02*
X75049095Y-57348380D01*
X75334809Y-57348380D02*
X75334809Y-56348380D01*
X75239571Y-56491238D01*
X75144333Y-56586476D01*
X75049095Y-56634095D01*
X75953857Y-56348380D02*
X76620523Y-56348380D01*
X76191952Y-57348380D01*
X74668142Y-61539380D02*
X74334809Y-61063190D01*
X74096714Y-61539380D02*
X74096714Y-60539380D01*
X74477666Y-60539380D01*
X74572904Y-60587000D01*
X74620523Y-60634619D01*
X74668142Y-60729857D01*
X74668142Y-60872714D01*
X74620523Y-60967952D01*
X74572904Y-61015571D01*
X74477666Y-61063190D01*
X74096714Y-61063190D01*
X75620523Y-61539380D02*
X75049095Y-61539380D01*
X75334809Y-61539380D02*
X75334809Y-60539380D01*
X75239571Y-60682238D01*
X75144333Y-60777476D01*
X75049095Y-60825095D01*
X76191952Y-60967952D02*
X76096714Y-60920333D01*
X76049095Y-60872714D01*
X76001476Y-60777476D01*
X76001476Y-60729857D01*
X76049095Y-60634619D01*
X76096714Y-60587000D01*
X76191952Y-60539380D01*
X76382428Y-60539380D01*
X76477666Y-60587000D01*
X76525285Y-60634619D01*
X76572904Y-60729857D01*
X76572904Y-60777476D01*
X76525285Y-60872714D01*
X76477666Y-60920333D01*
X76382428Y-60967952D01*
X76191952Y-60967952D01*
X76096714Y-61015571D01*
X76049095Y-61063190D01*
X76001476Y-61158428D01*
X76001476Y-61348904D01*
X76049095Y-61444142D01*
X76096714Y-61491761D01*
X76191952Y-61539380D01*
X76382428Y-61539380D01*
X76477666Y-61491761D01*
X76525285Y-61444142D01*
X76572904Y-61348904D01*
X76572904Y-61158428D01*
X76525285Y-61063190D01*
X76477666Y-61015571D01*
X76382428Y-60967952D01*
X59364666Y-79970380D02*
X59364666Y-80684666D01*
X59317047Y-80827523D01*
X59221809Y-80922761D01*
X59078952Y-80970380D01*
X58983714Y-80970380D01*
X59840857Y-80970380D02*
X59840857Y-79970380D01*
X60221809Y-79970380D01*
X60317047Y-80018000D01*
X60364666Y-80065619D01*
X60412285Y-80160857D01*
X60412285Y-80303714D01*
X60364666Y-80398952D01*
X60317047Y-80446571D01*
X60221809Y-80494190D01*
X59840857Y-80494190D01*
X61364666Y-80970380D02*
X60793238Y-80970380D01*
X61078952Y-80970380D02*
X61078952Y-79970380D01*
X60983714Y-80113238D01*
X60888476Y-80208476D01*
X60793238Y-80256095D01*
X64262095Y-77938380D02*
X64262095Y-78747904D01*
X64309714Y-78843142D01*
X64357333Y-78890761D01*
X64452571Y-78938380D01*
X64643047Y-78938380D01*
X64738285Y-78890761D01*
X64785904Y-78843142D01*
X64833523Y-78747904D01*
X64833523Y-77938380D01*
X65738285Y-77938380D02*
X65547809Y-77938380D01*
X65452571Y-77986000D01*
X65404952Y-78033619D01*
X65309714Y-78176476D01*
X65262095Y-78366952D01*
X65262095Y-78747904D01*
X65309714Y-78843142D01*
X65357333Y-78890761D01*
X65452571Y-78938380D01*
X65643047Y-78938380D01*
X65738285Y-78890761D01*
X65785904Y-78843142D01*
X65833523Y-78747904D01*
X65833523Y-78509809D01*
X65785904Y-78414571D01*
X65738285Y-78366952D01*
X65643047Y-78319333D01*
X65452571Y-78319333D01*
X65357333Y-78366952D01*
X65309714Y-78414571D01*
X65262095Y-78509809D01*
X92321142Y-78589142D02*
X92273523Y-78636761D01*
X92130666Y-78684380D01*
X92035428Y-78684380D01*
X91892571Y-78636761D01*
X91797333Y-78541523D01*
X91749714Y-78446285D01*
X91702095Y-78255809D01*
X91702095Y-78112952D01*
X91749714Y-77922476D01*
X91797333Y-77827238D01*
X91892571Y-77732000D01*
X92035428Y-77684380D01*
X92130666Y-77684380D01*
X92273523Y-77732000D01*
X92321142Y-77779619D01*
X93273523Y-78684380D02*
X92702095Y-78684380D01*
X92987809Y-78684380D02*
X92987809Y-77684380D01*
X92892571Y-77827238D01*
X92797333Y-77922476D01*
X92702095Y-77970095D01*
X94130666Y-77684380D02*
X93940190Y-77684380D01*
X93844952Y-77732000D01*
X93797333Y-77779619D01*
X93702095Y-77922476D01*
X93654476Y-78112952D01*
X93654476Y-78493904D01*
X93702095Y-78589142D01*
X93749714Y-78636761D01*
X93844952Y-78684380D01*
X94035428Y-78684380D01*
X94130666Y-78636761D01*
X94178285Y-78589142D01*
X94225904Y-78493904D01*
X94225904Y-78255809D01*
X94178285Y-78160571D01*
X94130666Y-78112952D01*
X94035428Y-78065333D01*
X93844952Y-78065333D01*
X93749714Y-78112952D01*
X93702095Y-78160571D01*
X93654476Y-78255809D01*
X95496142Y-93955142D02*
X95448523Y-94002761D01*
X95305666Y-94050380D01*
X95210428Y-94050380D01*
X95067571Y-94002761D01*
X94972333Y-93907523D01*
X94924714Y-93812285D01*
X94877095Y-93621809D01*
X94877095Y-93478952D01*
X94924714Y-93288476D01*
X94972333Y-93193238D01*
X95067571Y-93098000D01*
X95210428Y-93050380D01*
X95305666Y-93050380D01*
X95448523Y-93098000D01*
X95496142Y-93145619D01*
X96448523Y-94050380D02*
X95877095Y-94050380D01*
X96162809Y-94050380D02*
X96162809Y-93050380D01*
X96067571Y-93193238D01*
X95972333Y-93288476D01*
X95877095Y-93336095D01*
X97353285Y-93050380D02*
X96877095Y-93050380D01*
X96829476Y-93526571D01*
X96877095Y-93478952D01*
X96972333Y-93431333D01*
X97210428Y-93431333D01*
X97305666Y-93478952D01*
X97353285Y-93526571D01*
X97400904Y-93621809D01*
X97400904Y-93859904D01*
X97353285Y-93955142D01*
X97305666Y-94002761D01*
X97210428Y-94050380D01*
X96972333Y-94050380D01*
X96877095Y-94002761D01*
X96829476Y-93955142D01*
X86210380Y-65952666D02*
X85734190Y-66286000D01*
X86210380Y-66524095D02*
X85210380Y-66524095D01*
X85210380Y-66143142D01*
X85258000Y-66047904D01*
X85305619Y-66000285D01*
X85400857Y-65952666D01*
X85543714Y-65952666D01*
X85638952Y-66000285D01*
X85686571Y-66047904D01*
X85734190Y-66143142D01*
X85734190Y-66524095D01*
X86210380Y-65000285D02*
X86210380Y-65571714D01*
X86210380Y-65286000D02*
X85210380Y-65286000D01*
X85353238Y-65381238D01*
X85448476Y-65476476D01*
X85496095Y-65571714D01*
X90289142Y-91479642D02*
X90241523Y-91527261D01*
X90098666Y-91574880D01*
X90003428Y-91574880D01*
X89860571Y-91527261D01*
X89765333Y-91432023D01*
X89717714Y-91336785D01*
X89670095Y-91146309D01*
X89670095Y-91003452D01*
X89717714Y-90812976D01*
X89765333Y-90717738D01*
X89860571Y-90622500D01*
X90003428Y-90574880D01*
X90098666Y-90574880D01*
X90241523Y-90622500D01*
X90289142Y-90670119D01*
X90670095Y-90670119D02*
X90717714Y-90622500D01*
X90812952Y-90574880D01*
X91051047Y-90574880D01*
X91146285Y-90622500D01*
X91193904Y-90670119D01*
X91241523Y-90765357D01*
X91241523Y-90860595D01*
X91193904Y-91003452D01*
X90622476Y-91574880D01*
X91241523Y-91574880D01*
X92098666Y-90908214D02*
X92098666Y-91574880D01*
X91860571Y-90527261D02*
X91622476Y-91241547D01*
X92241523Y-91241547D01*
X102227142Y-78589142D02*
X102179523Y-78636761D01*
X102036666Y-78684380D01*
X101941428Y-78684380D01*
X101798571Y-78636761D01*
X101703333Y-78541523D01*
X101655714Y-78446285D01*
X101608095Y-78255809D01*
X101608095Y-78112952D01*
X101655714Y-77922476D01*
X101703333Y-77827238D01*
X101798571Y-77732000D01*
X101941428Y-77684380D01*
X102036666Y-77684380D01*
X102179523Y-77732000D01*
X102227142Y-77779619D01*
X103179523Y-78684380D02*
X102608095Y-78684380D01*
X102893809Y-78684380D02*
X102893809Y-77684380D01*
X102798571Y-77827238D01*
X102703333Y-77922476D01*
X102608095Y-77970095D01*
X104036666Y-78017714D02*
X104036666Y-78684380D01*
X103798571Y-77636761D02*
X103560476Y-78351047D01*
X104179523Y-78351047D01*
X99052142Y-93956142D02*
X99004523Y-94003761D01*
X98861666Y-94051380D01*
X98766428Y-94051380D01*
X98623571Y-94003761D01*
X98528333Y-93908523D01*
X98480714Y-93813285D01*
X98433095Y-93622809D01*
X98433095Y-93479952D01*
X98480714Y-93289476D01*
X98528333Y-93194238D01*
X98623571Y-93099000D01*
X98766428Y-93051380D01*
X98861666Y-93051380D01*
X99004523Y-93099000D01*
X99052142Y-93146619D01*
X100004523Y-94051380D02*
X99433095Y-94051380D01*
X99718809Y-94051380D02*
X99718809Y-93051380D01*
X99623571Y-93194238D01*
X99528333Y-93289476D01*
X99433095Y-93337095D01*
X100337857Y-93051380D02*
X100956904Y-93051380D01*
X100623571Y-93432333D01*
X100766428Y-93432333D01*
X100861666Y-93479952D01*
X100909285Y-93527571D01*
X100956904Y-93622809D01*
X100956904Y-93860904D01*
X100909285Y-93956142D01*
X100861666Y-94003761D01*
X100766428Y-94051380D01*
X100480714Y-94051380D01*
X100385476Y-94003761D01*
X100337857Y-93956142D01*
X105275142Y-87098142D02*
X105227523Y-87145761D01*
X105084666Y-87193380D01*
X104989428Y-87193380D01*
X104846571Y-87145761D01*
X104751333Y-87050523D01*
X104703714Y-86955285D01*
X104656095Y-86764809D01*
X104656095Y-86621952D01*
X104703714Y-86431476D01*
X104751333Y-86336238D01*
X104846571Y-86241000D01*
X104989428Y-86193380D01*
X105084666Y-86193380D01*
X105227523Y-86241000D01*
X105275142Y-86288619D01*
X105656095Y-86288619D02*
X105703714Y-86241000D01*
X105798952Y-86193380D01*
X106037047Y-86193380D01*
X106132285Y-86241000D01*
X106179904Y-86288619D01*
X106227523Y-86383857D01*
X106227523Y-86479095D01*
X106179904Y-86621952D01*
X105608476Y-87193380D01*
X106227523Y-87193380D01*
X106608476Y-86288619D02*
X106656095Y-86241000D01*
X106751333Y-86193380D01*
X106989428Y-86193380D01*
X107084666Y-86241000D01*
X107132285Y-86288619D01*
X107179904Y-86383857D01*
X107179904Y-86479095D01*
X107132285Y-86621952D01*
X106560857Y-87193380D01*
X107179904Y-87193380D01*
X105275142Y-83923142D02*
X105227523Y-83970761D01*
X105084666Y-84018380D01*
X104989428Y-84018380D01*
X104846571Y-83970761D01*
X104751333Y-83875523D01*
X104703714Y-83780285D01*
X104656095Y-83589809D01*
X104656095Y-83446952D01*
X104703714Y-83256476D01*
X104751333Y-83161238D01*
X104846571Y-83066000D01*
X104989428Y-83018380D01*
X105084666Y-83018380D01*
X105227523Y-83066000D01*
X105275142Y-83113619D01*
X105656095Y-83113619D02*
X105703714Y-83066000D01*
X105798952Y-83018380D01*
X106037047Y-83018380D01*
X106132285Y-83066000D01*
X106179904Y-83113619D01*
X106227523Y-83208857D01*
X106227523Y-83304095D01*
X106179904Y-83446952D01*
X105608476Y-84018380D01*
X106227523Y-84018380D01*
X106846571Y-83018380D02*
X106941809Y-83018380D01*
X107037047Y-83066000D01*
X107084666Y-83113619D01*
X107132285Y-83208857D01*
X107179904Y-83399333D01*
X107179904Y-83637428D01*
X107132285Y-83827904D01*
X107084666Y-83923142D01*
X107037047Y-83970761D01*
X106941809Y-84018380D01*
X106846571Y-84018380D01*
X106751333Y-83970761D01*
X106703714Y-83923142D01*
X106656095Y-83827904D01*
X106608476Y-83637428D01*
X106608476Y-83399333D01*
X106656095Y-83208857D01*
X106703714Y-83113619D01*
X106751333Y-83066000D01*
X106846571Y-83018380D01*
X97155095Y-72223380D02*
X97155095Y-73032904D01*
X97202714Y-73128142D01*
X97250333Y-73175761D01*
X97345571Y-73223380D01*
X97536047Y-73223380D01*
X97631285Y-73175761D01*
X97678904Y-73128142D01*
X97726523Y-73032904D01*
X97726523Y-72223380D01*
X98678904Y-72223380D02*
X98202714Y-72223380D01*
X98155095Y-72699571D01*
X98202714Y-72651952D01*
X98297952Y-72604333D01*
X98536047Y-72604333D01*
X98631285Y-72651952D01*
X98678904Y-72699571D01*
X98726523Y-72794809D01*
X98726523Y-73032904D01*
X98678904Y-73128142D01*
X98631285Y-73175761D01*
X98536047Y-73223380D01*
X98297952Y-73223380D01*
X98202714Y-73175761D01*
X98155095Y-73128142D01*
X73925142Y-100466666D02*
X73972761Y-100514285D01*
X74020380Y-100657142D01*
X74020380Y-100752380D01*
X73972761Y-100895238D01*
X73877523Y-100990476D01*
X73782285Y-101038095D01*
X73591809Y-101085714D01*
X73448952Y-101085714D01*
X73258476Y-101038095D01*
X73163238Y-100990476D01*
X73068000Y-100895238D01*
X73020380Y-100752380D01*
X73020380Y-100657142D01*
X73068000Y-100514285D01*
X73115619Y-100466666D01*
X73020380Y-100133333D02*
X73020380Y-99466666D01*
X74020380Y-99895238D01*
X103703380Y-130087666D02*
X103227190Y-130421000D01*
X103703380Y-130659095D02*
X102703380Y-130659095D01*
X102703380Y-130278142D01*
X102751000Y-130182904D01*
X102798619Y-130135285D01*
X102893857Y-130087666D01*
X103036714Y-130087666D01*
X103131952Y-130135285D01*
X103179571Y-130182904D01*
X103227190Y-130278142D01*
X103227190Y-130659095D01*
X102703380Y-129754333D02*
X102703380Y-129087666D01*
X103703380Y-129516238D01*
X114270380Y-128142904D02*
X115079904Y-128142904D01*
X115175142Y-128095285D01*
X115222761Y-128047666D01*
X115270380Y-127952428D01*
X115270380Y-127761952D01*
X115222761Y-127666714D01*
X115175142Y-127619095D01*
X115079904Y-127571476D01*
X114270380Y-127571476D01*
X114603714Y-126666714D02*
X115270380Y-126666714D01*
X114222761Y-126904809D02*
X114937047Y-127142904D01*
X114937047Y-126523857D01*
X105878380Y-93170333D02*
X106592666Y-93170333D01*
X106735523Y-93217952D01*
X106830761Y-93313190D01*
X106878380Y-93456047D01*
X106878380Y-93551285D01*
X105878380Y-92217952D02*
X105878380Y-92694142D01*
X106354571Y-92741761D01*
X106306952Y-92694142D01*
X106259333Y-92598904D01*
X106259333Y-92360809D01*
X106306952Y-92265571D01*
X106354571Y-92217952D01*
X106449809Y-92170333D01*
X106687904Y-92170333D01*
X106783142Y-92217952D01*
X106830761Y-92265571D01*
X106878380Y-92360809D01*
X106878380Y-92598904D01*
X106830761Y-92694142D01*
X106783142Y-92741761D01*
X105878380Y-77676333D02*
X106592666Y-77676333D01*
X106735523Y-77723952D01*
X106830761Y-77819190D01*
X106878380Y-77962047D01*
X106878380Y-78057285D01*
X105878380Y-77295380D02*
X105878380Y-76676333D01*
X106259333Y-77009666D01*
X106259333Y-76866809D01*
X106306952Y-76771571D01*
X106354571Y-76723952D01*
X106449809Y-76676333D01*
X106687904Y-76676333D01*
X106783142Y-76723952D01*
X106830761Y-76771571D01*
X106878380Y-76866809D01*
X106878380Y-77152523D01*
X106830761Y-77247761D01*
X106783142Y-77295380D01*
X78255833Y-126372880D02*
X77922500Y-125896690D01*
X77684404Y-126372880D02*
X77684404Y-125372880D01*
X78065357Y-125372880D01*
X78160595Y-125420500D01*
X78208214Y-125468119D01*
X78255833Y-125563357D01*
X78255833Y-125706214D01*
X78208214Y-125801452D01*
X78160595Y-125849071D01*
X78065357Y-125896690D01*
X77684404Y-125896690D01*
X78827261Y-125801452D02*
X78732023Y-125753833D01*
X78684404Y-125706214D01*
X78636785Y-125610976D01*
X78636785Y-125563357D01*
X78684404Y-125468119D01*
X78732023Y-125420500D01*
X78827261Y-125372880D01*
X79017738Y-125372880D01*
X79112976Y-125420500D01*
X79160595Y-125468119D01*
X79208214Y-125563357D01*
X79208214Y-125610976D01*
X79160595Y-125706214D01*
X79112976Y-125753833D01*
X79017738Y-125801452D01*
X78827261Y-125801452D01*
X78732023Y-125849071D01*
X78684404Y-125896690D01*
X78636785Y-125991928D01*
X78636785Y-126182404D01*
X78684404Y-126277642D01*
X78732023Y-126325261D01*
X78827261Y-126372880D01*
X79017738Y-126372880D01*
X79112976Y-126325261D01*
X79160595Y-126277642D01*
X79208214Y-126182404D01*
X79208214Y-125991928D01*
X79160595Y-125896690D01*
X79112976Y-125849071D01*
X79017738Y-125801452D01*
X88209380Y-59269238D02*
X87733190Y-59602571D01*
X88209380Y-59840666D02*
X87209380Y-59840666D01*
X87209380Y-59459714D01*
X87257000Y-59364476D01*
X87304619Y-59316857D01*
X87399857Y-59269238D01*
X87542714Y-59269238D01*
X87637952Y-59316857D01*
X87685571Y-59364476D01*
X87733190Y-59459714D01*
X87733190Y-59840666D01*
X87209380Y-58983523D02*
X88209380Y-58650190D01*
X87209380Y-58316857D01*
X88209380Y-57459714D02*
X88209380Y-58031142D01*
X88209380Y-57745428D02*
X87209380Y-57745428D01*
X87352238Y-57840666D01*
X87447476Y-57935904D01*
X87495095Y-58031142D01*
X105259142Y-130563857D02*
X105306761Y-130611476D01*
X105354380Y-130754333D01*
X105354380Y-130849571D01*
X105306761Y-130992428D01*
X105211523Y-131087666D01*
X105116285Y-131135285D01*
X104925809Y-131182904D01*
X104782952Y-131182904D01*
X104592476Y-131135285D01*
X104497238Y-131087666D01*
X104402000Y-130992428D01*
X104354380Y-130849571D01*
X104354380Y-130754333D01*
X104402000Y-130611476D01*
X104449619Y-130563857D01*
X105354380Y-129611476D02*
X105354380Y-130182904D01*
X105354380Y-129897190D02*
X104354380Y-129897190D01*
X104497238Y-129992428D01*
X104592476Y-130087666D01*
X104640095Y-130182904D01*
X104449619Y-129230523D02*
X104402000Y-129182904D01*
X104354380Y-129087666D01*
X104354380Y-128849571D01*
X104402000Y-128754333D01*
X104449619Y-128706714D01*
X104544857Y-128659095D01*
X104640095Y-128659095D01*
X104782952Y-128706714D01*
X105354380Y-129278142D01*
X105354380Y-128659095D01*
X107061095Y-124293380D02*
X107061095Y-125102904D01*
X107108714Y-125198142D01*
X107156333Y-125245761D01*
X107251571Y-125293380D01*
X107442047Y-125293380D01*
X107537285Y-125245761D01*
X107584904Y-125198142D01*
X107632523Y-125102904D01*
X107632523Y-124293380D01*
X108013476Y-124293380D02*
X108632523Y-124293380D01*
X108299190Y-124674333D01*
X108442047Y-124674333D01*
X108537285Y-124721952D01*
X108584904Y-124769571D01*
X108632523Y-124864809D01*
X108632523Y-125102904D01*
X108584904Y-125198142D01*
X108537285Y-125245761D01*
X108442047Y-125293380D01*
X108156333Y-125293380D01*
X108061095Y-125245761D01*
X108013476Y-125198142D01*
X107180142Y-132151380D02*
X106846809Y-131675190D01*
X106608714Y-132151380D02*
X106608714Y-131151380D01*
X106989666Y-131151380D01*
X107084904Y-131199000D01*
X107132523Y-131246619D01*
X107180142Y-131341857D01*
X107180142Y-131484714D01*
X107132523Y-131579952D01*
X107084904Y-131627571D01*
X106989666Y-131675190D01*
X106608714Y-131675190D01*
X108132523Y-132151380D02*
X107561095Y-132151380D01*
X107846809Y-132151380D02*
X107846809Y-131151380D01*
X107751571Y-131294238D01*
X107656333Y-131389476D01*
X107561095Y-131437095D01*
X109084904Y-132151380D02*
X108513476Y-132151380D01*
X108799190Y-132151380D02*
X108799190Y-131151380D01*
X108703952Y-131294238D01*
X108608714Y-131389476D01*
X108513476Y-131437095D01*
X105878380Y-111712333D02*
X106592666Y-111712333D01*
X106735523Y-111759952D01*
X106830761Y-111855190D01*
X106878380Y-111998047D01*
X106878380Y-112093285D01*
X105973619Y-111283761D02*
X105926000Y-111236142D01*
X105878380Y-111140904D01*
X105878380Y-110902809D01*
X105926000Y-110807571D01*
X105973619Y-110759952D01*
X106068857Y-110712333D01*
X106164095Y-110712333D01*
X106306952Y-110759952D01*
X106878380Y-111331380D01*
X106878380Y-110712333D01*
X85344095Y-130389380D02*
X85344095Y-131198904D01*
X85391714Y-131294142D01*
X85439333Y-131341761D01*
X85534571Y-131389380D01*
X85725047Y-131389380D01*
X85820285Y-131341761D01*
X85867904Y-131294142D01*
X85915523Y-131198904D01*
X85915523Y-130389380D01*
X86344095Y-130484619D02*
X86391714Y-130437000D01*
X86486952Y-130389380D01*
X86725047Y-130389380D01*
X86820285Y-130437000D01*
X86867904Y-130484619D01*
X86915523Y-130579857D01*
X86915523Y-130675095D01*
X86867904Y-130817952D01*
X86296476Y-131389380D01*
X86915523Y-131389380D01*
X94638904Y-130182880D02*
X94638904Y-129182880D01*
X94877000Y-129182880D01*
X95019857Y-129230500D01*
X95115095Y-129325738D01*
X95162714Y-129420976D01*
X95210333Y-129611452D01*
X95210333Y-129754309D01*
X95162714Y-129944785D01*
X95115095Y-130040023D01*
X95019857Y-130135261D01*
X94877000Y-130182880D01*
X94638904Y-130182880D01*
X95591285Y-129278119D02*
X95638904Y-129230500D01*
X95734142Y-129182880D01*
X95972238Y-129182880D01*
X96067476Y-129230500D01*
X96115095Y-129278119D01*
X96162714Y-129373357D01*
X96162714Y-129468595D01*
X96115095Y-129611452D01*
X95543666Y-130182880D01*
X96162714Y-130182880D01*
X91559142Y-125610880D02*
X91225809Y-125134690D01*
X90987714Y-125610880D02*
X90987714Y-124610880D01*
X91368666Y-124610880D01*
X91463904Y-124658500D01*
X91511523Y-124706119D01*
X91559142Y-124801357D01*
X91559142Y-124944214D01*
X91511523Y-125039452D01*
X91463904Y-125087071D01*
X91368666Y-125134690D01*
X90987714Y-125134690D01*
X92511523Y-125610880D02*
X91940095Y-125610880D01*
X92225809Y-125610880D02*
X92225809Y-124610880D01*
X92130571Y-124753738D01*
X92035333Y-124848976D01*
X91940095Y-124896595D01*
X93130571Y-124610880D02*
X93225809Y-124610880D01*
X93321047Y-124658500D01*
X93368666Y-124706119D01*
X93416285Y-124801357D01*
X93463904Y-124991833D01*
X93463904Y-125229928D01*
X93416285Y-125420404D01*
X93368666Y-125515642D01*
X93321047Y-125563261D01*
X93225809Y-125610880D01*
X93130571Y-125610880D01*
X93035333Y-125563261D01*
X92987714Y-125515642D01*
X92940095Y-125420404D01*
X92892476Y-125229928D01*
X92892476Y-124991833D01*
X92940095Y-124801357D01*
X92987714Y-124706119D01*
X93035333Y-124658500D01*
X93130571Y-124610880D01*
X92035333Y-130182880D02*
X91702000Y-129706690D01*
X91463904Y-130182880D02*
X91463904Y-129182880D01*
X91844857Y-129182880D01*
X91940095Y-129230500D01*
X91987714Y-129278119D01*
X92035333Y-129373357D01*
X92035333Y-129516214D01*
X91987714Y-129611452D01*
X91940095Y-129659071D01*
X91844857Y-129706690D01*
X91463904Y-129706690D01*
X92511523Y-130182880D02*
X92702000Y-130182880D01*
X92797238Y-130135261D01*
X92844857Y-130087642D01*
X92940095Y-129944785D01*
X92987714Y-129754309D01*
X92987714Y-129373357D01*
X92940095Y-129278119D01*
X92892476Y-129230500D01*
X92797238Y-129182880D01*
X92606761Y-129182880D01*
X92511523Y-129230500D01*
X92463904Y-129278119D01*
X92416285Y-129373357D01*
X92416285Y-129611452D01*
X92463904Y-129706690D01*
X92511523Y-129754309D01*
X92606761Y-129801928D01*
X92797238Y-129801928D01*
X92892476Y-129754309D01*
X92940095Y-129706690D01*
X92987714Y-129611452D01*
X94638904Y-125577880D02*
X94638904Y-124577880D01*
X94877000Y-124577880D01*
X95019857Y-124625500D01*
X95115095Y-124720738D01*
X95162714Y-124815976D01*
X95210333Y-125006452D01*
X95210333Y-125149309D01*
X95162714Y-125339785D01*
X95115095Y-125435023D01*
X95019857Y-125530261D01*
X94877000Y-125577880D01*
X94638904Y-125577880D01*
X95543666Y-124577880D02*
X96162714Y-124577880D01*
X95829380Y-124958833D01*
X95972238Y-124958833D01*
X96067476Y-125006452D01*
X96115095Y-125054071D01*
X96162714Y-125149309D01*
X96162714Y-125387404D01*
X96115095Y-125482642D01*
X96067476Y-125530261D01*
X95972238Y-125577880D01*
X95686523Y-125577880D01*
X95591285Y-125530261D01*
X95543666Y-125482642D01*
X90289142Y-83510380D02*
X89955809Y-83034190D01*
X89717714Y-83510380D02*
X89717714Y-82510380D01*
X90098666Y-82510380D01*
X90193904Y-82558000D01*
X90241523Y-82605619D01*
X90289142Y-82700857D01*
X90289142Y-82843714D01*
X90241523Y-82938952D01*
X90193904Y-82986571D01*
X90098666Y-83034190D01*
X89717714Y-83034190D01*
X91241523Y-83510380D02*
X90670095Y-83510380D01*
X90955809Y-83510380D02*
X90955809Y-82510380D01*
X90860571Y-82653238D01*
X90765333Y-82748476D01*
X90670095Y-82796095D01*
X92098666Y-82510380D02*
X91908190Y-82510380D01*
X91812952Y-82558000D01*
X91765333Y-82605619D01*
X91670095Y-82748476D01*
X91622476Y-82938952D01*
X91622476Y-83319904D01*
X91670095Y-83415142D01*
X91717714Y-83462761D01*
X91812952Y-83510380D01*
X92003428Y-83510380D01*
X92098666Y-83462761D01*
X92146285Y-83415142D01*
X92193904Y-83319904D01*
X92193904Y-83081809D01*
X92146285Y-82986571D01*
X92098666Y-82938952D01*
X92003428Y-82891333D01*
X91812952Y-82891333D01*
X91717714Y-82938952D01*
X91670095Y-82986571D01*
X91622476Y-83081809D01*
X87114142Y-88242380D02*
X86780809Y-87766190D01*
X86542714Y-88242380D02*
X86542714Y-87242380D01*
X86923666Y-87242380D01*
X87018904Y-87290000D01*
X87066523Y-87337619D01*
X87114142Y-87432857D01*
X87114142Y-87575714D01*
X87066523Y-87670952D01*
X87018904Y-87718571D01*
X86923666Y-87766190D01*
X86542714Y-87766190D01*
X88066523Y-88242380D02*
X87495095Y-88242380D01*
X87780809Y-88242380D02*
X87780809Y-87242380D01*
X87685571Y-87385238D01*
X87590333Y-87480476D01*
X87495095Y-87528095D01*
X88542714Y-88242380D02*
X88733190Y-88242380D01*
X88828428Y-88194761D01*
X88876047Y-88147142D01*
X88971285Y-88004285D01*
X89018904Y-87813809D01*
X89018904Y-87432857D01*
X88971285Y-87337619D01*
X88923666Y-87290000D01*
X88828428Y-87242380D01*
X88637952Y-87242380D01*
X88542714Y-87290000D01*
X88495095Y-87337619D01*
X88447476Y-87432857D01*
X88447476Y-87670952D01*
X88495095Y-87766190D01*
X88542714Y-87813809D01*
X88637952Y-87861428D01*
X88828428Y-87861428D01*
X88923666Y-87813809D01*
X88971285Y-87766190D01*
X89018904Y-87670952D01*
X87114142Y-83510380D02*
X86780809Y-83034190D01*
X86542714Y-83510380D02*
X86542714Y-82510380D01*
X86923666Y-82510380D01*
X87018904Y-82558000D01*
X87066523Y-82605619D01*
X87114142Y-82700857D01*
X87114142Y-82843714D01*
X87066523Y-82938952D01*
X87018904Y-82986571D01*
X86923666Y-83034190D01*
X86542714Y-83034190D01*
X88066523Y-83510380D02*
X87495095Y-83510380D01*
X87780809Y-83510380D02*
X87780809Y-82510380D01*
X87685571Y-82653238D01*
X87590333Y-82748476D01*
X87495095Y-82796095D01*
X88971285Y-82510380D02*
X88495095Y-82510380D01*
X88447476Y-82986571D01*
X88495095Y-82938952D01*
X88590333Y-82891333D01*
X88828428Y-82891333D01*
X88923666Y-82938952D01*
X88971285Y-82986571D01*
X89018904Y-83081809D01*
X89018904Y-83319904D01*
X88971285Y-83415142D01*
X88923666Y-83462761D01*
X88828428Y-83510380D01*
X88590333Y-83510380D01*
X88495095Y-83462761D01*
X88447476Y-83415142D01*
X54221142Y-53411380D02*
X53887809Y-52935190D01*
X53649714Y-53411380D02*
X53649714Y-52411380D01*
X54030666Y-52411380D01*
X54125904Y-52459000D01*
X54173523Y-52506619D01*
X54221142Y-52601857D01*
X54221142Y-52744714D01*
X54173523Y-52839952D01*
X54125904Y-52887571D01*
X54030666Y-52935190D01*
X53649714Y-52935190D01*
X55173523Y-53411380D02*
X54602095Y-53411380D01*
X54887809Y-53411380D02*
X54887809Y-52411380D01*
X54792571Y-52554238D01*
X54697333Y-52649476D01*
X54602095Y-52697095D01*
X56030666Y-52744714D02*
X56030666Y-53411380D01*
X55792571Y-52363761D02*
X55554476Y-53078047D01*
X56173523Y-53078047D01*
X54221142Y-54681380D02*
X53887809Y-54205190D01*
X53649714Y-54681380D02*
X53649714Y-53681380D01*
X54030666Y-53681380D01*
X54125904Y-53729000D01*
X54173523Y-53776619D01*
X54221142Y-53871857D01*
X54221142Y-54014714D01*
X54173523Y-54109952D01*
X54125904Y-54157571D01*
X54030666Y-54205190D01*
X53649714Y-54205190D01*
X55173523Y-54681380D02*
X54602095Y-54681380D01*
X54887809Y-54681380D02*
X54887809Y-53681380D01*
X54792571Y-53824238D01*
X54697333Y-53919476D01*
X54602095Y-53967095D01*
X55506857Y-53681380D02*
X56125904Y-53681380D01*
X55792571Y-54062333D01*
X55935428Y-54062333D01*
X56030666Y-54109952D01*
X56078285Y-54157571D01*
X56125904Y-54252809D01*
X56125904Y-54490904D01*
X56078285Y-54586142D01*
X56030666Y-54633761D01*
X55935428Y-54681380D01*
X55649714Y-54681380D01*
X55554476Y-54633761D01*
X55506857Y-54586142D01*
X51300142Y-74239380D02*
X50966809Y-73763190D01*
X50728714Y-74239380D02*
X50728714Y-73239380D01*
X51109666Y-73239380D01*
X51204904Y-73287000D01*
X51252523Y-73334619D01*
X51300142Y-73429857D01*
X51300142Y-73572714D01*
X51252523Y-73667952D01*
X51204904Y-73715571D01*
X51109666Y-73763190D01*
X50728714Y-73763190D01*
X51681095Y-73334619D02*
X51728714Y-73287000D01*
X51823952Y-73239380D01*
X52062047Y-73239380D01*
X52157285Y-73287000D01*
X52204904Y-73334619D01*
X52252523Y-73429857D01*
X52252523Y-73525095D01*
X52204904Y-73667952D01*
X51633476Y-74239380D01*
X52252523Y-74239380D01*
X52633476Y-73334619D02*
X52681095Y-73287000D01*
X52776333Y-73239380D01*
X53014428Y-73239380D01*
X53109666Y-73287000D01*
X53157285Y-73334619D01*
X53204904Y-73429857D01*
X53204904Y-73525095D01*
X53157285Y-73667952D01*
X52585857Y-74239380D01*
X53204904Y-74239380D01*
X54221142Y-55951380D02*
X53887809Y-55475190D01*
X53649714Y-55951380D02*
X53649714Y-54951380D01*
X54030666Y-54951380D01*
X54125904Y-54999000D01*
X54173523Y-55046619D01*
X54221142Y-55141857D01*
X54221142Y-55284714D01*
X54173523Y-55379952D01*
X54125904Y-55427571D01*
X54030666Y-55475190D01*
X53649714Y-55475190D01*
X55173523Y-55951380D02*
X54602095Y-55951380D01*
X54887809Y-55951380D02*
X54887809Y-54951380D01*
X54792571Y-55094238D01*
X54697333Y-55189476D01*
X54602095Y-55237095D01*
X55554476Y-55046619D02*
X55602095Y-54999000D01*
X55697333Y-54951380D01*
X55935428Y-54951380D01*
X56030666Y-54999000D01*
X56078285Y-55046619D01*
X56125904Y-55141857D01*
X56125904Y-55237095D01*
X56078285Y-55379952D01*
X55506857Y-55951380D01*
X56125904Y-55951380D01*
X54094142Y-64841380D02*
X53760809Y-64365190D01*
X53522714Y-64841380D02*
X53522714Y-63841380D01*
X53903666Y-63841380D01*
X53998904Y-63889000D01*
X54046523Y-63936619D01*
X54094142Y-64031857D01*
X54094142Y-64174714D01*
X54046523Y-64269952D01*
X53998904Y-64317571D01*
X53903666Y-64365190D01*
X53522714Y-64365190D01*
X54475095Y-63936619D02*
X54522714Y-63889000D01*
X54617952Y-63841380D01*
X54856047Y-63841380D01*
X54951285Y-63889000D01*
X54998904Y-63936619D01*
X55046523Y-64031857D01*
X55046523Y-64127095D01*
X54998904Y-64269952D01*
X54427476Y-64841380D01*
X55046523Y-64841380D01*
X55998904Y-64841380D02*
X55427476Y-64841380D01*
X55713190Y-64841380D02*
X55713190Y-63841380D01*
X55617952Y-63984238D01*
X55522714Y-64079476D01*
X55427476Y-64127095D01*
X50950904Y-53411380D02*
X50950904Y-52411380D01*
X51189000Y-52411380D01*
X51331857Y-52459000D01*
X51427095Y-52554238D01*
X51474714Y-52649476D01*
X51522333Y-52839952D01*
X51522333Y-52982809D01*
X51474714Y-53173285D01*
X51427095Y-53268523D01*
X51331857Y-53363761D01*
X51189000Y-53411380D01*
X50950904Y-53411380D01*
X52379476Y-52411380D02*
X52189000Y-52411380D01*
X52093761Y-52459000D01*
X52046142Y-52506619D01*
X51950904Y-52649476D01*
X51903285Y-52839952D01*
X51903285Y-53220904D01*
X51950904Y-53316142D01*
X51998523Y-53363761D01*
X52093761Y-53411380D01*
X52284238Y-53411380D01*
X52379476Y-53363761D01*
X52427095Y-53316142D01*
X52474714Y-53220904D01*
X52474714Y-52982809D01*
X52427095Y-52887571D01*
X52379476Y-52839952D01*
X52284238Y-52792333D01*
X52093761Y-52792333D01*
X51998523Y-52839952D01*
X51950904Y-52887571D01*
X51903285Y-52982809D01*
X50950904Y-54681380D02*
X50950904Y-53681380D01*
X51189000Y-53681380D01*
X51331857Y-53729000D01*
X51427095Y-53824238D01*
X51474714Y-53919476D01*
X51522333Y-54109952D01*
X51522333Y-54252809D01*
X51474714Y-54443285D01*
X51427095Y-54538523D01*
X51331857Y-54633761D01*
X51189000Y-54681380D01*
X50950904Y-54681380D01*
X52427095Y-53681380D02*
X51950904Y-53681380D01*
X51903285Y-54157571D01*
X51950904Y-54109952D01*
X52046142Y-54062333D01*
X52284238Y-54062333D01*
X52379476Y-54109952D01*
X52427095Y-54157571D01*
X52474714Y-54252809D01*
X52474714Y-54490904D01*
X52427095Y-54586142D01*
X52379476Y-54633761D01*
X52284238Y-54681380D01*
X52046142Y-54681380D01*
X51950904Y-54633761D01*
X51903285Y-54586142D01*
X83939142Y-88147142D02*
X83891523Y-88194761D01*
X83748666Y-88242380D01*
X83653428Y-88242380D01*
X83510571Y-88194761D01*
X83415333Y-88099523D01*
X83367714Y-88004285D01*
X83320095Y-87813809D01*
X83320095Y-87670952D01*
X83367714Y-87480476D01*
X83415333Y-87385238D01*
X83510571Y-87290000D01*
X83653428Y-87242380D01*
X83748666Y-87242380D01*
X83891523Y-87290000D01*
X83939142Y-87337619D01*
X84891523Y-88242380D02*
X84320095Y-88242380D01*
X84605809Y-88242380D02*
X84605809Y-87242380D01*
X84510571Y-87385238D01*
X84415333Y-87480476D01*
X84320095Y-87528095D01*
X85367714Y-88242380D02*
X85558190Y-88242380D01*
X85653428Y-88194761D01*
X85701047Y-88147142D01*
X85796285Y-88004285D01*
X85843904Y-87813809D01*
X85843904Y-87432857D01*
X85796285Y-87337619D01*
X85748666Y-87290000D01*
X85653428Y-87242380D01*
X85462952Y-87242380D01*
X85367714Y-87290000D01*
X85320095Y-87337619D01*
X85272476Y-87432857D01*
X85272476Y-87670952D01*
X85320095Y-87766190D01*
X85367714Y-87813809D01*
X85462952Y-87861428D01*
X85653428Y-87861428D01*
X85748666Y-87813809D01*
X85796285Y-87766190D01*
X85843904Y-87670952D01*
X83913642Y-83415142D02*
X83866023Y-83462761D01*
X83723166Y-83510380D01*
X83627928Y-83510380D01*
X83485071Y-83462761D01*
X83389833Y-83367523D01*
X83342214Y-83272285D01*
X83294595Y-83081809D01*
X83294595Y-82938952D01*
X83342214Y-82748476D01*
X83389833Y-82653238D01*
X83485071Y-82558000D01*
X83627928Y-82510380D01*
X83723166Y-82510380D01*
X83866023Y-82558000D01*
X83913642Y-82605619D01*
X84866023Y-83510380D02*
X84294595Y-83510380D01*
X84580309Y-83510380D02*
X84580309Y-82510380D01*
X84485071Y-82653238D01*
X84389833Y-82748476D01*
X84294595Y-82796095D01*
X85199357Y-82510380D02*
X85866023Y-82510380D01*
X85437452Y-83510380D01*
X51300142Y-75795142D02*
X51252523Y-75842761D01*
X51109666Y-75890380D01*
X51014428Y-75890380D01*
X50871571Y-75842761D01*
X50776333Y-75747523D01*
X50728714Y-75652285D01*
X50681095Y-75461809D01*
X50681095Y-75318952D01*
X50728714Y-75128476D01*
X50776333Y-75033238D01*
X50871571Y-74938000D01*
X51014428Y-74890380D01*
X51109666Y-74890380D01*
X51252523Y-74938000D01*
X51300142Y-74985619D01*
X51681095Y-74985619D02*
X51728714Y-74938000D01*
X51823952Y-74890380D01*
X52062047Y-74890380D01*
X52157285Y-74938000D01*
X52204904Y-74985619D01*
X52252523Y-75080857D01*
X52252523Y-75176095D01*
X52204904Y-75318952D01*
X51633476Y-75890380D01*
X52252523Y-75890380D01*
X52585857Y-74890380D02*
X53204904Y-74890380D01*
X52871571Y-75271333D01*
X53014428Y-75271333D01*
X53109666Y-75318952D01*
X53157285Y-75366571D01*
X53204904Y-75461809D01*
X53204904Y-75699904D01*
X53157285Y-75795142D01*
X53109666Y-75842761D01*
X53014428Y-75890380D01*
X52728714Y-75890380D01*
X52633476Y-75842761D01*
X52585857Y-75795142D01*
X80391095Y-112736380D02*
X80391095Y-113545904D01*
X80438714Y-113641142D01*
X80486333Y-113688761D01*
X80581571Y-113736380D01*
X80772047Y-113736380D01*
X80867285Y-113688761D01*
X80914904Y-113641142D01*
X80962523Y-113545904D01*
X80962523Y-112736380D01*
X81962523Y-113736380D02*
X81391095Y-113736380D01*
X81676809Y-113736380D02*
X81676809Y-112736380D01*
X81581571Y-112879238D01*
X81486333Y-112974476D01*
X81391095Y-113022095D01*
X76779380Y-120562666D02*
X76303190Y-120896000D01*
X76779380Y-121134095D02*
X75779380Y-121134095D01*
X75779380Y-120753142D01*
X75827000Y-120657904D01*
X75874619Y-120610285D01*
X75969857Y-120562666D01*
X76112714Y-120562666D01*
X76207952Y-120610285D01*
X76255571Y-120657904D01*
X76303190Y-120753142D01*
X76303190Y-121134095D01*
X75779380Y-119657904D02*
X75779380Y-120134095D01*
X76255571Y-120181714D01*
X76207952Y-120134095D01*
X76160333Y-120038857D01*
X76160333Y-119800761D01*
X76207952Y-119705523D01*
X76255571Y-119657904D01*
X76350809Y-119610285D01*
X76588904Y-119610285D01*
X76684142Y-119657904D01*
X76731761Y-119705523D01*
X76779380Y-119800761D01*
X76779380Y-120038857D01*
X76731761Y-120134095D01*
X76684142Y-120181714D01*
X78430380Y-118403666D02*
X77954190Y-118737000D01*
X78430380Y-118975095D02*
X77430380Y-118975095D01*
X77430380Y-118594142D01*
X77478000Y-118498904D01*
X77525619Y-118451285D01*
X77620857Y-118403666D01*
X77763714Y-118403666D01*
X77858952Y-118451285D01*
X77906571Y-118498904D01*
X77954190Y-118594142D01*
X77954190Y-118975095D01*
X77763714Y-117546523D02*
X78430380Y-117546523D01*
X77382761Y-117784619D02*
X78097047Y-118022714D01*
X78097047Y-117403666D01*
X80058380Y-117917266D02*
X79582190Y-118250600D01*
X80058380Y-118488695D02*
X79058380Y-118488695D01*
X79058380Y-118107742D01*
X79106000Y-118012504D01*
X79153619Y-117964885D01*
X79248857Y-117917266D01*
X79391714Y-117917266D01*
X79486952Y-117964885D01*
X79534571Y-118012504D01*
X79582190Y-118107742D01*
X79582190Y-118488695D01*
X79058380Y-117060123D02*
X79058380Y-117250600D01*
X79106000Y-117345838D01*
X79153619Y-117393457D01*
X79296476Y-117488695D01*
X79486952Y-117536314D01*
X79867904Y-117536314D01*
X79963142Y-117488695D01*
X80010761Y-117441076D01*
X80058380Y-117345838D01*
X80058380Y-117155361D01*
X80010761Y-117060123D01*
X79963142Y-117012504D01*
X79867904Y-116964885D01*
X79629809Y-116964885D01*
X79534571Y-117012504D01*
X79486952Y-117060123D01*
X79439333Y-117155361D01*
X79439333Y-117345838D01*
X79486952Y-117441076D01*
X79534571Y-117488695D01*
X79629809Y-117536314D01*
X85161380Y-117768666D02*
X84685190Y-118102000D01*
X85161380Y-118340095D02*
X84161380Y-118340095D01*
X84161380Y-117959142D01*
X84209000Y-117863904D01*
X84256619Y-117816285D01*
X84351857Y-117768666D01*
X84494714Y-117768666D01*
X84589952Y-117816285D01*
X84637571Y-117863904D01*
X84685190Y-117959142D01*
X84685190Y-118340095D01*
X84161380Y-117435333D02*
X84161380Y-116816285D01*
X84542333Y-117149619D01*
X84542333Y-117006761D01*
X84589952Y-116911523D01*
X84637571Y-116863904D01*
X84732809Y-116816285D01*
X84970904Y-116816285D01*
X85066142Y-116863904D01*
X85113761Y-116911523D01*
X85161380Y-117006761D01*
X85161380Y-117292476D01*
X85113761Y-117387714D01*
X85066142Y-117435333D01*
X91146333Y-114375380D02*
X90670142Y-114375380D01*
X90670142Y-113375380D01*
X92003476Y-114375380D02*
X91432047Y-114375380D01*
X91717761Y-114375380D02*
X91717761Y-113375380D01*
X91622523Y-113518238D01*
X91527285Y-113613476D01*
X91432047Y-113661095D01*
X78312142Y-121038857D02*
X78359761Y-121086476D01*
X78407380Y-121229333D01*
X78407380Y-121324571D01*
X78359761Y-121467428D01*
X78264523Y-121562666D01*
X78169285Y-121610285D01*
X77978809Y-121657904D01*
X77835952Y-121657904D01*
X77645476Y-121610285D01*
X77550238Y-121562666D01*
X77455000Y-121467428D01*
X77407380Y-121324571D01*
X77407380Y-121229333D01*
X77455000Y-121086476D01*
X77502619Y-121038857D01*
X78407380Y-120086476D02*
X78407380Y-120657904D01*
X78407380Y-120372190D02*
X77407380Y-120372190D01*
X77550238Y-120467428D01*
X77645476Y-120562666D01*
X77693095Y-120657904D01*
X77407380Y-119467428D02*
X77407380Y-119372190D01*
X77455000Y-119276952D01*
X77502619Y-119229333D01*
X77597857Y-119181714D01*
X77788333Y-119134095D01*
X78026428Y-119134095D01*
X78216904Y-119181714D01*
X78312142Y-119229333D01*
X78359761Y-119276952D01*
X78407380Y-119372190D01*
X78407380Y-119467428D01*
X78359761Y-119562666D01*
X78312142Y-119610285D01*
X78216904Y-119657904D01*
X78026428Y-119705523D01*
X77788333Y-119705523D01*
X77597857Y-119657904D01*
X77502619Y-119610285D01*
X77455000Y-119562666D01*
X77407380Y-119467428D01*
X83055142Y-101755666D02*
X83102761Y-101803285D01*
X83150380Y-101946142D01*
X83150380Y-102041380D01*
X83102761Y-102184238D01*
X83007523Y-102279476D01*
X82912285Y-102327095D01*
X82721809Y-102374714D01*
X82578952Y-102374714D01*
X82388476Y-102327095D01*
X82293238Y-102279476D01*
X82198000Y-102184238D01*
X82150380Y-102041380D01*
X82150380Y-101946142D01*
X82198000Y-101803285D01*
X82245619Y-101755666D01*
X83150380Y-101279476D02*
X83150380Y-101089000D01*
X83102761Y-100993761D01*
X83055142Y-100946142D01*
X82912285Y-100850904D01*
X82721809Y-100803285D01*
X82340857Y-100803285D01*
X82245619Y-100850904D01*
X82198000Y-100898523D01*
X82150380Y-100993761D01*
X82150380Y-101184238D01*
X82198000Y-101279476D01*
X82245619Y-101327095D01*
X82340857Y-101374714D01*
X82578952Y-101374714D01*
X82674190Y-101327095D01*
X82721809Y-101279476D01*
X82769428Y-101184238D01*
X82769428Y-100993761D01*
X82721809Y-100898523D01*
X82674190Y-100850904D01*
X82578952Y-100803285D01*
X84685142Y-101766666D02*
X84732761Y-101814285D01*
X84780380Y-101957142D01*
X84780380Y-102052380D01*
X84732761Y-102195238D01*
X84637523Y-102290476D01*
X84542285Y-102338095D01*
X84351809Y-102385714D01*
X84208952Y-102385714D01*
X84018476Y-102338095D01*
X83923238Y-102290476D01*
X83828000Y-102195238D01*
X83780380Y-102052380D01*
X83780380Y-101957142D01*
X83828000Y-101814285D01*
X83875619Y-101766666D01*
X84780380Y-100814285D02*
X84780380Y-101385714D01*
X84780380Y-101100000D02*
X83780380Y-101100000D01*
X83923238Y-101195238D01*
X84018476Y-101290476D01*
X84066095Y-101385714D01*
X83161142Y-117768666D02*
X83208761Y-117816285D01*
X83256380Y-117959142D01*
X83256380Y-118054380D01*
X83208761Y-118197238D01*
X83113523Y-118292476D01*
X83018285Y-118340095D01*
X82827809Y-118387714D01*
X82684952Y-118387714D01*
X82494476Y-118340095D01*
X82399238Y-118292476D01*
X82304000Y-118197238D01*
X82256380Y-118054380D01*
X82256380Y-117959142D01*
X82304000Y-117816285D01*
X82351619Y-117768666D01*
X82684952Y-117197238D02*
X82637333Y-117292476D01*
X82589714Y-117340095D01*
X82494476Y-117387714D01*
X82446857Y-117387714D01*
X82351619Y-117340095D01*
X82304000Y-117292476D01*
X82256380Y-117197238D01*
X82256380Y-117006761D01*
X82304000Y-116911523D01*
X82351619Y-116863904D01*
X82446857Y-116816285D01*
X82494476Y-116816285D01*
X82589714Y-116863904D01*
X82637333Y-116911523D01*
X82684952Y-117006761D01*
X82684952Y-117197238D01*
X82732571Y-117292476D01*
X82780190Y-117340095D01*
X82875428Y-117387714D01*
X83065904Y-117387714D01*
X83161142Y-117340095D01*
X83208761Y-117292476D01*
X83256380Y-117197238D01*
X83256380Y-117006761D01*
X83208761Y-116911523D01*
X83161142Y-116863904D01*
X83065904Y-116816285D01*
X82875428Y-116816285D01*
X82780190Y-116863904D01*
X82732571Y-116911523D01*
X82684952Y-117006761D01*
M02*
