M48
; DRILL file {KiCad (5.1.4)-1} date 13/01/2020 07:02:14
; FORMAT={-:-/ absolute / inch / decimal}
; #@! TF.CreationDate,2020-01-13T07:02:14+01:00
; #@! TF.GenerationSoftware,Kicad,Pcbnew,(5.1.4)-1
; #@! TF.FileFunction,Plated,1,2,PTH
FMAT,2
INCH
T1C0.0079
T2C0.0157
T3C0.0236
T4C0.0354
T5C0.0394
%
G90
G05
T1
X3.7535Y-3.2585
X3.7535Y-3.3042
X3.7535Y-3.35
X3.7535Y-3.3958
X3.7535Y-3.4415
X3.7992Y-3.2585
X3.7992Y-3.3042
X3.7992Y-3.35
X3.7992Y-3.3958
X3.7992Y-3.4415
X3.845Y-3.2585
X3.845Y-3.3042
X3.845Y-3.35
X3.845Y-3.3958
X3.845Y-3.4415
X3.8908Y-3.2585
X3.8908Y-3.3042
X3.8908Y-3.35
X3.8908Y-3.3958
X3.8908Y-3.4415
X3.9365Y-3.2585
X3.9365Y-3.3042
X3.9365Y-3.35
X3.9365Y-3.3958
X3.9365Y-3.4415
X3.1995Y-4.2943
X3.1995Y-4.3357
X3.23Y-4.2648
X3.23Y-4.2943
X3.23Y-4.3357
X3.23Y-4.3652
X3.2605Y-4.2943
X3.2605Y-4.3357
X3.3524Y-4.9638
X3.3524Y-5.015
X3.3524Y-5.0662
X3.4276Y-4.9638
X3.4276Y-5.015
X3.4276Y-5.0662
T2
X1.9291Y-2.0866
X1.9291Y-2.126
X1.9291Y-2.1654
X1.9291Y-2.2047
X1.9291Y-2.2047
X1.9291Y-2.2441
X1.9291Y-2.2835
X1.9291Y-2.3228
X1.9291Y-2.3622
X1.9291Y-2.4016
X1.9291Y-2.4409
X1.9291Y-2.4803
X1.9291Y-2.5197
X1.9291Y-2.5591
X1.9291Y-2.5984
X1.9291Y-2.6378
X1.9291Y-2.6772
X1.9291Y-2.7165
X1.9291Y-2.7559
X1.9291Y-2.7559
X1.9291Y-2.7953
X1.9291Y-2.8346
X1.9291Y-2.874
X1.9291Y-2.9134
X1.9291Y-2.9528
X1.9291Y-2.9921
X1.9291Y-3.0315
X1.9291Y-3.0709
X1.9291Y-3.1102
X1.9291Y-3.1496
X1.9291Y-3.1496
X1.9291Y-3.189
X1.9291Y-3.2283
X1.9291Y-3.2677
X1.9291Y-3.3071
X1.9291Y-3.3465
X1.9291Y-3.3858
X1.9291Y-3.4252
X1.9291Y-3.4646
X1.9291Y-3.5039
X1.9291Y-3.5433
X1.9291Y-3.5433
X1.9291Y-3.5827
X1.9291Y-3.622
X1.9291Y-3.6614
X1.9291Y-3.7008
X1.9291Y-3.7402
X1.9291Y-3.7795
X1.9291Y-3.8189
X1.9291Y-3.8583
X1.9291Y-3.8976
X1.9291Y-3.937
X1.9291Y-3.9764
X1.9291Y-4.0157
X1.9291Y-4.0551
X1.9291Y-4.0945
X1.9291Y-4.1339
X1.9291Y-4.1732
X1.9291Y-4.2126
X1.9291Y-4.252
X1.9291Y-4.2913
X1.9291Y-4.3307
X1.9291Y-4.3701
X1.9291Y-4.4094
X1.9291Y-4.4488
X1.9291Y-4.4882
X1.9291Y-4.5276
X1.9291Y-4.5669
X1.9291Y-4.6063
X1.9291Y-4.6457
X1.9291Y-4.685
X1.9291Y-4.7244
X1.9291Y-4.7638
X1.9291Y-4.8031
X1.9291Y-4.8425
X1.9291Y-4.8819
X1.9291Y-4.9213
X1.9291Y-4.9606
X1.9291Y-5.0
X1.9291Y-5.0394
X1.9291Y-5.0787
X1.9291Y-5.1181
X1.9291Y-5.1575
X1.9291Y-5.1969
X1.9409Y-2.0472
X1.9409Y-5.2362
X1.9685Y-2.0197
X1.9685Y-5.2638
X2.0079Y-2.0079
X2.0079Y-5.2756
X2.035Y-2.46
X2.0472Y-2.0079
X2.0472Y-5.2756
X2.0866Y-2.0079
X2.0866Y-5.2756
X2.126Y-2.0079
X2.126Y-5.2756
X2.1654Y-2.0079
X2.1654Y-5.2756
X2.2047Y-2.0079
X2.2047Y-5.2756
X2.2441Y-2.0079
X2.2441Y-5.2756
X2.2835Y-5.2756
X2.3228Y-5.2756
X2.3622Y-5.2756
X2.4016Y-5.2756
X2.4409Y-5.2756
X2.4803Y-5.2756
X2.5197Y-5.2756
X2.5591Y-5.2756
X2.5984Y-5.2756
X2.874Y-2.0079
X2.9134Y-2.0079
X2.9528Y-2.0079
X2.9606Y-3.7308
X2.9606Y-3.7702
X2.9606Y-3.8883
X2.9606Y-3.9277
X2.9606Y-4.0458
X2.9921Y-2.0079
X2.9999Y-3.7308
X2.9999Y-3.7702
X2.9999Y-3.8883
X2.9999Y-3.9277
X2.9999Y-4.0458
X3.0315Y-2.0079
X3.0393Y-3.7308
X3.0393Y-3.7702
X3.0393Y-3.8883
X3.0393Y-3.9277
X3.0393Y-4.0458
X3.0709Y-2.0079
X3.0787Y-4.0458
X3.1102Y-2.0079
X3.1102Y-5.2756
X3.118Y-4.0458
X3.1496Y-2.0079
X3.1496Y-5.2756
X3.1574Y-4.0458
X3.1574Y-4.0852
X3.1574Y-4.1245
X3.1574Y-4.1645
X3.189Y-2.0079
X3.189Y-5.2756
X3.1968Y-4.0458
X3.1968Y-4.0852
X3.1968Y-4.1245
X3.1968Y-4.1645
X3.1968Y-4.5232
X3.1968Y-4.5626
X3.1968Y-4.6019
X3.2283Y-2.0079
X3.2283Y-5.2756
X3.2677Y-2.0079
X3.2677Y-5.2756
X3.3071Y-2.0079
X3.3071Y-5.2756
X3.3465Y-2.0079
X3.3465Y-5.2756
X3.3858Y-2.0079
X3.3858Y-5.2756
X3.4252Y-2.0079
X3.4252Y-5.2756
X3.4409Y-4.5626
X3.4409Y-4.6019
X3.4646Y-2.0079
X3.4646Y-5.2756
X3.4802Y-4.5626
X3.4802Y-4.6019
X3.5039Y-2.0079
X3.5039Y-5.2756
X3.5196Y-4.5626
X3.5196Y-4.6019
X3.5433Y-2.0079
X3.5433Y-5.2756
X3.559Y-4.5626
X3.559Y-4.6019
X3.5827Y-2.0079
X3.5827Y-5.2756
X3.588Y-3.7224
X3.588Y-3.7618
X3.593Y-2.9074
X3.593Y-2.9468
X3.622Y-2.0079
X3.622Y-5.2756
X3.6273Y-3.7224
X3.6273Y-3.7618
X3.6323Y-2.9074
X3.6323Y-2.9468
X3.65Y-3.565
X3.6614Y-2.0079
X3.6614Y-5.2756
X3.6667Y-3.7224
X3.6667Y-3.7618
X3.6717Y-2.9074
X3.6717Y-2.9468
X3.7008Y-2.0079
X3.7008Y-5.2756
X3.735Y-3.145
X3.7402Y-2.0079
X3.7402Y-5.2756
X3.755Y-4.41
X3.7795Y-2.0079
X3.7795Y-5.2756
X3.81Y-3.145
X3.815Y-3.565
X3.8189Y-2.0079
X3.8189Y-5.2756
X3.8583Y-2.0079
X3.8583Y-5.2756
X3.8976Y-2.0079
X3.8976Y-5.2756
X3.937Y-2.0079
X3.937Y-5.2756
X3.9764Y-2.0079
X3.9764Y-5.2756
X4.0157Y-2.0079
X4.0157Y-5.2756
X4.038Y-2.8174
X4.038Y-2.8568
X4.038Y-2.9974
X4.038Y-3.0368
X4.038Y-3.6574
X4.038Y-3.6968
X4.038Y-3.8424
X4.038Y-3.8818
X4.0551Y-2.0079
X4.0551Y-5.2756
X4.0773Y-2.8174
X4.0773Y-2.8568
X4.0773Y-2.9974
X4.0773Y-3.0368
X4.0773Y-3.6574
X4.0773Y-3.6968
X4.0773Y-3.8424
X4.0773Y-3.8818
X4.0945Y-2.0079
X4.0945Y-5.2756
X4.1167Y-2.8174
X4.1167Y-2.8568
X4.1167Y-2.9974
X4.1167Y-3.0368
X4.1167Y-3.6574
X4.1167Y-3.6968
X4.1167Y-3.8424
X4.1167Y-3.8818
X4.1339Y-2.0079
X4.1339Y-5.2756
X4.1732Y-2.0079
X4.1732Y-5.2756
X4.195Y-4.065
X4.2126Y-2.0079
X4.2126Y-5.2756
X4.252Y-2.0079
X4.252Y-5.2756
X4.2913Y-2.0079
X4.2913Y-5.2756
X4.3307Y-2.0079
X4.3307Y-5.2756
X4.3701Y-2.0079
X4.3701Y-5.2756
X4.4094Y-2.0079
X4.4094Y-5.2756
X4.4488Y-2.0079
X4.4488Y-5.2756
X4.4882Y-2.0079
X4.4882Y-5.2756
X4.5276Y-2.0079
X4.5276Y-5.2756
X4.5669Y-2.0197
X4.5669Y-5.2638
X4.5945Y-2.0472
X4.5945Y-5.2362
X4.6063Y-2.0866
X4.6063Y-2.126
X4.6063Y-2.1654
X4.6063Y-2.2047
X4.6063Y-2.2441
X4.6063Y-2.2835
X4.6063Y-2.3228
X4.6063Y-2.3622
X4.6063Y-2.4016
X4.6063Y-2.4409
X4.6063Y-2.4803
X4.6063Y-2.5197
X4.6063Y-2.5591
X4.6063Y-2.5984
X4.6063Y-2.6378
X4.6063Y-2.6772
X4.6063Y-2.7165
X4.6063Y-2.7559
X4.6063Y-2.7953
X4.6063Y-2.8346
X4.6063Y-2.874
X4.6063Y-2.9134
X4.6063Y-2.9528
X4.6063Y-2.9921
X4.6063Y-3.0315
X4.6063Y-3.0709
X4.6063Y-3.1102
X4.6063Y-3.1496
X4.6063Y-3.189
X4.6063Y-3.2283
X4.6063Y-3.2677
X4.6063Y-3.3071
X4.6063Y-3.3465
X4.6063Y-3.3858
X4.6063Y-3.4252
X4.6063Y-3.4646
X4.6063Y-3.5039
X4.6063Y-3.5433
X4.6063Y-3.5827
X4.6063Y-3.622
X4.6063Y-3.6614
X4.6063Y-3.7008
X4.6063Y-3.7402
X4.6063Y-3.7795
X4.6063Y-3.8189
X4.6063Y-3.8583
X4.6063Y-3.8976
X4.6063Y-3.937
X4.6063Y-3.9764
X4.6063Y-4.0157
X4.6063Y-4.0551
X4.6063Y-4.0945
X4.6063Y-4.1339
X4.6063Y-4.1732
X4.6063Y-4.2126
X4.6063Y-4.252
X4.6063Y-4.2913
X4.6063Y-4.3307
X4.6063Y-4.3701
X4.6063Y-4.4094
X4.6063Y-4.4488
X4.6063Y-4.4882
X4.6063Y-4.5276
X4.6063Y-4.5669
X4.6063Y-4.6063
X4.6063Y-4.6457
X4.6063Y-4.685
X4.6063Y-4.7244
X4.6063Y-4.7638
X4.6063Y-4.8031
X4.6063Y-4.8425
X4.6063Y-4.8819
X4.6063Y-4.9213
X4.6063Y-4.9606
X4.6063Y-5.0
X4.6063Y-5.0394
X4.6063Y-5.0787
X4.6063Y-5.1181
X4.6063Y-5.1575
X4.6063Y-5.1969
T4
X3.2177Y-2.7559
X3.3177Y-2.7559
T5
X2.155Y-3.5
X2.155Y-3.6
X2.155Y-3.7
X2.155Y-3.8
X2.155Y-3.9
X2.255Y-3.5
X2.255Y-3.6
X2.255Y-3.7
X2.255Y-3.8
X2.255Y-3.9
X2.155Y-2.7
X2.155Y-2.8
X2.155Y-3.17
X2.255Y-3.17
X3.1677Y-2.1654
X3.1677Y-2.4114
X3.2677Y-2.1654
X3.3677Y-2.1654
X3.3677Y-2.4114
T3
G00X2.6902Y-5.0913
M15
G01X2.6902Y-5.1346
M16
G05
G00X2.6902Y-5.2657
M15
G01X2.6902Y-5.2894
M16
G05
G00X3.0303Y-5.0913
M15
G01X3.0303Y-5.1346
M16
G05
G00X3.0303Y-5.2657
M15
G01X3.0303Y-5.2894
M16
G05
T0
M30
